<svg xmlns="http://www.w3.org/2000/svg" xmlns:xlink="http://www.w3.org/1999/xlink" width="500" zoomAndPan="magnify" viewBox="0 0 375 374.999991" height="500" preserveAspectRatio="xMidYMid meet" version="1.2"><defs><clipPath id="8eeeb0114d"><path d="M 201 70.863281 L 210 70.863281 L 210 115 L 201 115 Z M 201 70.863281 "/></clipPath><clipPath id="731d27e7e8"><path d="M 281 218 L 311.921875 218 L 311.921875 229 L 281 229 Z M 281 218 "/></clipPath></defs><g id="ca495a9309"><path style=" stroke:none;fill-rule:evenodd;fill:#000000;fill-opacity:1;" d="M 299.386719 154.378906 C 278.15625 170.746094 276.414062 180.132812 302.285156 188.957031 C 265.730469 198.785156 256.785156 208.046875 283.289062 233.296875 C 233.523438 224.53125 219.210938 231.753906 217.003906 279.445312 C 187.046875 242.273438 171.226562 244.898438 136.257812 281.375 C 142.722656 245.34375 130.03125 243.15625 94.734375 256.824219 C 110.394531 234.421875 103.441406 227.871094 76.644531 227.214844 C 97.878906 210.855469 99.617188 201.464844 73.75 192.640625 C 110.300781 182.8125 119.25 173.550781 92.742188 148.296875 C 142.507812 157.066406 156.824219 149.839844 159.027344 102.15625 C 188.988281 139.324219 204.804688 136.699219 239.773438 100.222656 C 233.308594 136.253906 246 138.441406 281.296875 124.773438 C 265.636719 147.175781 272.589844 153.726562 299.386719 154.378906 "/><path style=" stroke:none;fill-rule:evenodd;fill:#ffffff;fill-opacity:1;" d="M 290.699219 157.222656 C 271.121094 172.308594 269.519531 180.964844 293.367188 189.101562 C 259.667969 198.160156 251.417969 206.699219 275.855469 229.984375 C 229.972656 221.898438 216.773438 228.558594 214.742188 272.527344 C 187.121094 238.257812 172.535156 240.679688 140.296875 274.304688 C 146.253906 241.089844 134.558594 239.070312 102.015625 251.671875 C 116.453125 231.015625 110.039062 224.976562 85.332031 224.375 C 104.910156 209.289062 106.515625 200.632812 82.664062 192.496094 C 116.367188 183.433594 124.613281 174.898438 100.175781 151.617188 C 146.058594 159.699219 159.257812 153.039062 161.289062 109.070312 C 188.910156 143.34375 203.496094 140.917969 235.738281 107.289062 C 229.777344 140.511719 241.476562 142.527344 274.019531 129.925781 C 259.582031 150.578125 265.992188 156.621094 290.699219 157.222656 "/><path style=" stroke:none;fill-rule:nonzero;fill:#180f26;fill-opacity:1;" d="M 137.605469 130.917969 L 118.640625 111.285156 L 119.996094 110.0625 L 137.605469 130.917969 "/><path style=" stroke:none;fill-rule:nonzero;fill:#180f26;fill-opacity:1;" d="M 139.410156 108.792969 L 124.894531 81.804688 L 126.527344 80.988281 L 139.410156 108.792969 "/><path style=" stroke:none;fill-rule:nonzero;fill:#180f26;fill-opacity:1;" d="M 204.277344 111.476562 L 212.308594 73.40625 L 214.132812 73.40625 L 204.277344 111.476562 "/><g clip-rule="nonzero" clip-path="url(#8eeeb0114d)"><path style=" stroke:none;fill-rule:nonzero;fill:#180f26;fill-opacity:1;" d="M 201.332031 114.023438 L 207.320312 70.855469 L 209.121094 71.144531 L 201.332031 114.023438 "/></g><path style=" stroke:none;fill-rule:nonzero;fill:#180f26;fill-opacity:1;" d="M 251.429688 120.753906 L 273.589844 96.65625 L 274.894531 97.925781 L 251.429688 120.753906 "/><path style=" stroke:none;fill-rule:nonzero;fill:#180f26;fill-opacity:1;" d="M 256.867188 282.390625 L 234.511719 250.441406 L 258.335938 281.3125 L 256.867188 282.390625 "/><g clip-rule="nonzero" clip-path="url(#731d27e7e8)"><path style=" stroke:none;fill-rule:nonzero;fill:#180f26;fill-opacity:1;" d="M 311.25 228.113281 L 281.390625 218.40625 L 311.761719 226.363281 L 311.25 228.113281 "/></g><path style=" stroke:none;fill-rule:nonzero;fill:#180f26;fill-opacity:1;" d="M 280.636719 278.039062 L 240.695312 239.199219 L 281.890625 276.710938 L 280.636719 278.039062 "/><path style=" stroke:none;fill-rule:nonzero;fill:#180f26;fill-opacity:1;" d="M 270.902344 259.136719 L 249.882812 240.585938 L 272.066406 257.726562 L 270.902344 259.136719 "/><path style=" stroke:none;fill-rule:nonzero;fill:#180f26;fill-opacity:1;" d="M 194.242188 304 L 190.753906 259.359375 L 196.054688 303.820312 L 194.242188 304 "/><path style=" stroke:none;fill-rule:nonzero;fill:#180f26;fill-opacity:1;" d="M 185.824219 289.484375 L 184 289.441406 L 185.570312 261.019531 L 185.824219 289.484375 "/><path style=" stroke:none;fill-rule:nonzero;fill:#180f26;fill-opacity:1;" d="M 106.078125 298.957031 L 104.582031 297.910156 L 132.640625 259.371094 L 106.078125 298.957031 "/><path style=" stroke:none;fill-rule:nonzero;fill:#180f26;fill-opacity:1;" d="M 66.160156 254.214844 L 65.28125 252.613281 L 91.566406 239.199219 L 66.160156 254.214844 "/><path style=" stroke:none;fill-rule:nonzero;fill:#180f26;fill-opacity:1;" d="M 95.917969 168.679688 L 63.140625 160.3125 L 63.640625 158.558594 L 95.917969 168.679688 "/><path style=" stroke:none;fill-rule:nonzero;fill:#180f26;fill-opacity:1;" d="M 88.082031 153.285156 L 63.019531 143.179688 L 63.757812 141.511719 L 88.082031 153.285156 "/><path style=" stroke:none;fill-rule:nonzero;fill:#180f26;fill-opacity:1;" d="M 144.335938 129.574219 L 103.585938 76.3125 L 105.050781 75.222656 L 144.335938 129.574219 "/><path style=" stroke:none;fill-rule:evenodd;fill:#edaf33;fill-opacity:1;" d="M 279.996094 123.433594 L 277.597656 116.609375 L 271.15625 116.589844 L 276.113281 112.390625 L 273.714844 105.566406 L 279.179688 109.792969 L 284.136719 105.59375 L 282.554688 112.40625 L 288.015625 116.632812 L 281.578125 116.621094 L 279.996094 123.433594 "/><path style=" stroke:none;fill-rule:nonzero;fill:#000000;fill-opacity:1;" d="M 279.992188 123.355469 C 280.222656 122.234375 280.464844 121.117188 280.707031 120 C 280.949219 118.855469 281.203125 117.714844 281.453125 116.574219 L 281.472656 116.476562 L 281.570312 116.476562 L 284.785156 116.445312 L 288.003906 116.425781 L 287.917969 116.804688 L 285.171875 114.710938 L 282.4375 112.605469 L 282.304688 112.5 L 282.339844 112.332031 L 283.125 108.921875 L 283.925781 105.515625 L 284.273438 105.789062 C 283.445312 106.484375 282.621094 107.183594 281.785156 107.875 C 280.953125 108.566406 280.121094 109.261719 279.289062 109.945312 L 279.191406 110.023438 L 279.085938 109.945312 L 273.636719 105.695312 L 273.847656 105.515625 L 276.226562 112.347656 L 276.253906 112.441406 L 276.191406 112.496094 L 271.210938 116.671875 L 271.152344 116.492188 L 277.59375 116.546875 L 277.632812 116.546875 L 277.648438 116.589844 Z M 280 123.507812 L 277.546875 116.628906 L 277.601562 116.667969 L 271.164062 116.691406 L 270.890625 116.691406 L 271.097656 116.511719 L 276.035156 112.28125 L 276.003906 112.429688 L 273.578125 105.613281 L 273.414062 105.144531 L 273.792969 105.433594 L 279.269531 109.640625 L 279.070312 109.640625 C 279.882812 108.925781 280.707031 108.21875 281.527344 107.511719 C 282.347656 106.800781 283.171875 106.101562 283.996094 105.394531 L 284.507812 104.957031 L 284.34375 105.667969 L 283.5625 109.078125 L 282.765625 112.484375 L 282.667969 112.210938 L 285.398438 114.328125 L 288.117188 116.464844 L 288.609375 116.851562 L 288.03125 116.84375 L 284.808594 116.8125 L 281.585938 116.761719 L 281.703125 116.664062 C 281.421875 117.792969 281.152344 118.925781 280.867188 120.054688 C 280.582031 121.183594 280.304688 122.3125 280.015625 123.441406 L 280 123.507812 "/><path style=" stroke:none;fill-rule:evenodd;fill:#edaf33;fill-opacity:1;" d="M 118.878906 123.769531 L 112.117188 126.34375 L 112.265625 132.78125 L 107.9375 127.933594 L 101.175781 130.507812 L 105.261719 124.941406 L 100.933594 120.089844 L 107.789062 121.496094 L 111.875 115.921875 L 112.023438 122.363281 L 118.878906 123.769531 "/><path style=" stroke:none;fill-rule:nonzero;fill:#000000;fill-opacity:1;" d="M 118.800781 123.777344 C 117.671875 123.570312 116.550781 123.355469 115.421875 123.148438 C 114.273438 122.933594 113.128906 122.707031 111.984375 122.488281 L 111.886719 122.472656 L 111.882812 122.375 L 111.765625 119.160156 L 111.664062 115.945312 L 112.046875 116.023438 L 110.027344 118.816406 L 107.988281 121.609375 L 107.886719 121.746094 L 107.71875 121.710938 L 104.289062 121.015625 L 100.863281 120.304688 L 101.125 119.945312 C 101.84375 120.757812 102.566406 121.566406 103.277344 122.378906 C 103.988281 123.195312 104.703125 124.007812 105.414062 124.824219 L 105.496094 124.921875 L 105.417969 125.027344 L 101.304688 130.582031 L 101.125 130.375 L 107.894531 127.824219 L 107.988281 127.789062 L 108.042969 127.855469 L 112.34375 132.722656 L 112.167969 132.789062 L 112.054688 126.347656 L 112.054688 126.308594 L 112.097656 126.292969 Z M 118.953125 123.761719 L 112.136719 126.394531 L 112.179688 126.335938 L 112.363281 132.773438 L 112.371094 133.046875 L 112.1875 132.839844 L 107.832031 128.011719 L 107.980469 128.042969 L 101.226562 130.644531 L 100.765625 130.820312 L 101.042969 130.4375 L 105.105469 124.851562 L 105.113281 125.050781 C 104.375 124.253906 103.648438 123.449219 102.917969 122.648438 C 102.1875 121.851562 101.46875 121.039062 100.742188 120.234375 L 100.289062 119.734375 L 101.003906 119.878906 L 104.433594 120.574219 L 107.859375 121.28125 L 107.589844 121.382812 L 109.636719 118.601562 L 111.699219 115.828125 L 112.078125 115.328125 L 112.082031 115.90625 L 112.132812 119.128906 L 112.167969 122.351562 L 112.066406 122.238281 C 113.203125 122.488281 114.339844 122.730469 115.476562 122.988281 C 116.613281 123.238281 117.75 123.488281 118.886719 123.75 L 118.953125 123.761719 "/><path style=" stroke:none;fill-rule:evenodd;fill:#edaf33;fill-opacity:1;" d="M 86.074219 256.785156 L 84.796875 265.839844 L 92.019531 269.605469 L 84.007812 271.441406 L 82.730469 280.5 L 79.058594 272.574219 L 71.046875 274.40625 L 76.785156 267.675781 L 73.113281 259.75 L 80.332031 263.515625 L 86.074219 256.785156 "/><path style=" stroke:none;fill-rule:nonzero;fill:#000000;fill-opacity:1;" d="M 86.03125 256.875 C 85.117188 257.996094 84.199219 259.109375 83.277344 260.226562 C 82.335938 261.371094 81.390625 262.5 80.445312 263.636719 L 80.367188 263.734375 L 80.261719 263.679688 L 76.628906 261.847656 L 73.003906 259.992188 L 73.324219 259.621094 L 75.1875 263.566406 L 77.03125 267.523438 L 77.125 267.714844 L 76.980469 267.886719 L 74.117188 271.257812 L 71.238281 274.617188 L 71.003906 274.105469 C 72.339844 273.808594 73.675781 273.5 75.011719 273.214844 C 76.347656 272.917969 77.683594 272.621094 79.023438 272.339844 L 79.179688 272.304688 L 79.246094 272.457031 L 82.894531 280.398438 L 82.550781 280.476562 L 83.859375 271.421875 L 83.878906 271.300781 L 83.984375 271.273438 L 92 269.484375 L 91.964844 269.71875 L 84.765625 265.914062 L 84.722656 265.890625 L 84.726562 265.832031 Z M 86.109375 256.699219 L 84.867188 265.851562 L 84.828125 265.769531 L 92.070312 269.492188 L 92.375 269.648438 L 92.035156 269.730469 L 84.03125 271.605469 L 84.15625 271.460938 L 82.910156 280.523438 L 82.824219 281.144531 L 82.570312 280.597656 L 78.863281 272.691406 L 79.089844 272.808594 C 77.757812 273.136719 76.425781 273.449219 75.089844 273.769531 C 73.757812 274.09375 72.421875 274.394531 71.089844 274.707031 L 70.257812 274.902344 L 70.855469 274.203125 L 73.714844 270.828125 L 76.589844 267.46875 L 76.539062 267.828125 L 74.710938 263.863281 L 72.898438 259.882812 L 72.570312 259.160156 L 73.21875 259.503906 L 76.820312 261.417969 L 80.40625 263.351562 L 80.21875 263.394531 C 81.1875 262.285156 82.152344 261.171875 83.132812 260.070312 C 84.101562 258.964844 85.074219 257.859375 86.054688 256.761719 L 86.109375 256.699219 "/><path style=" stroke:none;fill-rule:evenodd;fill:#edaf33;fill-opacity:1;" d="M 107.378906 265.914062 L 107.3125 270.105469 L 110.8125 271.40625 L 107.277344 272.699219 L 107.210938 276.886719 L 105.089844 273.492188 L 101.550781 274.785156 L 103.777344 271.394531 L 101.65625 268 L 105.152344 269.300781 L 107.378906 265.914062 "/><path style=" stroke:none;fill-rule:nonzero;fill:#000000;fill-opacity:1;" d="M 107.367188 265.957031 C 107.015625 266.519531 106.65625 267.078125 106.304688 267.640625 C 105.941406 268.214844 105.574219 268.777344 105.210938 269.351562 L 105.179688 269.398438 L 105.128906 269.378906 L 103.375 268.753906 L 101.621094 268.117188 L 101.742188 267.929688 L 102.816406 269.617188 L 103.878906 271.3125 L 103.933594 271.394531 L 103.878906 271.480469 L 102.769531 273.175781 L 101.652344 274.863281 L 101.515625 274.648438 C 102.105469 274.4375 102.695312 274.222656 103.285156 274.015625 C 103.878906 273.800781 104.46875 273.59375 105.0625 273.390625 L 105.128906 273.367188 L 105.167969 273.429688 L 107.277344 276.832031 L 107.128906 276.886719 L 107.207031 272.695312 L 107.207031 272.636719 L 107.253906 272.625 L 110.796875 271.351562 L 110.796875 271.460938 L 107.304688 270.140625 L 107.28125 270.132812 L 107.28125 270.105469 Z M 107.390625 265.871094 L 107.347656 270.105469 L 107.324219 270.070312 L 110.828125 271.351562 L 110.976562 271.40625 L 110.828125 271.460938 L 107.296875 272.769531 L 107.34375 272.699219 L 107.296875 276.886719 L 107.289062 277.175781 L 107.144531 276.941406 L 105.007812 273.558594 L 105.117188 273.597656 C 104.53125 273.820312 103.941406 274.042969 103.355469 274.265625 C 102.769531 274.484375 102.175781 274.699219 101.589844 274.917969 L 101.21875 275.054688 L 101.453125 274.699219 L 102.5625 273.003906 L 103.679688 271.3125 L 103.675781 271.476562 L 102.617188 269.78125 L 101.566406 268.074219 L 101.375 267.765625 L 101.691406 267.886719 L 103.433594 268.546875 L 105.175781 269.222656 L 105.09375 269.253906 C 105.472656 268.695312 105.847656 268.132812 106.226562 267.578125 C 106.609375 267.019531 106.984375 266.460938 107.367188 265.90625 L 107.390625 265.871094 "/><g style="fill:#000000;fill-opacity:1;"><g transform="translate(46.69922, 210.374986)"><path style="stroke:none" d="M 34.785156 -43.472656 C 36.851562 -42.378906 38.164062 -40.746094 38.722656 -38.574219 L 38.867188 -38.015625 L 38.765625 -37.445312 C 37.960938 -32.945312 37.238281 -28.476562 36.597656 -24.035156 C 35.941406 -19.519531 35.308594 -15.730469 34.691406 -12.667969 C 34.09375 -9.703125 33.6875 -7.492188 33.472656 -6.039062 C 33.242188 -4.507812 32.984375 -2.976562 32.695312 -1.449219 L 32.671875 -1.328125 L 32.273438 0.0625 L 29.722656 -0.667969 L 32.335938 -0.191406 C 32.25 0.277344 32.164062 0.714844 32.078125 1.121094 C 32 1.484375 31.925781 1.875 31.847656 2.292969 L 31.71875 3.015625 L 31.234375 3.566406 C 29.574219 5.464844 27.371094 6.414062 24.628906 6.414062 C 21.90625 6.414062 19.6875 5.671875 17.976562 4.1875 L 19.714844 2.183594 L 18.085938 4.277344 C 16.433594 2.992188 16 0.875 16.785156 -2.078125 C 16.941406 -2.636719 17.042969 -3.398438 17.09375 -4.355469 C 17.15625 -5.554688 17.230469 -6.5625 17.316406 -7.375 L 19.957031 -7.097656 L 17.304688 -7.097656 L 17.304688 -7.21875 L 19.957031 -7.21875 L 20.871094 -4.726562 C 19.890625 -4.367188 19.015625 -3.90625 18.246094 -3.34375 C 17.285156 -2.644531 16.6875 -2.207031 16.453125 -2.03125 C 15.925781 -1.636719 15.285156 -1.34375 14.535156 -1.15625 C 14.027344 -1.027344 13.558594 -0.9375 13.128906 -0.886719 L 13.035156 -0.871094 L 12.9375 -0.867188 C 12.707031 -0.855469 12.539062 -0.835938 12.425781 -0.8125 C 12.507812 -0.828125 12.621094 -0.890625 12.765625 -0.996094 L 11.222656 -3.15625 L 13.539062 -1.863281 C 12.269531 0.414062 11.046875 2.210938 9.863281 3.53125 C 8.453125 5.101562 7.027344 6.074219 5.582031 6.449219 L 4.914062 3.882812 L 5.699219 6.417969 C 4.136719 6.902344 2.566406 7.023438 0.988281 6.777344 C -1.03125 6.464844 -2.59375 5.328125 -3.703125 3.371094 L -1.394531 2.0625 L -3.210938 4 C -4.492188 2.796875 -5.011719 0.933594 -4.765625 -1.59375 C -4.582031 -3.46875 -3.96875 -5.863281 -2.921875 -8.78125 C -1.835938 -11.75 -0.292969 -15.285156 1.707031 -19.390625 C 3.707031 -23.488281 5.636719 -27.070312 7.5 -30.132812 C 11.546875 -36.769531 16.003906 -42.371094 20.871094 -46.945312 L 21.21875 -47.269531 L 21.65625 -47.457031 C 22.386719 -47.761719 23.179688 -48.121094 24.03125 -48.527344 C 25.242188 -49.105469 26.460938 -49.421875 27.6875 -49.480469 C 28.828125 -49.535156 29.992188 -49.40625 31.183594 -49.09375 C 32.449219 -48.765625 33.542969 -48.25 34.46875 -47.558594 C 35.796875 -46.554688 36.570312 -45.339844 36.789062 -43.914062 C 37 -42.5625 36.675781 -41.175781 35.816406 -39.753906 L 33.546875 -41.128906 Z M 32.304688 -38.78125 L 29.820312 -40.097656 L 31.273438 -42.5 C 31.402344 -42.714844 31.488281 -42.898438 31.527344 -43.046875 C 31.535156 -43.078125 31.539062 -43.105469 31.542969 -43.125 C 31.542969 -43.121094 31.542969 -43.113281 31.542969 -43.101562 C 31.546875 -43.085938 31.550781 -43.066406 31.558594 -43.050781 L 31.554688 -43.050781 C 31.507812 -43.125 31.417969 -43.210938 31.285156 -43.3125 C 30.917969 -43.585938 30.433594 -43.804688 29.84375 -43.957031 C 29.171875 -44.132812 28.535156 -44.207031 27.9375 -44.179688 C 27.421875 -44.15625 26.882812 -44.007812 26.316406 -43.738281 C 25.390625 -43.292969 24.523438 -42.902344 23.714844 -42.5625 L 22.6875 -45.007812 L 24.503906 -43.074219 C 19.988281 -38.832031 15.832031 -33.597656 12.035156 -27.375 C 10.257812 -24.453125 8.40625 -21.015625 6.480469 -17.066406 C 4.558594 -13.125 3.089844 -9.765625 2.074219 -6.992188 C 1.175781 -4.488281 0.660156 -2.515625 0.519531 -1.078125 C 0.464844 -0.519531 0.46875 -0.09375 0.53125 0.203125 C 0.542969 0.257812 0.554688 0.289062 0.558594 0.300781 C 0.527344 0.242188 0.484375 0.183594 0.421875 0.125 L 0.714844 0.402344 L 0.914062 0.753906 C 1.179688 1.222656 1.476562 1.480469 1.800781 1.53125 C 2.570312 1.652344 3.34375 1.589844 4.125 1.347656 L 4.183594 1.328125 L 4.242188 1.3125 C 4.660156 1.207031 5.214844 0.765625 5.910156 -0.0117188 C 6.828125 -1.039062 7.828125 -2.515625 8.902344 -4.445312 L 9.195312 -4.96875 L 9.679688 -5.3125 C 10.382812 -5.816406 11.375 -6.101562 12.660156 -6.167969 L 12.800781 -3.519531 L 12.46875 -6.152344 C 12.6875 -6.179688 12.945312 -6.230469 13.246094 -6.304688 C 13.304688 -6.320312 13.347656 -6.332031 13.375 -6.34375 C 13.347656 -6.332031 13.3125 -6.3125 13.269531 -6.277344 C 13.519531 -6.46875 14.136719 -6.917969 15.117188 -7.632812 C 16.289062 -8.488281 17.597656 -9.179688 19.042969 -9.710938 L 22.609375 -11.019531 L 22.609375 -6.957031 L 22.597656 -6.820312 C 22.519531 -6.097656 22.453125 -5.183594 22.394531 -4.078125 C 22.324219 -2.730469 22.164062 -1.609375 21.914062 -0.710938 C 21.753906 -0.113281 21.691406 0.320312 21.71875 0.597656 L 21.71875 0.605469 C 21.707031 0.570312 21.695312 0.53125 21.671875 0.488281 C 21.597656 0.335938 21.488281 0.203125 21.34375 0.0898438 L 21.398438 0.132812 L 21.453125 0.179688 C 22.167969 0.796875 23.226562 1.105469 24.628906 1.105469 C 25.765625 1.105469 26.636719 0.761719 27.242188 0.0703125 L 29.238281 1.820312 L 26.628906 1.34375 C 26.710938 0.875 26.796875 0.4375 26.882812 0.03125 C 26.960938 -0.332031 27.035156 -0.722656 27.113281 -1.140625 L 27.136719 -1.269531 L 27.535156 -2.671875 L 30.085938 -1.941406 L 27.480469 -2.433594 C 27.757812 -3.894531 28.003906 -5.359375 28.21875 -6.820312 C 28.449219 -8.359375 28.871094 -10.660156 29.488281 -13.71875 C 30.085938 -16.683594 30.703125 -20.375 31.34375 -24.796875 C 31.996094 -29.292969 32.726562 -33.820312 33.539062 -38.378906 L 36.152344 -37.914062 L 33.582031 -37.25 C 33.414062 -37.910156 32.988281 -38.417969 32.304688 -38.78125 Z M 23.070312 -24.296875 C 22.203125 -21.824219 21.335938 -19.542969 20.464844 -17.453125 C 19.625 -15.425781 18.902344 -13.648438 18.300781 -12.128906 L 15.832031 -13.101562 L 15.730469 -15.753906 L 20.523438 -15.9375 L 20.625 -13.285156 L 17.992188 -13.613281 C 18.316406 -16.230469 18.6875 -18.828125 19.09375 -21.40625 C 19.496094 -23.9375 19.878906 -26.472656 20.242188 -29.007812 L 22.867188 -28.632812 L 25.078125 -27.160156 L 22.773438 -23.703125 L 20.5625 -25.175781 Z M 18.167969 -26.367188 L 20.660156 -30.105469 L 25.496094 -28.257812 C 25.128906 -25.695312 24.742188 -23.132812 24.335938 -20.574219 C 23.9375 -18.054688 23.578125 -15.515625 23.257812 -12.957031 L 22.976562 -10.71875 L 11.871094 -10.296875 L 13.363281 -14.078125 C 13.976562 -15.628906 14.710938 -17.433594 15.566406 -19.488281 C 16.394531 -21.484375 17.226562 -23.671875 18.058594 -26.050781 Z M 18.925781 -15.695312 C 19.367188 -15.695312 19.808594 -15.726562 20.25 -15.789062 L 20.625 -13.164062 L 17.96875 -13.164062 L 17.96875 -13.222656 L 20.625 -13.222656 L 20.828125 -10.578125 C 20.316406 -10.539062 19.839844 -10.5 19.410156 -10.460938 C 19.320312 -10.453125 19.25 -10.445312 19.207031 -10.441406 C 19.273438 -10.449219 19.34375 -10.464844 19.417969 -10.480469 C 19.601562 -10.527344 19.777344 -10.59375 19.949219 -10.679688 C 20.3125 -10.859375 20.617188 -11.113281 20.863281 -11.433594 C 21.183594 -11.847656 21.363281 -12.316406 21.40625 -12.839844 C 21.457031 -13.449219 21.308594 -14.011719 20.96875 -14.523438 C 20.507812 -15.214844 19.867188 -15.605469 19.046875 -15.6875 C 18.992188 -15.691406 18.949219 -15.695312 18.90625 -15.695312 C 18.90625 -15.695312 18.914062 -15.695312 18.925781 -15.695312 Z M 18.925781 -10.386719 C 18.765625 -10.386719 18.628906 -10.394531 18.519531 -10.40625 C 17.671875 -10.488281 17.019531 -10.878906 16.554688 -11.578125 C 16.210938 -12.089844 16.066406 -12.652344 16.117188 -13.261719 C 16.15625 -13.785156 16.335938 -14.253906 16.65625 -14.671875 C 16.90625 -14.992188 17.210938 -15.246094 17.578125 -15.425781 C 17.753906 -15.515625 17.9375 -15.582031 18.128906 -15.632812 C 18.304688 -15.675781 18.570312 -15.714844 18.929688 -15.746094 C 19.386719 -15.789062 19.882812 -15.828125 20.421875 -15.871094 L 23.277344 -16.089844 L 23.277344 -10.863281 L 21 -10.535156 C 20.308594 -10.4375 19.617188 -10.386719 18.925781 -10.386719 Z M 18.925781 -10.386719 "/></g></g><g style="fill:#000000;fill-opacity:1;"><g transform="translate(80.909305, 210.374986)"><path style="stroke:none" d="M 27.082031 -26.433594 C 29.171875 -32.722656 30.921875 -37.457031 32.332031 -40.640625 C 33.078125 -42.328125 33.753906 -43.625 34.351562 -44.527344 C 34.734375 -45.097656 35.113281 -45.558594 35.492188 -45.898438 C 36.214844 -46.550781 37 -46.875 37.851562 -46.875 C 38.1875 -46.875 38.542969 -46.835938 38.917969 -46.761719 L 38.398438 -44.160156 L 38.5625 -46.808594 C 38.527344 -46.8125 38.496094 -46.8125 38.472656 -46.808594 C 38.484375 -46.808594 38.5 -46.8125 38.527344 -46.824219 C 38.671875 -46.875 38.847656 -46.976562 39.058594 -47.125 L 40.582031 -44.949219 L 38.867188 -46.976562 C 40.167969 -48.078125 41.675781 -48.925781 43.378906 -49.519531 C 45.136719 -50.128906 46.871094 -50.355469 48.585938 -50.199219 C 50.691406 -50.007812 52.449219 -49.328125 53.851562 -48.152344 C 55.261719 -46.976562 56.242188 -45.371094 56.792969 -43.335938 L 56.882812 -42.996094 L 56.882812 -42.003906 L 56.730469 -41.570312 C 56.476562 -40.867188 56.214844 -40.269531 55.945312 -39.777344 L 53.625 -41.066406 L 53.625 -43.722656 L 59.414062 -43.722656 L 55.933594 -39.402344 C 55.058594 -38.316406 54.199219 -36.871094 53.359375 -35.066406 C 52.441406 -33.082031 51.742188 -31.542969 51.265625 -30.453125 C 50.753906 -29.28125 50.039062 -27.820312 49.121094 -26.066406 C 48.25 -24.402344 47.246094 -22.355469 46.109375 -19.925781 C 44.941406 -17.425781 43.722656 -14.949219 42.453125 -12.492188 C 39.359375 -6.472656 36.261719 -1.71875 33.160156 1.765625 L 31.179688 0 L 33.230469 1.683594 C 31.191406 4.164062 28.472656 5.375 25.070312 5.324219 C 23.542969 5.265625 22.097656 4.882812 20.734375 4.175781 C 19.226562 3.390625 18.0625 2.203125 17.238281 0.613281 L 17.140625 0.429688 L 15.800781 -3.589844 L 18.320312 -4.429688 L 20.035156 -2.402344 C 19.5625 -2.003906 19.011719 -1.488281 18.375 -0.851562 C 17.671875 -0.148438 16.925781 0.574219 16.140625 1.320312 C 15.136719 2.28125 14.21875 3.027344 13.390625 3.5625 C 12.332031 4.25 11.339844 4.628906 10.410156 4.707031 C 9.289062 4.800781 8.308594 4.808594 7.46875 4.738281 C 6.523438 4.652344 5.625 4.441406 4.777344 4.101562 C 3.707031 3.691406 2.804688 3.070312 2.070312 2.238281 C 1.355469 1.421875 0.839844 0.441406 0.53125 -0.703125 L 0.472656 -0.914062 L 0.453125 -1.132812 C -0.253906 -8.246094 0.09375 -17.285156 1.492188 -28.238281 C 1.855469 -30.863281 2.175781 -33.4375 2.457031 -35.960938 L 2.46875 -36.0625 L 2.488281 -36.164062 C 3.296875 -40.390625 4.894531 -43.492188 7.28125 -45.476562 C 8.386719 -46.414062 9.53125 -47.035156 10.714844 -47.335938 C 12.035156 -47.675781 13.339844 -47.609375 14.625 -47.136719 C 15.863281 -46.699219 16.828125 -45.945312 17.519531 -44.867188 C 18.242188 -43.742188 18.496094 -42.445312 18.273438 -40.976562 L 15.648438 -41.371094 L 18.304688 -41.457031 C 18.386719 -38.871094 18.363281 -36.914062 18.230469 -35.585938 C 18.082031 -33.667969 18.023438 -32.277344 18.058594 -31.410156 C 18.105469 -30.316406 18.089844 -29.398438 18.019531 -28.648438 C 17.964844 -28.074219 17.925781 -27.539062 17.90625 -27.046875 C 17.894531 -26.6875 17.902344 -26.429688 17.929688 -26.273438 C 17.898438 -26.449219 17.835938 -26.628906 17.742188 -26.8125 C 17.492188 -27.300781 17.109375 -27.664062 16.597656 -27.90625 C 15.996094 -28.183594 15.386719 -28.222656 14.765625 -28.015625 C 14.5 -27.925781 14.269531 -27.800781 14.074219 -27.636719 L 15.773438 -25.597656 L 13.371094 -26.726562 C 14.371094 -28.859375 15.246094 -30.441406 15.992188 -31.464844 C 16.644531 -32.367188 17.339844 -33.308594 18.078125 -34.289062 L 18.234375 -34.5 L 18.433594 -34.675781 C 20.292969 -36.335938 22.113281 -36.910156 23.902344 -36.398438 L 23.171875 -33.847656 L 23.648438 -36.460938 C 24.308594 -36.339844 24.984375 -36.121094 25.671875 -35.804688 C 25.96875 -35.667969 26.421875 -35.539062 27.027344 -35.417969 L 27.699219 -35.285156 L 28.222656 -34.84375 C 29.144531 -34.0625 29.761719 -33.164062 30.078125 -32.140625 L 27.539062 -31.359375 L 29.417969 -33.238281 C 29.480469 -33.171875 29.542969 -33.117188 29.601562 -33.066406 C 30.050781 -32.695312 30.386719 -32.242188 30.617188 -31.710938 C 30.71875 -31.46875 30.855469 -31.054688 31.027344 -30.464844 L 31.480469 -28.925781 C 31.65625 -28.339844 31.808594 -27.769531 31.941406 -27.21875 L 32.179688 -26.222656 L 29.601562 -25.597656 Z M 32.121094 -24.761719 L 29.203125 -15.980469 L 26.777344 -25.980469 C 26.667969 -26.441406 26.539062 -26.921875 26.390625 -27.425781 L 25.933594 -28.980469 C 25.820312 -29.363281 25.753906 -29.574219 25.738281 -29.617188 C 25.84375 -29.371094 26 -29.160156 26.203125 -28.988281 C 26.023438 -29.140625 25.839844 -29.304688 25.664062 -29.484375 L 25.195312 -29.949219 L 25.003906 -30.582031 L 24.996094 -30.585938 C 24.953125 -30.644531 24.886719 -30.714844 24.792969 -30.792969 L 26.507812 -32.816406 L 25.988281 -30.214844 C 24.976562 -30.417969 24.132812 -30.671875 23.460938 -30.980469 C 23.179688 -31.109375 22.921875 -31.195312 22.699219 -31.238281 L 22.570312 -31.261719 L 22.441406 -31.296875 C 22.535156 -31.269531 22.625 -31.261719 22.710938 -31.265625 C 22.734375 -31.269531 22.753906 -31.269531 22.773438 -31.273438 C 22.769531 -31.273438 22.761719 -31.273438 22.75 -31.269531 C 22.554688 -31.191406 22.292969 -31.007812 21.96875 -30.714844 L 20.199219 -32.695312 L 22.324219 -31.101562 C 21.601562 -30.144531 20.921875 -29.222656 20.285156 -28.34375 C 19.734375 -27.589844 19.03125 -26.300781 18.175781 -24.472656 L 17.921875 -23.9375 L 17.46875 -23.558594 C 17.152344 -23.296875 16.8125 -23.101562 16.445312 -22.980469 C 15.726562 -22.742188 15.03125 -22.777344 14.355469 -23.09375 C 13.445312 -23.519531 12.894531 -24.269531 12.703125 -25.351562 C 12.609375 -25.878906 12.578125 -26.511719 12.605469 -27.242188 C 12.625 -27.84375 12.671875 -28.480469 12.734375 -29.160156 C 12.785156 -29.664062 12.792969 -30.339844 12.757812 -31.191406 C 12.710938 -32.265625 12.777344 -33.90625 12.949219 -36.113281 C 13.058594 -37.210938 13.074219 -38.933594 12.996094 -41.28125 L 12.988281 -41.523438 L 13.027344 -41.765625 C 13.042969 -41.882812 13.046875 -41.972656 13.035156 -42.03125 C 13.039062 -42.023438 13.042969 -42.011719 13.054688 -41.996094 C 13.019531 -42.054688 12.929688 -42.105469 12.792969 -42.15625 C 12.539062 -42.246094 12.289062 -42.261719 12.03125 -42.195312 C 11.640625 -42.09375 11.1875 -41.828125 10.671875 -41.390625 C 9.261719 -40.21875 8.269531 -38.144531 7.703125 -35.171875 L 5.09375 -35.667969 L 7.734375 -35.375 C 7.449219 -32.804688 7.121094 -30.199219 6.757812 -27.566406 C 5.40625 -17.007812 5.066406 -8.371094 5.734375 -1.65625 L 3.09375 -1.394531 L 5.65625 -2.085938 C 5.75 -1.738281 5.882812 -1.464844 6.054688 -1.269531 C 6.214844 -1.089844 6.445312 -0.941406 6.75 -0.828125 C 7.113281 -0.679688 7.507812 -0.589844 7.9375 -0.550781 C 8.472656 -0.503906 9.152344 -0.515625 9.96875 -0.582031 C 9.9375 -0.578125 9.914062 -0.574219 9.894531 -0.570312 C 9.914062 -0.578125 9.941406 -0.585938 9.980469 -0.601562 C 10.125 -0.660156 10.300781 -0.757812 10.507812 -0.894531 C 11.054688 -1.246094 11.714844 -1.792969 12.492188 -2.535156 C 13.242188 -3.246094 13.953125 -3.9375 14.621094 -4.605469 C 15.363281 -5.347656 16.023438 -5.960938 16.605469 -6.453125 L 19.597656 -8.984375 L 22.109375 -1.445312 L 19.59375 -0.605469 L 21.949219 -1.828125 C 22.257812 -1.234375 22.667969 -0.800781 23.183594 -0.535156 C 23.839844 -0.191406 24.5 -0.0078125 25.15625 0.015625 C 26.851562 0.0429688 28.175781 -0.523438 29.128906 -1.683594 L 29.164062 -1.726562 L 29.195312 -1.765625 C 32 -4.914062 34.847656 -9.300781 37.738281 -14.925781 C 38.976562 -17.324219 40.164062 -19.738281 41.300781 -22.171875 C 42.46875 -24.675781 43.507812 -26.792969 44.417969 -28.527344 C 45.277344 -30.171875 45.9375 -31.519531 46.398438 -32.574219 C 46.890625 -33.707031 47.609375 -35.28125 48.546875 -37.300781 C 49.570312 -39.5 50.652344 -41.3125 51.800781 -42.734375 L 53.867188 -41.066406 L 53.867188 -38.414062 L 49.113281 -38.414062 L 51.304688 -42.355469 C 51.433594 -42.59375 51.578125 -42.925781 51.730469 -43.355469 L 54.230469 -42.460938 L 51.574219 -42.460938 L 51.574219 -42.644531 L 54.230469 -42.644531 L 51.667969 -41.953125 C 51.410156 -42.910156 51.003906 -43.617188 50.453125 -44.078125 C 49.894531 -44.542969 49.113281 -44.824219 48.105469 -44.914062 C 47.152344 -45 46.15625 -44.863281 45.125 -44.503906 C 44.039062 -44.128906 43.097656 -43.601562 42.296875 -42.921875 L 42.203125 -42.84375 L 42.101562 -42.773438 C 40.789062 -41.855469 39.496094 -41.433594 38.230469 -41.511719 L 38.054688 -41.523438 L 37.878906 -41.558594 C 37.851562 -41.5625 37.832031 -41.566406 37.816406 -41.566406 C 37.824219 -41.566406 37.835938 -41.566406 37.851562 -41.566406 C 38.183594 -41.566406 38.488281 -41.636719 38.769531 -41.777344 C 38.886719 -41.835938 38.980469 -41.898438 39.050781 -41.960938 C 39 -41.914062 38.90625 -41.792969 38.773438 -41.589844 C 38.339844 -40.9375 37.8125 -39.90625 37.183594 -38.492188 C 35.84375 -35.464844 34.15625 -30.886719 32.121094 -24.761719 Z M 33.710938 -0.183594 C 33.710938 -0.875 33.457031 -1.476562 32.941406 -1.992188 C 32.503906 -2.429688 31.976562 -2.683594 31.359375 -2.75 C 30.769531 -2.816406 30.214844 -2.695312 29.703125 -2.390625 C 29.328125 -2.164062 29.023438 -1.859375 28.800781 -1.484375 C 28.703125 -1.324219 28.625 -1.160156 28.570312 -0.992188 C 28.5 -0.777344 28.464844 -0.570312 28.464844 -0.363281 L 31.117188 -0.363281 L 33.636719 0.476562 L 33.574219 0.65625 L 31.058594 -0.183594 Z M 28.402344 -0.613281 L 28.601562 -1.203125 L 33.773438 -0.363281 C 33.773438 0.00390625 33.71875 0.355469 33.605469 0.6875 C 33.539062 0.886719 33.453125 1.074219 33.351562 1.246094 C 33.121094 1.628906 32.816406 1.933594 32.433594 2.164062 C 31.921875 2.46875 31.367188 2.589844 30.773438 2.523438 C 30.15625 2.457031 29.628906 2.203125 29.1875 1.761719 C 28.664062 1.238281 28.402344 0.589844 28.402344 -0.183594 Z M 28.402344 -0.613281 "/></g></g><g style="fill:#000000;fill-opacity:1;"><g transform="translate(127.796536, 210.374986)"><path style="stroke:none" d="M 13.980469 -10.28125 C 16.238281 -10.050781 17.894531 -9.933594 18.957031 -9.933594 C 19.988281 -9.933594 21.617188 -10.085938 23.839844 -10.394531 L 24.453125 -10.476562 L 25.042969 -10.28125 C 26.609375 -9.761719 27.59375 -8.898438 27.996094 -7.695312 C 28.238281 -6.964844 28.320312 -6.21875 28.238281 -5.453125 C 28.226562 -5.359375 28.230469 -5.269531 28.25 -5.1875 C 28.152344 -5.617188 27.953125 -5.953125 27.652344 -6.191406 C 27.609375 -6.226562 27.578125 -6.246094 27.558594 -6.257812 C 27.585938 -6.242188 27.632812 -6.226562 27.695312 -6.203125 C 28.152344 -6.050781 28.558594 -5.796875 28.914062 -5.441406 C 29.28125 -5.074219 29.542969 -4.640625 29.699219 -4.140625 C 29.902344 -3.496094 29.910156 -2.785156 29.726562 -2.015625 C 29.496094 -1.066406 29.003906 -0.101562 28.253906 0.882812 C 26.609375 3.027344 24.640625 4.527344 22.351562 5.394531 L 22.207031 5.449219 L 22.058594 5.488281 C 18.996094 6.25 16.5625 6.699219 14.753906 6.832031 C 11.828125 7.046875 8.660156 6.941406 5.25 6.515625 L 5.179688 6.507812 L 5.105469 6.492188 C 2.855469 6.085938 1.117188 5.355469 -0.105469 4.304688 C -0.851562 3.664062 -1.40625 2.914062 -1.765625 2.058594 C -2.125 1.210938 -2.277344 0.296875 -2.226562 -0.683594 L 0.425781 -0.546875 L -2.230469 -0.546875 C -2.230469 -9.40625 -0.296875 -18.289062 3.570312 -27.199219 C 4.804688 -30.035156 6.199219 -33.011719 7.757812 -36.128906 C 7.925781 -36.460938 8.023438 -36.859375 8.058594 -37.324219 C 8.121094 -38.113281 8.167969 -38.878906 8.207031 -39.628906 C 8.261719 -40.636719 8.425781 -41.558594 8.703125 -42.390625 C 9.171875 -43.796875 10.125 -44.773438 11.5625 -45.3125 C 20.390625 -48.832031 27.492188 -50.171875 32.863281 -49.328125 L 32.453125 -46.707031 L 32.515625 -49.363281 C 33.769531 -49.332031 34.859375 -49.078125 35.78125 -48.605469 C 36.863281 -48.050781 37.671875 -47.230469 38.203125 -46.148438 C 39.058594 -44.40625 39.167969 -42.511719 38.539062 -40.464844 C 37.980469 -38.664062 36.925781 -37 35.375 -35.472656 C 33.734375 -33.859375 31.699219 -32.867188 29.273438 -32.5 L 28.875 -35.121094 L 29.609375 -32.570312 C 27.351562 -31.921875 26.023438 -31.503906 25.617188 -31.316406 C 25.144531 -31.089844 24.820312 -30.820312 24.648438 -30.507812 L 24.609375 -30.433594 L 24.5625 -30.359375 C 24.007812 -29.492188 23.496094 -28.660156 23.019531 -27.871094 C 22.6875 -27.3125 22.449219 -26.710938 22.308594 -26.066406 L 19.714844 -26.628906 L 22.324219 -26.15625 L 22.082031 -24.820312 L 19.472656 -25.296875 L 20.609375 -27.695312 C 20.910156 -27.550781 21.359375 -27.519531 21.957031 -27.59375 C 23.050781 -27.734375 24.0625 -27.871094 24.996094 -28.011719 C 26.257812 -28.199219 27.335938 -28.199219 28.230469 -28.015625 C 28.902344 -27.875 29.46875 -27.570312 29.933594 -27.101562 C 30.390625 -26.636719 30.6875 -26.070312 30.824219 -25.40625 C 30.976562 -24.65625 30.894531 -23.792969 30.582031 -22.816406 C 30.160156 -21.5 29.421875 -20.070312 28.367188 -18.523438 C 27.136719 -16.71875 25.425781 -15.414062 23.234375 -14.613281 L 23.035156 -14.539062 L 22.824219 -14.5 C 21.832031 -14.308594 21.171875 -14.171875 20.84375 -14.085938 C 20.410156 -13.96875 20.066406 -13.886719 19.808594 -13.835938 L 19.738281 -13.820312 L 19.664062 -13.8125 C 19.3125 -13.761719 18.429688 -13.691406 17.023438 -13.609375 L 16.863281 -16.257812 L 19.152344 -14.914062 C 17.390625 -11.914062 16.335938 -9.660156 15.992188 -8.148438 C 15.988281 -8.125 15.984375 -8.101562 15.980469 -8.082031 C 15.980469 -8.085938 15.984375 -8.09375 15.984375 -8.109375 C 15.992188 -8.265625 15.96875 -8.4375 15.917969 -8.625 C 15.785156 -9.097656 15.523438 -9.488281 15.121094 -9.800781 C 14.699219 -10.132812 14.226562 -10.296875 13.710938 -10.296875 L 13.847656 -10.296875 Z M 13.4375 -5.003906 L 13.710938 -7.644531 L 13.710938 -4.988281 C 13.007812 -4.988281 12.386719 -5.199219 11.851562 -5.621094 C 11.332031 -6.027344 10.984375 -6.554688 10.804688 -7.207031 C 10.632812 -7.8125 10.640625 -8.519531 10.816406 -9.324219 C 11.28125 -11.371094 12.535156 -14.128906 14.574219 -17.601562 L 15.292969 -18.820312 L 16.703125 -18.90625 C 17.964844 -18.984375 18.703125 -19.035156 18.914062 -19.066406 L 19.289062 -16.4375 L 18.769531 -19.042969 C 18.917969 -19.070312 19.160156 -19.128906 19.492188 -19.21875 C 19.9375 -19.335938 20.710938 -19.5 21.820312 -19.710938 L 22.324219 -17.105469 L 21.410156 -19.597656 C 22.535156 -20.011719 23.390625 -20.648438 23.980469 -21.511719 C 24.746094 -22.636719 25.261719 -23.609375 25.527344 -24.4375 C 25.566406 -24.554688 25.589844 -24.640625 25.59375 -24.691406 C 25.582031 -24.605469 25.59375 -24.492188 25.621094 -24.347656 C 25.695312 -23.984375 25.875 -23.65625 26.152344 -23.375 C 26.441406 -23.082031 26.773438 -22.894531 27.152344 -22.816406 C 26.875 -22.875 26.417969 -22.855469 25.777344 -22.761719 C 24.808594 -22.617188 23.757812 -22.472656 22.628906 -22.328125 C 21.003906 -22.121094 19.570312 -22.3125 18.335938 -22.898438 L 16.496094 -23.769531 L 17.113281 -27.148438 L 17.121094 -27.195312 C 17.386719 -28.410156 17.835938 -29.546875 18.46875 -30.605469 C 18.96875 -31.433594 19.503906 -32.300781 20.082031 -33.210938 L 22.324219 -31.785156 L 19.996094 -33.066406 C 20.714844 -34.371094 21.847656 -35.394531 23.394531 -36.136719 C 24.042969 -36.4375 25.625 -36.949219 28.140625 -37.671875 L 28.304688 -37.71875 L 28.476562 -37.746094 C 29.769531 -37.941406 30.828125 -38.445312 31.652344 -39.257812 C 32.570312 -40.160156 33.171875 -41.082031 33.464844 -42.03125 C 33.683594 -42.734375 33.671875 -43.328125 33.4375 -43.808594 C 33.421875 -43.839844 33.394531 -43.863281 33.355469 -43.886719 C 33.15625 -43.988281 32.832031 -44.042969 32.390625 -44.054688 L 32.214844 -44.058594 L 32.042969 -44.085938 C 27.628906 -44.78125 21.421875 -43.53125 13.429688 -40.339844 C 13.464844 -40.355469 13.511719 -40.390625 13.570312 -40.449219 C 13.652344 -40.53125 13.707031 -40.621094 13.738281 -40.710938 C 13.613281 -40.332031 13.535156 -39.878906 13.507812 -39.351562 C 13.46875 -38.5625 13.414062 -37.753906 13.351562 -36.925781 C 13.265625 -35.769531 12.984375 -34.710938 12.503906 -33.753906 C 10.988281 -30.722656 9.632812 -27.832031 8.441406 -25.089844 C 4.867188 -16.851562 3.078125 -8.671875 3.078125 -0.546875 L 3.078125 -0.476562 L 3.074219 -0.40625 C 3.066406 -0.238281 3.082031 -0.101562 3.125 -0.00390625 C 3.160156 0.0859375 3.238281 0.179688 3.351562 0.277344 C 3.847656 0.703125 4.75 1.035156 6.054688 1.269531 L 5.582031 3.882812 L 5.910156 1.25 C 8.972656 1.632812 11.789062 1.726562 14.363281 1.539062 C 15.871094 1.429688 18.003906 1.027344 20.769531 0.335938 L 21.414062 2.910156 L 20.476562 0.429688 C 21.824219 -0.0820312 23.011719 -1.003906 24.035156 -2.339844 C 24.335938 -2.730469 24.511719 -3.039062 24.566406 -3.261719 C 24.519531 -3.078125 24.542969 -2.839844 24.636719 -2.546875 C 24.738281 -2.222656 24.914062 -1.9375 25.160156 -1.6875 C 25.398438 -1.453125 25.652344 -1.289062 25.929688 -1.199219 C 24.316406 -1.765625 23.363281 -2.710938 23.070312 -4.035156 C 22.925781 -4.679688 22.886719 -5.339844 22.960938 -6.011719 C 22.960938 -6.011719 22.960938 -6.015625 22.960938 -6.015625 C 23.082031 -5.652344 23.269531 -5.378906 23.523438 -5.195312 C 23.542969 -5.183594 23.558594 -5.171875 23.570312 -5.164062 C 23.570312 -5.167969 23.5625 -5.167969 23.554688 -5.171875 C 23.507812 -5.195312 23.445312 -5.21875 23.363281 -5.246094 L 24.203125 -7.765625 L 24.566406 -5.136719 C 22.101562 -4.796875 20.230469 -4.625 18.957031 -4.625 C 17.710938 -4.625 15.871094 -4.75 13.4375 -5.003906 Z M 13.4375 -5.003906 "/></g></g><g style="fill:#000000;fill-opacity:1;"><g transform="translate(159.580382, 210.374986)"><path style="stroke:none" d="M 10.171875 6.171875 C 7.78125 6.265625 5.570312 5.964844 3.539062 5.273438 C 1.457031 4.5625 -0.257812 3.570312 -1.609375 2.292969 C -3.085938 0.902344 -4.019531 -0.742188 -4.417969 -2.640625 C -4.832031 -4.632812 -4.503906 -6.621094 -3.425781 -8.605469 L -3.347656 -8.738281 C -2.441406 -10.203125 -1.105469 -11.152344 0.652344 -11.574219 C 2.097656 -11.921875 3.808594 -11.878906 5.78125 -11.449219 C 8.007812 -10.996094 9.507812 -10.753906 10.277344 -10.71875 C 10.777344 -10.695312 11.160156 -10.746094 11.433594 -10.863281 L 11.546875 -10.914062 L 11.667969 -10.953125 C 12.933594 -11.371094 13.890625 -11.78125 14.53125 -12.191406 C 14.753906 -12.328125 14.910156 -12.449219 15.007812 -12.554688 L 15.015625 -12.5625 C 14.988281 -12.515625 14.964844 -12.460938 14.945312 -12.398438 L 17.46875 -11.585938 L 14.917969 -12.316406 C 14.871094 -12.15625 14.863281 -12 14.886719 -11.847656 C 14.894531 -11.78125 14.90625 -11.738281 14.914062 -11.722656 C 14.804688 -11.929688 14.546875 -12.210938 14.144531 -12.5625 L 14.117188 -12.585938 L 14.09375 -12.609375 C 13.632812 -13.03125 13.117188 -13.460938 12.542969 -13.890625 C 11.761719 -14.476562 11.09375 -15.070312 10.539062 -15.675781 L 12.496094 -17.46875 L 10.917969 -15.335938 C 8.605469 -17.046875 6.78125 -19.039062 5.445312 -21.3125 C 4.007812 -23.761719 3.414062 -26.417969 3.664062 -29.289062 C 3.886719 -31.832031 4.324219 -33.976562 4.976562 -35.714844 C 5.625 -37.457031 6.445312 -39.011719 7.433594 -40.378906 C 9.167969 -42.769531 11.402344 -44.703125 14.140625 -46.191406 C 17.113281 -47.71875 19.527344 -48.710938 21.390625 -49.164062 C 25.050781 -49.980469 28.734375 -50.050781 32.441406 -49.378906 C 33.953125 -49.109375 35.273438 -48.582031 36.402344 -47.789062 C 37.234375 -47.207031 38.066406 -46.605469 38.898438 -45.980469 L 39.050781 -45.867188 L 39.183594 -45.734375 C 40.242188 -44.671875 40.917969 -43.539062 41.207031 -42.335938 C 41.527344 -40.992188 41.363281 -39.667969 40.710938 -38.363281 L 38.335938 -39.550781 L 40.769531 -38.488281 C 40.277344 -37.363281 39.511719 -36.457031 38.476562 -35.765625 C 37.46875 -35.09375 36.382812 -34.726562 35.21875 -34.65625 L 35.0625 -37.304688 L 37.707031 -37.5 C 37.847656 -35.644531 37.410156 -34.167969 36.40625 -33.078125 L 36.332031 -33.003906 C 34.96875 -31.640625 32.835938 -30.78125 29.925781 -30.425781 L 29.667969 -30.394531 L 29.410156 -30.414062 C 27.886719 -30.523438 26.632812 -30.539062 25.644531 -30.460938 C 24.878906 -30.398438 24.359375 -30.296875 24.089844 -30.15625 C 24.050781 -30.136719 24.019531 -30.078125 23.984375 -29.976562 C 23.859375 -29.578125 23.855469 -28.980469 23.976562 -28.175781 C 23.960938 -28.269531 23.945312 -28.332031 23.929688 -28.363281 C 23.976562 -28.28125 24.066406 -28.179688 24.195312 -28.054688 C 24.730469 -27.539062 25.367188 -26.976562 26.097656 -26.375 C 26.929688 -25.695312 27.800781 -24.929688 28.710938 -24.085938 C 29.753906 -23.113281 30.664062 -21.996094 31.4375 -20.742188 C 32.851562 -18.414062 33.503906 -15.898438 33.390625 -13.1875 C 33.285156 -10.617188 32.480469 -7.910156 30.976562 -5.070312 C 28.738281 -0.773438 24.964844 2.425781 19.660156 4.53125 C 16.921875 5.625 13.726562 6.171875 10.070312 6.171875 L 10.070312 3.519531 Z M 9.964844 0.867188 L 10.015625 0.863281 L 10.070312 0.863281 C 13.042969 0.863281 15.589844 0.441406 17.703125 -0.40625 C 21.785156 -2.023438 24.644531 -4.402344 26.285156 -7.546875 C 27.414062 -9.683594 28.011719 -11.636719 28.085938 -13.410156 C 28.15625 -15.046875 27.765625 -16.566406 26.917969 -17.960938 C 26.394531 -18.804688 25.789062 -19.550781 25.09375 -20.199219 C 24.265625 -20.96875 23.476562 -21.660156 22.730469 -22.273438 C 21.886719 -22.964844 21.148438 -23.621094 20.511719 -24.234375 C 19.496094 -25.214844 18.898438 -26.265625 18.726562 -27.386719 C 18.484375 -29.011719 18.550781 -30.414062 18.929688 -31.59375 C 19.402344 -33.070312 20.308594 -34.160156 21.648438 -34.871094 C 23.265625 -35.707031 25.980469 -35.984375 29.796875 -35.707031 L 29.601562 -33.058594 L 29.277344 -35.695312 C 30.222656 -35.808594 31 -35.984375 31.613281 -36.210938 C 32.0625 -36.378906 32.382812 -36.5625 32.578125 -36.757812 L 34.453125 -34.878906 L 32.503906 -36.679688 C 32.441406 -36.609375 32.40625 -36.558594 32.394531 -36.523438 C 32.429688 -36.652344 32.433594 -36.847656 32.414062 -37.109375 L 32.214844 -39.796875 L 34.90625 -39.957031 C 35.113281 -39.96875 35.324219 -40.042969 35.53125 -40.179688 C 35.707031 -40.296875 35.832031 -40.441406 35.90625 -40.613281 L 35.933594 -40.675781 L 35.964844 -40.738281 C 36.039062 -40.886719 36.066406 -41.011719 36.042969 -41.101562 C 35.988281 -41.332031 35.785156 -41.625 35.429688 -41.980469 L 37.304688 -43.855469 L 35.714844 -41.734375 C 34.929688 -42.324219 34.140625 -42.894531 33.359375 -43.441406 C 32.867188 -43.785156 32.246094 -44.023438 31.496094 -44.15625 C 28.488281 -44.699219 25.539062 -44.652344 22.648438 -44.007812 C 21.195312 -43.652344 19.203125 -42.824219 16.671875 -41.523438 C 14.640625 -40.421875 12.992188 -39.003906 11.734375 -37.265625 C 11.023438 -36.289062 10.429688 -35.152344 9.949219 -33.859375 C 9.464844 -32.570312 9.132812 -30.890625 8.953125 -28.824219 C 8.800781 -27.082031 9.15625 -25.476562 10.023438 -24 C 10.992188 -22.351562 12.34375 -20.886719 14.074219 -19.601562 L 14.28125 -19.453125 L 14.453125 -19.261719 C 14.785156 -18.898438 15.210938 -18.523438 15.726562 -18.136719 C 16.445312 -17.597656 17.101562 -17.054688 17.691406 -16.507812 L 15.894531 -14.558594 L 17.640625 -16.554688 C 19.777344 -14.683594 20.574219 -12.785156 20.023438 -10.855469 L 20.011719 -10.816406 L 19.996094 -10.773438 C 19.617188 -9.597656 18.746094 -8.574219 17.375 -7.707031 C 16.359375 -7.0625 15.011719 -6.464844 13.324219 -5.910156 L 12.496094 -8.433594 L 13.558594 -6 C 12.535156 -5.550781 11.363281 -5.359375 10.042969 -5.417969 C 8.996094 -5.464844 7.199219 -5.746094 4.652344 -6.261719 C 3.46875 -6.519531 2.550781 -6.570312 1.894531 -6.414062 C 1.550781 -6.328125 1.308594 -6.171875 1.164062 -5.941406 L -1.09375 -7.339844 L 1.242188 -6.074219 C 0.78125 -5.230469 0.628906 -4.445312 0.777344 -3.726562 C 0.949219 -2.917969 1.367188 -2.195312 2.035156 -1.566406 C 2.824219 -0.820312 3.898438 -0.214844 5.253906 0.25 C 6.660156 0.726562 8.230469 0.933594 9.964844 0.867188 Z M 9.964844 0.867188 "/></g></g><g style="fill:#000000;fill-opacity:1;"><g transform="translate(193.062599, 210.374986)"><path style="stroke:none" d="M 10.316406 -41.90625 C 13.238281 -45.246094 16.535156 -47.34375 20.203125 -48.199219 C 22.847656 -48.847656 25.371094 -48.738281 27.773438 -47.871094 L 26.871094 -45.375 L 24.945312 -47.199219 C 26.023438 -48.335938 27.277344 -49.113281 28.707031 -49.527344 C 30.082031 -49.929688 31.574219 -49.980469 33.183594 -49.679688 C 36.046875 -49.152344 38.453125 -47.578125 40.40625 -44.957031 L 40.695312 -44.566406 L 40.828125 -44.101562 C 40.871094 -43.953125 40.996094 -43.65625 41.199219 -43.214844 C 41.496094 -42.574219 41.78125 -41.867188 42.054688 -41.101562 L 39.550781 -40.21875 L 41.988281 -41.269531 C 43.992188 -36.617188 44.1875 -30.65625 42.566406 -23.382812 C 40.613281 -14.640625 37.140625 -7.21875 32.140625 -1.109375 C 30.507812 0.886719 28.664062 2.542969 26.613281 3.867188 L 25.175781 1.636719 L 26.785156 3.746094 C 23.351562 6.371094 19.28125 7.542969 14.582031 7.257812 C 11.605469 7.117188 9.066406 6.339844 6.960938 4.9375 L 8.433594 2.730469 L 7.25 5.105469 C 3.199219 3.09375 0.511719 -0.0195312 -0.816406 -4.238281 C -2.0625 -8.1875 -2.046875 -13.050781 -0.773438 -18.832031 C 1.265625 -28.003906 4.957031 -35.6875 10.304688 -41.890625 Z M 14.324219 -38.425781 C 9.558594 -32.898438 6.253906 -25.984375 4.410156 -17.6875 C 3.339844 -12.832031 3.285156 -8.878906 4.246094 -5.832031 C 5.121094 -3.050781 6.910156 -0.988281 9.613281 0.351562 L 9.765625 0.429688 L 9.902344 0.519531 C 11.195312 1.382812 12.859375 1.863281 14.898438 1.960938 C 18.285156 2.164062 21.175781 1.351562 23.5625 -0.472656 L 23.648438 -0.535156 L 23.734375 -0.59375 C 25.320312 -1.613281 26.753906 -2.90625 28.035156 -4.472656 C 32.5 -9.929688 35.617188 -16.617188 37.382812 -24.539062 C 38.757812 -30.691406 38.664062 -35.566406 37.113281 -39.167969 L 37.078125 -39.25 L 37.046875 -39.335938 C 36.832031 -39.941406 36.613281 -40.492188 36.386719 -40.980469 C 36.0625 -41.671875 35.84375 -42.226562 35.726562 -42.644531 L 38.277344 -43.371094 L 36.148438 -41.785156 C 35.027344 -43.292969 33.714844 -44.183594 32.210938 -44.464844 C 31.429688 -44.609375 30.757812 -44.597656 30.195312 -44.433594 C 29.683594 -44.285156 29.214844 -43.988281 28.796875 -43.546875 L 27.601562 -42.289062 L 25.96875 -42.878906 C 24.574219 -43.382812 23.050781 -43.433594 21.410156 -43.03125 C 18.851562 -42.433594 16.484375 -40.894531 14.3125 -38.410156 Z M 15.660156 -7.511719 L 15.597656 -7.144531 L 12.980469 -7.582031 L 15.59375 -8.058594 L 15.714844 -7.390625 C 15.863281 -6.609375 16.074219 -6.066406 16.339844 -5.75 C 16.542969 -5.511719 16.714844 -5.328125 16.855469 -5.203125 C 16.890625 -5.171875 16.917969 -5.148438 16.933594 -5.136719 C 16.898438 -5.160156 16.851562 -5.1875 16.789062 -5.214844 L 15.710938 -2.789062 L 14.054688 -4.863281 C 14.5 -5.222656 14.953125 -5.558594 15.402344 -5.875 C 15.597656 -6.011719 15.777344 -6.183594 15.945312 -6.390625 C 18.46875 -9.511719 20.453125 -13.644531 21.890625 -18.789062 C 23.339844 -23.980469 23.878906 -28.761719 23.5 -33.136719 L 26.144531 -33.363281 L 28.238281 -31.730469 C 26.703125 -29.761719 25.085938 -27.492188 23.382812 -24.921875 C 21.6875 -22.359375 20.351562 -20.179688 19.378906 -18.386719 C 17.242188 -14.378906 16.007812 -10.804688 15.679688 -7.671875 L 15.671875 -7.589844 Z M 10.425781 -8.382812 L 13.042969 -7.945312 L 10.402344 -8.222656 C 10.800781 -12.042969 12.238281 -16.277344 14.714844 -20.921875 C 15.761719 -22.847656 17.175781 -25.160156 18.957031 -27.851562 C 20.734375 -30.539062 22.433594 -32.917969 24.050781 -34.996094 L 28.207031 -40.324219 L 28.789062 -33.589844 C 29.21875 -28.582031 28.625 -23.171875 27.003906 -17.363281 C 25.367188 -11.511719 23.0625 -6.746094 20.089844 -3.074219 C 19.605469 -2.472656 19.058594 -1.953125 18.445312 -1.527344 C 18.089844 -1.277344 17.730469 -1.007812 17.367188 -0.71875 L 16.109375 0.289062 L 14.632812 -0.363281 C 13.898438 -0.691406 13.121094 -1.339844 12.292969 -2.316406 C 11.425781 -3.335938 10.824219 -4.710938 10.492188 -6.441406 L 10.289062 -7.5625 Z M 10.425781 -8.382812 "/></g></g><g style="fill:#000000;fill-opacity:1;"><g transform="translate(231.821905, 210.374986)"><path style="stroke:none" d="M 26.328125 -45.203125 C 26.808594 -43.910156 27.078125 -42.972656 27.144531 -42.390625 C 27.234375 -41.53125 27.117188 -40.726562 26.785156 -39.972656 C 26.472656 -39.257812 25.988281 -38.628906 25.332031 -38.097656 L 23.65625 -40.15625 L 26.3125 -40.15625 C 26.3125 -39.382812 26.011719 -38.699219 25.414062 -38.097656 L 23.535156 -39.976562 L 26.144531 -40.472656 C 26.558594 -38.300781 26.648438 -36.25 26.414062 -34.316406 C 26.203125 -32.582031 25.925781 -30.910156 25.585938 -29.296875 L 22.988281 -29.84375 L 20.703125 -31.1875 C 22.933594 -34.992188 24.726562 -37.800781 26.078125 -39.617188 C 28.929688 -43.460938 31.632812 -46.238281 34.195312 -47.945312 L 34.265625 -47.992188 L 34.339844 -48.035156 C 35.359375 -48.625 36.570312 -49.0625 37.96875 -49.339844 C 39.390625 -49.625 40.765625 -49.664062 42.09375 -49.449219 C 43.65625 -49.199219 44.96875 -48.558594 46.039062 -47.523438 C 47.289062 -46.308594 47.851562 -44.644531 47.71875 -42.539062 L 47.710938 -42.433594 L 47.699219 -42.328125 C 46.558594 -34.402344 45.339844 -27.011719 44.039062 -20.160156 C 42.722656 -13.230469 41.015625 -6.613281 38.914062 -0.3125 L 36.394531 -1.152344 L 39.050781 -1.152344 L 39.050781 1.621094 L 36.335938 1.621094 L 36.335938 -1.03125 L 38.851562 -0.191406 C 38.082031 2.121094 36.292969 3.71875 33.488281 4.59375 C 31.035156 5.324219 28.800781 5.363281 26.78125 4.707031 L 27.601562 2.183594 L 26.863281 4.734375 C 25.445312 4.324219 24.355469 3.675781 23.59375 2.785156 C 22.679688 1.714844 22.308594 0.441406 22.476562 -1.027344 L 25.113281 -0.726562 L 22.460938 -0.84375 L 22.523438 -2.238281 L 25.175781 -2.125 L 22.519531 -2.125 L 22.519531 -2.464844 L 22.554688 -2.679688 C 22.703125 -3.558594 22.78125 -4.121094 22.796875 -4.371094 C 22.828125 -4.878906 22.882812 -5.296875 22.964844 -5.617188 L 25.539062 -4.972656 L 22.890625 -5.175781 C 22.988281 -6.410156 23.191406 -7.570312 23.503906 -8.652344 C 23.75 -9.503906 23.925781 -10.179688 24.035156 -10.6875 C 24.160156 -11.273438 24.285156 -11.832031 24.414062 -12.355469 C 24.515625 -12.78125 24.582031 -13.09375 24.609375 -13.296875 L 27.238281 -12.921875 L 29.378906 -11.355469 C 27.664062 -9.007812 26.359375 -7.527344 25.464844 -6.910156 C 23.371094 -5.445312 20.957031 -4.765625 18.21875 -4.871094 L 18.160156 -4.871094 C 15.6875 -5.023438 14.148438 -5.890625 13.539062 -7.480469 L 13.527344 -7.507812 L 13.515625 -7.539062 C 13.328125 -8.058594 13.175781 -8.457031 13.054688 -8.746094 C 13.007812 -8.851562 12.972656 -8.933594 12.945312 -8.984375 C 12.972656 -8.933594 13.019531 -8.863281 13.09375 -8.777344 L 13.066406 -8.808594 L 13.042969 -8.839844 C 12.5625 -9.476562 12.203125 -10.371094 11.960938 -11.523438 L 14.558594 -12.070312 L 17.148438 -11.484375 C 16.046875 -6.613281 14.933594 -3.101562 13.820312 -0.957031 C 13.367188 -0.101562 12.914062 0.667969 12.460938 1.351562 L 10.25 -0.121094 L 12.695312 0.914062 C 11.789062 3.050781 9.902344 4.492188 7.039062 5.238281 C 4.628906 5.902344 2.296875 5.84375 0.0351562 5.054688 L 0.910156 2.546875 L 0.105469 5.078125 C -1.273438 4.636719 -2.339844 3.96875 -3.09375 3.070312 C -3.96875 2.03125 -4.367188 0.796875 -4.289062 -0.632812 C -4.199219 -2.238281 -3.882812 -4.21875 -3.34375 -6.566406 C -2.832031 -8.8125 -2.222656 -11.1875 -1.523438 -13.695312 C 0.554688 -21.558594 2.042969 -26.703125 2.941406 -29.128906 C 3.832031 -31.535156 4.59375 -33.433594 5.226562 -34.824219 C 6.78125 -38.148438 8.1875 -40.597656 9.453125 -42.179688 L 11.527344 -40.519531 L 9.144531 -41.691406 C 9.960938 -43.351562 11.0625 -44.695312 12.453125 -45.71875 C 13.824219 -46.734375 15.441406 -47.40625 17.300781 -47.742188 C 20.238281 -48.308594 22.859375 -47.921875 25.171875 -46.574219 L 25.996094 -46.097656 Z M 21.351562 -43.359375 L 23.839844 -44.28125 L 22.503906 -41.988281 C 21.339844 -42.664062 19.917969 -42.84375 18.246094 -42.519531 C 17.195312 -42.328125 16.3125 -41.972656 15.601562 -41.449219 C 14.910156 -40.9375 14.34375 -40.238281 13.90625 -39.347656 L 13.777344 -39.089844 L 13.597656 -38.863281 C 12.597656 -37.613281 11.417969 -35.535156 10.058594 -32.628906 C 9.480469 -31.351562 8.765625 -29.570312 7.917969 -27.285156 C 7.078125 -25.019531 5.632812 -20.015625 3.585938 -12.269531 C 2.910156 -9.839844 2.324219 -7.546875 1.828125 -5.382812 C 1.355469 -3.324219 1.085938 -1.644531 1.011719 -0.339844 C 1.011719 -0.304688 1.011719 -0.277344 1.011719 -0.257812 L 1.011719 -0.265625 C 1 -0.296875 0.988281 -0.324219 0.96875 -0.34375 C 1.066406 -0.230469 1.3125 -0.109375 1.714844 0.0195312 L 1.785156 0.0429688 C 3 0.464844 4.308594 0.484375 5.703125 0.101562 C 6.878906 -0.207031 7.582031 -0.625 7.808594 -1.15625 L 7.90625 -1.386719 L 8.042969 -1.59375 C 8.398438 -2.125 8.753906 -2.730469 9.109375 -3.410156 C 10.015625 -5.148438 10.96875 -8.230469 11.96875 -12.65625 L 17.15625 -12.617188 C 17.210938 -12.363281 17.265625 -12.15625 17.320312 -12.007812 C 17.335938 -11.96875 17.34375 -11.941406 17.351562 -11.925781 C 17.339844 -11.953125 17.316406 -11.984375 17.289062 -12.027344 L 15.164062 -10.433594 L 17.238281 -12.089844 C 17.585938 -11.65625 18.007812 -10.734375 18.511719 -9.324219 L 16.015625 -8.433594 L 18.492188 -9.382812 C 18.378906 -9.671875 18.214844 -9.910156 17.996094 -10.097656 C 17.890625 -10.183594 17.800781 -10.246094 17.714844 -10.277344 C 17.839844 -10.230469 18.09375 -10.195312 18.480469 -10.171875 L 18.320312 -7.523438 L 18.417969 -10.175781 C 19.96875 -10.117188 21.3125 -10.484375 22.457031 -11.285156 C 22.589844 -11.378906 22.855469 -11.652344 23.25 -12.113281 C 23.75 -12.699219 24.367188 -13.492188 25.09375 -14.488281 L 29.863281 -12.546875 C 29.8125 -12.179688 29.714844 -11.703125 29.574219 -11.117188 C 29.457031 -10.632812 29.339844 -10.121094 29.226562 -9.574219 C 29.089844 -8.949219 28.882812 -8.148438 28.601562 -7.179688 C 28.390625 -6.445312 28.25 -5.640625 28.183594 -4.769531 L 28.167969 -4.546875 L 28.113281 -4.332031 C 28.117188 -4.355469 28.125 -4.375 28.125 -4.390625 C 28.125 -4.378906 28.121094 -4.367188 28.121094 -4.347656 C 28.109375 -4.273438 28.101562 -4.179688 28.097656 -4.058594 C 28.070312 -3.621094 27.96875 -2.871094 27.792969 -1.808594 L 25.175781 -2.246094 L 27.828125 -2.246094 L 27.828125 -2.066406 L 27.761719 -0.519531 L 27.75 -0.425781 C 27.746094 -0.40625 27.746094 -0.398438 27.746094 -0.390625 C 27.746094 -0.414062 27.742188 -0.4375 27.734375 -0.464844 C 27.710938 -0.542969 27.679688 -0.609375 27.632812 -0.664062 L 27.625 -0.667969 C 27.652344 -0.648438 27.683594 -0.628906 27.726562 -0.605469 C 27.878906 -0.519531 28.082031 -0.441406 28.335938 -0.367188 L 28.378906 -0.355469 L 28.417969 -0.339844 C 29.390625 -0.0234375 30.554688 -0.0703125 31.902344 -0.46875 C 32.980469 -0.808594 33.617188 -1.273438 33.816406 -1.871094 L 34.421875 -3.683594 L 36.394531 -3.683594 L 36.394531 -1.03125 L 33.742188 -1.03125 L 33.742188 -1.582031 L 33.878906 -1.992188 C 35.902344 -8.066406 37.550781 -14.453125 38.824219 -21.148438 C 40.109375 -27.925781 41.316406 -35.234375 42.445312 -43.082031 L 45.070312 -42.703125 L 42.421875 -42.871094 C 42.441406 -43.199219 42.425781 -43.453125 42.371094 -43.636719 C 42.359375 -43.671875 42.347656 -43.699219 42.339844 -43.714844 C 42.339844 -43.714844 42.339844 -43.714844 42.34375 -43.710938 C 42.078125 -43.96875 41.714844 -44.136719 41.253906 -44.207031 C 40.558594 -44.320312 39.808594 -44.296875 39.007812 -44.136719 C 38.183594 -43.972656 37.511719 -43.738281 36.996094 -43.441406 L 35.667969 -45.738281 L 37.140625 -43.53125 C 35.089844 -42.164062 32.824219 -39.804688 30.335938 -36.449219 C 29.097656 -34.789062 27.414062 -32.136719 25.277344 -28.5 L 20.394531 -30.390625 C 20.699219 -31.855469 20.953125 -33.375 21.144531 -34.957031 C 21.3125 -36.339844 21.242188 -37.847656 20.929688 -39.476562 L 20.664062 -40.855469 L 21.660156 -41.851562 C 21.574219 -41.769531 21.496094 -41.667969 21.417969 -41.554688 C 21.140625 -41.136719 21.003906 -40.671875 21.003906 -40.15625 L 21.003906 -41.421875 L 21.984375 -42.214844 L 21.996094 -42.222656 C 21.96875 -42.191406 21.945312 -42.148438 21.921875 -42.101562 C 21.878906 -41.996094 21.859375 -41.894531 21.867188 -41.804688 C 21.851562 -41.953125 21.679688 -42.472656 21.351562 -43.359375 Z M 21.351562 -43.359375 "/></g></g><g style="fill:#000000;fill-opacity:1;"><g transform="translate(273.735339, 210.374986)"><path style="stroke:none" d="M 13.980469 -10.28125 C 16.238281 -10.050781 17.894531 -9.933594 18.957031 -9.933594 C 19.988281 -9.933594 21.617188 -10.085938 23.839844 -10.394531 L 24.453125 -10.476562 L 25.042969 -10.28125 C 26.609375 -9.761719 27.59375 -8.898438 27.996094 -7.695312 C 28.238281 -6.964844 28.320312 -6.21875 28.238281 -5.453125 C 28.226562 -5.359375 28.230469 -5.269531 28.25 -5.1875 C 28.152344 -5.617188 27.953125 -5.953125 27.652344 -6.191406 C 27.609375 -6.226562 27.578125 -6.246094 27.558594 -6.257812 C 27.585938 -6.242188 27.632812 -6.226562 27.695312 -6.203125 C 28.152344 -6.050781 28.558594 -5.796875 28.914062 -5.441406 C 29.28125 -5.074219 29.542969 -4.640625 29.699219 -4.140625 C 29.902344 -3.496094 29.910156 -2.785156 29.726562 -2.015625 C 29.496094 -1.066406 29.003906 -0.101562 28.253906 0.882812 C 26.609375 3.027344 24.640625 4.527344 22.351562 5.394531 L 22.207031 5.449219 L 22.058594 5.488281 C 18.996094 6.25 16.5625 6.699219 14.753906 6.832031 C 11.828125 7.046875 8.660156 6.941406 5.25 6.515625 L 5.179688 6.507812 L 5.105469 6.492188 C 2.855469 6.085938 1.117188 5.355469 -0.105469 4.304688 C -0.851562 3.664062 -1.40625 2.914062 -1.765625 2.058594 C -2.125 1.210938 -2.277344 0.296875 -2.226562 -0.683594 L 0.425781 -0.546875 L -2.230469 -0.546875 C -2.230469 -9.40625 -0.296875 -18.289062 3.570312 -27.199219 C 4.804688 -30.035156 6.199219 -33.011719 7.757812 -36.128906 C 7.925781 -36.460938 8.023438 -36.859375 8.058594 -37.324219 C 8.121094 -38.113281 8.167969 -38.878906 8.207031 -39.628906 C 8.261719 -40.636719 8.425781 -41.558594 8.703125 -42.390625 C 9.171875 -43.796875 10.125 -44.773438 11.5625 -45.3125 C 20.390625 -48.832031 27.492188 -50.171875 32.863281 -49.328125 L 32.453125 -46.707031 L 32.515625 -49.363281 C 33.769531 -49.332031 34.859375 -49.078125 35.78125 -48.605469 C 36.863281 -48.050781 37.671875 -47.230469 38.203125 -46.148438 C 39.058594 -44.40625 39.167969 -42.511719 38.539062 -40.464844 C 37.980469 -38.664062 36.925781 -37 35.375 -35.472656 C 33.734375 -33.859375 31.699219 -32.867188 29.273438 -32.5 L 28.875 -35.121094 L 29.609375 -32.570312 C 27.351562 -31.921875 26.023438 -31.503906 25.617188 -31.316406 C 25.144531 -31.089844 24.820312 -30.820312 24.648438 -30.507812 L 24.609375 -30.433594 L 24.5625 -30.359375 C 24.007812 -29.492188 23.496094 -28.660156 23.019531 -27.871094 C 22.6875 -27.3125 22.449219 -26.710938 22.308594 -26.066406 L 19.714844 -26.628906 L 22.324219 -26.15625 L 22.082031 -24.820312 L 19.472656 -25.296875 L 20.609375 -27.695312 C 20.910156 -27.550781 21.359375 -27.519531 21.957031 -27.59375 C 23.050781 -27.734375 24.0625 -27.871094 24.996094 -28.011719 C 26.257812 -28.199219 27.335938 -28.199219 28.230469 -28.015625 C 28.902344 -27.875 29.46875 -27.570312 29.933594 -27.101562 C 30.390625 -26.636719 30.6875 -26.070312 30.824219 -25.40625 C 30.976562 -24.65625 30.894531 -23.792969 30.582031 -22.816406 C 30.160156 -21.5 29.421875 -20.070312 28.367188 -18.523438 C 27.136719 -16.71875 25.425781 -15.414062 23.234375 -14.613281 L 23.035156 -14.539062 L 22.824219 -14.5 C 21.832031 -14.308594 21.171875 -14.171875 20.84375 -14.085938 C 20.410156 -13.96875 20.066406 -13.886719 19.808594 -13.835938 L 19.738281 -13.820312 L 19.664062 -13.8125 C 19.3125 -13.761719 18.429688 -13.691406 17.023438 -13.609375 L 16.863281 -16.257812 L 19.152344 -14.914062 C 17.390625 -11.914062 16.335938 -9.660156 15.992188 -8.148438 C 15.988281 -8.125 15.984375 -8.101562 15.980469 -8.082031 C 15.980469 -8.085938 15.984375 -8.09375 15.984375 -8.109375 C 15.992188 -8.265625 15.96875 -8.4375 15.917969 -8.625 C 15.785156 -9.097656 15.523438 -9.488281 15.121094 -9.800781 C 14.699219 -10.132812 14.226562 -10.296875 13.710938 -10.296875 L 13.847656 -10.296875 Z M 13.4375 -5.003906 L 13.710938 -7.644531 L 13.710938 -4.988281 C 13.007812 -4.988281 12.386719 -5.199219 11.851562 -5.621094 C 11.332031 -6.027344 10.984375 -6.554688 10.804688 -7.207031 C 10.632812 -7.8125 10.640625 -8.519531 10.816406 -9.324219 C 11.28125 -11.371094 12.535156 -14.128906 14.574219 -17.601562 L 15.292969 -18.820312 L 16.703125 -18.90625 C 17.964844 -18.984375 18.703125 -19.035156 18.914062 -19.066406 L 19.289062 -16.4375 L 18.769531 -19.042969 C 18.917969 -19.070312 19.160156 -19.128906 19.492188 -19.21875 C 19.9375 -19.335938 20.710938 -19.5 21.820312 -19.710938 L 22.324219 -17.105469 L 21.410156 -19.597656 C 22.535156 -20.011719 23.390625 -20.648438 23.980469 -21.511719 C 24.746094 -22.636719 25.261719 -23.609375 25.527344 -24.4375 C 25.566406 -24.554688 25.589844 -24.640625 25.59375 -24.691406 C 25.582031 -24.605469 25.59375 -24.492188 25.621094 -24.347656 C 25.695312 -23.984375 25.875 -23.65625 26.152344 -23.375 C 26.441406 -23.082031 26.773438 -22.894531 27.152344 -22.816406 C 26.875 -22.875 26.417969 -22.855469 25.777344 -22.761719 C 24.808594 -22.617188 23.757812 -22.472656 22.628906 -22.328125 C 21.003906 -22.121094 19.570312 -22.3125 18.335938 -22.898438 L 16.496094 -23.769531 L 17.113281 -27.148438 L 17.121094 -27.195312 C 17.386719 -28.410156 17.835938 -29.546875 18.46875 -30.605469 C 18.96875 -31.433594 19.503906 -32.300781 20.082031 -33.210938 L 22.324219 -31.785156 L 19.996094 -33.066406 C 20.714844 -34.371094 21.847656 -35.394531 23.394531 -36.136719 C 24.042969 -36.4375 25.625 -36.949219 28.140625 -37.671875 L 28.304688 -37.71875 L 28.476562 -37.746094 C 29.769531 -37.941406 30.828125 -38.445312 31.652344 -39.257812 C 32.570312 -40.160156 33.171875 -41.082031 33.464844 -42.03125 C 33.683594 -42.734375 33.671875 -43.328125 33.4375 -43.808594 C 33.421875 -43.839844 33.394531 -43.863281 33.355469 -43.886719 C 33.15625 -43.988281 32.832031 -44.042969 32.390625 -44.054688 L 32.214844 -44.058594 L 32.042969 -44.085938 C 27.628906 -44.78125 21.421875 -43.53125 13.429688 -40.339844 C 13.464844 -40.355469 13.511719 -40.390625 13.570312 -40.449219 C 13.652344 -40.53125 13.707031 -40.621094 13.738281 -40.710938 C 13.613281 -40.332031 13.535156 -39.878906 13.507812 -39.351562 C 13.46875 -38.5625 13.414062 -37.753906 13.351562 -36.925781 C 13.265625 -35.769531 12.984375 -34.710938 12.503906 -33.753906 C 10.988281 -30.722656 9.632812 -27.832031 8.441406 -25.089844 C 4.867188 -16.851562 3.078125 -8.671875 3.078125 -0.546875 L 3.078125 -0.476562 L 3.074219 -0.40625 C 3.066406 -0.238281 3.082031 -0.101562 3.125 -0.00390625 C 3.160156 0.0859375 3.238281 0.179688 3.351562 0.277344 C 3.847656 0.703125 4.75 1.035156 6.054688 1.269531 L 5.582031 3.882812 L 5.910156 1.25 C 8.972656 1.632812 11.789062 1.726562 14.363281 1.539062 C 15.871094 1.429688 18.003906 1.027344 20.769531 0.335938 L 21.414062 2.910156 L 20.476562 0.429688 C 21.824219 -0.0820312 23.011719 -1.003906 24.035156 -2.339844 C 24.335938 -2.730469 24.511719 -3.039062 24.566406 -3.261719 C 24.519531 -3.078125 24.542969 -2.839844 24.636719 -2.546875 C 24.738281 -2.222656 24.914062 -1.9375 25.160156 -1.6875 C 25.398438 -1.453125 25.652344 -1.289062 25.929688 -1.199219 C 24.316406 -1.765625 23.363281 -2.710938 23.070312 -4.035156 C 22.925781 -4.679688 22.886719 -5.339844 22.960938 -6.011719 C 22.960938 -6.011719 22.960938 -6.015625 22.960938 -6.015625 C 23.082031 -5.652344 23.269531 -5.378906 23.523438 -5.195312 C 23.542969 -5.183594 23.558594 -5.171875 23.570312 -5.164062 C 23.570312 -5.167969 23.5625 -5.167969 23.554688 -5.171875 C 23.507812 -5.195312 23.445312 -5.21875 23.363281 -5.246094 L 24.203125 -7.765625 L 24.566406 -5.136719 C 22.101562 -4.796875 20.230469 -4.625 18.957031 -4.625 C 17.710938 -4.625 15.871094 -4.75 13.4375 -5.003906 Z M 13.4375 -5.003906 "/></g></g><g style="fill:#000000;fill-opacity:1;"><g transform="translate(305.519173, 210.374986)"><path style="stroke:none" d="M 31.089844 -44.574219 C 31.121094 -44.480469 31.144531 -44.421875 31.160156 -44.390625 C 31.105469 -44.492188 31.015625 -44.597656 30.890625 -44.707031 C 31.128906 -44.496094 31.304688 -44.332031 31.417969 -44.21875 C 31.863281 -43.773438 32.136719 -43.242188 32.25 -42.625 C 32.332031 -42.15625 32.308594 -41.683594 32.175781 -41.207031 C 32.03125 -40.691406 31.753906 -40.167969 31.339844 -39.628906 L 29.238281 -41.25 L 31.613281 -40.0625 C 31.199219 -39.234375 30.636719 -38.292969 29.929688 -37.230469 C 28.859375 -35.640625 28.195312 -34.527344 27.941406 -33.894531 L 27.898438 -33.792969 L 27.851562 -33.691406 C 26.25 -30.488281 25 -27.558594 24.109375 -24.90625 C 23.191406 -22.167969 22.414062 -19.707031 21.777344 -17.515625 C 21.117188 -15.242188 20.472656 -13.230469 19.847656 -11.480469 C 18.980469 -9.121094 17.921875 -7.316406 16.675781 -6.070312 L 14.800781 -7.945312 L 17.078125 -6.582031 C 16.203125 -5.125 14.769531 -4.167969 12.777344 -3.71875 C 11.207031 -3.367188 9.617188 -3.300781 8 -3.527344 C 6.28125 -3.769531 4.789062 -4.339844 3.527344 -5.238281 C 2.644531 -5.867188 2.023438 -6.636719 1.664062 -7.550781 C 1.296875 -8.488281 1.234375 -9.484375 1.476562 -10.546875 L 4.0625 -9.949219 L 1.429688 -10.257812 C 1.894531 -14.253906 2.617188 -17.640625 3.59375 -20.414062 C 4.511719 -23.03125 5.3125 -25.203125 5.992188 -26.933594 C 6.648438 -28.605469 7.214844 -30.109375 7.691406 -31.4375 C 8.195312 -32.84375 8.671875 -34.066406 9.117188 -35.105469 C 9.5625 -36.152344 10.085938 -37.253906 10.675781 -38.417969 C 11.265625 -39.574219 11.902344 -40.746094 12.59375 -41.941406 C 13.304688 -43.164062 14.023438 -44.292969 14.757812 -45.332031 C 16.644531 -47.988281 18.378906 -49.625 19.964844 -50.242188 C 21.304688 -50.765625 22.664062 -51.074219 24.042969 -51.175781 C 25.550781 -51.285156 26.910156 -51.105469 28.109375 -50.636719 C 29.617188 -50.046875 30.679688 -49.058594 31.300781 -47.664062 C 31.945312 -46.214844 31.839844 -44.542969 30.992188 -42.648438 L 28.570312 -43.734375 Z M 26.054688 -42.898438 L 25.726562 -43.878906 L 26.148438 -44.820312 C 26.296875 -45.152344 26.382812 -45.414062 26.402344 -45.609375 C 26.402344 -45.628906 26.40625 -45.644531 26.40625 -45.660156 L 26.40625 -45.652344 C 26.410156 -45.605469 26.425781 -45.558594 26.449219 -45.507812 C 26.421875 -45.570312 26.332031 -45.632812 26.179688 -45.691406 C 25.722656 -45.871094 25.140625 -45.933594 24.425781 -45.882812 C 23.578125 -45.820312 22.734375 -45.625 21.890625 -45.296875 C 21.6875 -45.21875 21.382812 -44.976562 20.976562 -44.574219 C 20.417969 -44.019531 19.789062 -43.25 19.089844 -42.261719 C 18.449219 -41.359375 17.816406 -40.363281 17.1875 -39.28125 C 16.546875 -38.171875 15.953125 -37.082031 15.40625 -36.011719 C 14.867188 -34.949219 14.398438 -33.953125 13.996094 -33.015625 C 13.589844 -32.074219 13.15625 -30.953125 12.6875 -29.648438 C 12.195312 -28.265625 11.609375 -26.714844 10.933594 -24.992188 C 10.277344 -23.324219 9.5 -21.210938 8.601562 -18.652344 C 7.753906 -16.25 7.121094 -13.246094 6.699219 -9.640625 L 6.683594 -9.496094 L 6.648438 -9.351562 C 6.644531 -9.332031 6.640625 -9.316406 6.640625 -9.304688 C 6.640625 -9.308594 6.640625 -9.3125 6.640625 -9.324219 C 6.636719 -9.378906 6.625 -9.433594 6.601562 -9.492188 C 6.582031 -9.546875 6.558594 -9.589844 6.53125 -9.621094 C 6.539062 -9.609375 6.5625 -9.589844 6.601562 -9.5625 C 7.160156 -9.167969 7.875 -8.90625 8.742188 -8.785156 C 9.714844 -8.648438 10.671875 -8.6875 11.609375 -8.898438 C 12.125 -9.015625 12.429688 -9.152344 12.523438 -9.3125 L 12.695312 -9.59375 L 12.925781 -9.824219 C 13.621094 -10.519531 14.261719 -11.667969 14.847656 -13.265625 C 15.4375 -14.914062 16.046875 -16.828125 16.679688 -19 C 17.339844 -21.257812 18.136719 -23.789062 19.078125 -26.59375 C 20.046875 -29.484375 21.390625 -32.640625 23.101562 -36.066406 L 25.476562 -34.878906 L 23.011719 -35.863281 C 23.40625 -36.847656 24.238281 -38.285156 25.511719 -40.171875 C 26.097656 -41.050781 26.550781 -41.804688 26.863281 -42.4375 L 26.980469 -42.664062 L 27.132812 -42.867188 C 27.152344 -42.890625 27.167969 -42.910156 27.179688 -42.925781 L 27.175781 -42.925781 C 27.132812 -42.84375 27.09375 -42.746094 27.058594 -42.625 C 26.976562 -42.328125 26.964844 -42.019531 27.023438 -41.691406 C 27.109375 -41.214844 27.324219 -40.804688 27.664062 -40.464844 C 27.617188 -40.511719 27.507812 -40.613281 27.339844 -40.761719 C 26.792969 -41.257812 26.363281 -41.96875 26.054688 -42.898438 Z M 16.636719 2.691406 C 16.003906 5.042969 14.683594 6.816406 12.667969 8.015625 C 10.886719 9.074219 8.984375 9.640625 6.957031 9.71875 C 4.933594 9.796875 3.039062 9.402344 1.285156 8.539062 C -0.808594 7.507812 -2.128906 5.894531 -2.667969 3.699219 C -3.21875 1.457031 -2.832031 -0.496094 -1.5 -2.167969 C -0.355469 -3.609375 1.042969 -4.558594 2.6875 -5.015625 C 3.941406 -5.363281 5.386719 -5.605469 7.03125 -5.738281 C 8.785156 -5.882812 10.402344 -5.78125 11.886719 -5.433594 C 13.671875 -5.019531 15.078125 -4.203125 16.101562 -2.984375 C 16.84375 -2.105469 17.210938 -1.070312 17.210938 0.121094 C 17.210938 1.050781 16.96875 2.046875 16.488281 3.105469 L 14.074219 2 Z M 11.511719 1.3125 L 11.566406 1.101562 L 11.660156 0.898438 C 11.824219 0.542969 11.90625 0.28125 11.90625 0.121094 C 11.90625 0.222656 11.949219 0.324219 12.042969 0.4375 C 11.773438 0.117188 11.320312 -0.117188 10.679688 -0.265625 C 9.738281 -0.488281 8.664062 -0.546875 7.464844 -0.449219 C 6.15625 -0.339844 5.039062 -0.15625 4.105469 0.101562 C 3.570312 0.25 3.082031 0.59375 2.652344 1.136719 C 2.40625 1.449219 2.351562 1.878906 2.484375 2.429688 C 2.632812 3.023438 3.015625 3.472656 3.628906 3.777344 C 4.582031 4.246094 5.625 4.457031 6.753906 4.414062 C 7.878906 4.371094 8.949219 4.050781 9.957031 3.449219 C 10.734375 2.988281 11.25 2.277344 11.511719 1.3125 Z M 11.511719 1.3125 "/></g></g><g style="fill:#6ff6b7;fill-opacity:1;"><g transform="translate(46.69922, 210.374986)"><path style="stroke:none" d="M 33.546875 -41.125 C 34.921875 -40.394531 35.789062 -39.320312 36.15625 -37.90625 C 35.34375 -33.375 34.613281 -28.875 33.96875 -24.40625 C 33.320312 -19.945312 32.691406 -16.207031 32.078125 -13.1875 C 31.472656 -10.175781 31.0625 -7.921875 30.84375 -6.421875 C 30.625 -4.929688 30.367188 -3.4375 30.078125 -1.9375 L 29.71875 -0.671875 C 29.632812 -0.222656 29.550781 0.191406 29.46875 0.578125 C 29.394531 0.960938 29.316406 1.375 29.234375 1.8125 C 28.097656 3.113281 26.5625 3.765625 24.625 3.765625 C 22.5625 3.765625 20.925781 3.238281 19.71875 2.1875 C 18.988281 1.613281 18.863281 0.421875 19.34375 -1.390625 C 19.550781 -2.117188 19.679688 -3.054688 19.734375 -4.203125 C 19.796875 -5.359375 19.867188 -6.320312 19.953125 -7.09375 L 19.953125 -7.21875 C 18.742188 -6.769531 17.648438 -6.191406 16.671875 -5.484375 C 15.703125 -4.773438 15.097656 -4.328125 14.859375 -4.140625 C 14.617188 -3.960938 14.296875 -3.820312 13.890625 -3.71875 C 13.484375 -3.625 13.117188 -3.554688 12.796875 -3.515625 C 12.023438 -3.472656 11.5 -3.351562 11.21875 -3.15625 C 8.875 1.050781 6.769531 3.394531 4.90625 3.875 C 3.738281 4.238281 2.566406 4.328125 1.390625 4.140625 C 0.222656 3.960938 -0.703125 3.269531 -1.390625 2.0625 C -2.691406 0.851562 -2.367188 -2.460938 -0.421875 -7.890625 C 0.628906 -10.753906 2.132812 -14.195312 4.09375 -18.21875 C 6.050781 -22.25 7.941406 -25.757812 9.765625 -28.75 C 13.691406 -35.175781 18 -40.59375 22.6875 -45 C 23.457031 -45.332031 24.285156 -45.707031 25.171875 -46.125 C 26.054688 -46.550781 26.929688 -46.785156 27.796875 -46.828125 C 28.671875 -46.867188 29.570312 -46.765625 30.5 -46.515625 C 31.4375 -46.273438 32.226562 -45.914062 32.875 -45.4375 C 34.375 -44.300781 34.597656 -42.863281 33.546875 -41.125 Z M 20.5625 -25.171875 C 19.707031 -22.742188 18.851562 -20.507812 18 -18.46875 C 17.15625 -16.425781 16.429688 -14.640625 15.828125 -13.109375 L 20.625 -13.28125 C 20.945312 -15.875 21.3125 -18.441406 21.71875 -20.984375 C 22.125 -23.535156 22.507812 -26.082031 22.875 -28.625 Z M 18.921875 -13.046875 C 19.492188 -13.046875 20.0625 -13.082031 20.625 -13.15625 L 20.625 -13.21875 C 20.09375 -13.175781 19.601562 -13.132812 19.15625 -13.09375 C 18.71875 -13.0625 18.640625 -13.046875 18.921875 -13.046875 Z M 18.921875 -13.046875 "/></g></g><g style="fill:#6ff6b7;fill-opacity:1;"><g transform="translate(80.909305, 210.374986)"><path style="stroke:none" d="M 29.59375 -25.59375 C 33.71875 -38.007812 36.46875 -44.21875 37.84375 -44.21875 C 38.007812 -44.21875 38.191406 -44.195312 38.390625 -44.15625 C 39.035156 -44.113281 39.765625 -44.378906 40.578125 -44.953125 C 41.628906 -45.835938 42.851562 -46.519531 44.25 -47 C 45.644531 -47.488281 47.007812 -47.671875 48.34375 -47.546875 C 51.457031 -47.265625 53.421875 -45.628906 54.234375 -42.640625 L 54.234375 -42.453125 C 54.023438 -41.890625 53.820312 -41.425781 53.625 -41.0625 L 53.859375 -41.0625 C 52.847656 -39.8125 51.878906 -38.179688 50.953125 -36.171875 C 50.023438 -34.171875 49.316406 -32.613281 48.828125 -31.5 C 48.335938 -30.394531 47.648438 -28.992188 46.765625 -27.296875 C 45.878906 -25.597656 44.859375 -23.515625 43.703125 -21.046875 C 42.546875 -18.578125 41.34375 -16.128906 40.09375 -13.703125 C 37.101562 -7.878906 34.128906 -3.3125 31.171875 0 C 29.679688 1.820312 27.660156 2.710938 25.109375 2.671875 C 24.015625 2.628906 22.960938 2.34375 21.953125 1.8125 C 20.941406 1.289062 20.15625 0.484375 19.59375 -0.609375 L 18.3125 -4.421875 C 17.789062 -3.984375 17.1875 -3.421875 16.5 -2.734375 C 15.8125 -2.046875 15.082031 -1.335938 14.3125 -0.609375 C 12.53125 1.085938 11.15625 1.976562 10.1875 2.0625 C 9.21875 2.144531 8.390625 2.15625 7.703125 2.09375 C 7.015625 2.03125 6.367188 1.878906 5.765625 1.640625 C 4.390625 1.109375 3.5 0.0976562 3.09375 -1.390625 C 2.40625 -8.304688 2.75 -17.144531 4.125 -27.90625 C 4.488281 -30.53125 4.8125 -33.117188 5.09375 -35.671875 C 5.78125 -39.265625 7.078125 -41.851562 8.984375 -43.4375 C 10.597656 -44.8125 12.171875 -45.210938 13.703125 -44.640625 C 14.390625 -44.398438 14.914062 -43.992188 15.28125 -43.421875 C 15.644531 -42.859375 15.769531 -42.175781 15.65625 -41.375 C 15.726562 -38.90625 15.707031 -37.0625 15.59375 -35.84375 C 15.425781 -33.78125 15.363281 -32.265625 15.40625 -31.296875 C 15.445312 -30.328125 15.4375 -29.53125 15.375 -28.90625 C 15.3125 -28.28125 15.269531 -27.691406 15.25 -27.140625 C 15.226562 -26.597656 15.25 -26.15625 15.3125 -25.8125 C 15.375 -25.46875 15.523438 -25.394531 15.765625 -25.59375 C 16.703125 -27.570312 17.492188 -29.003906 18.140625 -29.890625 C 18.785156 -30.785156 19.472656 -31.71875 20.203125 -32.6875 C 21.328125 -33.695312 22.316406 -34.082031 23.171875 -33.84375 C 23.617188 -33.757812 24.082031 -33.609375 24.5625 -33.390625 C 25.050781 -33.171875 25.695312 -32.976562 26.5 -32.8125 C 27.03125 -32.363281 27.375 -31.878906 27.53125 -31.359375 C 27.65625 -31.234375 27.773438 -31.117188 27.890625 -31.015625 C 28.015625 -30.921875 28.109375 -30.800781 28.171875 -30.65625 C 28.234375 -30.519531 28.332031 -30.207031 28.46875 -29.71875 C 28.613281 -29.238281 28.765625 -28.722656 28.921875 -28.171875 C 29.085938 -27.628906 29.234375 -27.101562 29.359375 -26.59375 C 29.484375 -26.09375 29.5625 -25.757812 29.59375 -25.59375 Z M 31.0625 -0.1875 C 31.0625 -0.101562 31.066406 -0.09375 31.078125 -0.15625 C 31.097656 -0.21875 31.109375 -0.285156 31.109375 -0.359375 Z M 31.0625 -0.1875 "/></g></g><g style="fill:#6ff6b7;fill-opacity:1;"><g transform="translate(127.796536, 210.374986)"><path style="stroke:none" d="M 13.703125 -7.640625 C 16.046875 -7.398438 17.796875 -7.28125 18.953125 -7.28125 C 20.109375 -7.28125 21.859375 -7.441406 24.203125 -7.765625 C 24.929688 -7.523438 25.351562 -7.222656 25.46875 -6.859375 C 25.59375 -6.492188 25.632812 -6.117188 25.59375 -5.734375 C 25.550781 -5.347656 25.570312 -4.972656 25.65625 -4.609375 C 25.738281 -4.242188 26.125 -3.941406 26.8125 -3.703125 C 27.175781 -3.578125 27.285156 -3.222656 27.140625 -2.640625 C 27.003906 -2.054688 26.671875 -1.421875 26.140625 -0.734375 C 24.804688 1.003906 23.226562 2.21875 21.40625 2.90625 C 18.5 3.632812 16.21875 4.0625 14.5625 4.1875 C 11.8125 4.382812 8.816406 4.28125 5.578125 3.875 C 2.023438 3.226562 0.304688 1.753906 0.421875 -0.546875 C 0.421875 -9.035156 2.28125 -17.566406 6 -26.140625 C 7.21875 -28.929688 8.59375 -31.863281 10.125 -34.9375 C 10.445312 -35.582031 10.640625 -36.304688 10.703125 -37.109375 C 10.765625 -37.921875 10.816406 -38.710938 10.859375 -39.484375 C 10.898438 -40.253906 11.019531 -40.941406 11.21875 -41.546875 C 11.425781 -42.148438 11.851562 -42.578125 12.5 -42.828125 C 20.90625 -46.179688 27.554688 -47.472656 32.453125 -46.703125 C 34.148438 -46.660156 35.269531 -46.082031 35.8125 -44.96875 C 36.363281 -43.863281 36.425781 -42.625 36 -41.25 C 35.570312 -39.875 34.738281 -38.578125 33.5 -37.359375 C 32.269531 -36.148438 30.726562 -35.40625 28.875 -35.125 C 26.488281 -34.4375 25.03125 -33.96875 24.5 -33.71875 C 23.488281 -33.238281 22.765625 -32.59375 22.328125 -31.78125 C 21.753906 -30.894531 21.222656 -30.046875 20.734375 -29.234375 C 20.253906 -28.421875 19.914062 -27.550781 19.71875 -26.625 L 19.46875 -25.296875 C 20.238281 -24.929688 21.175781 -24.816406 22.28125 -24.953125 C 23.394531 -25.097656 24.425781 -25.238281 25.375 -25.375 C 26.332031 -25.519531 27.101562 -25.53125 27.6875 -25.40625 C 28.269531 -25.289062 28.390625 -24.695312 28.046875 -23.625 C 27.703125 -22.550781 27.078125 -21.347656 26.171875 -20.015625 C 25.265625 -18.679688 23.984375 -17.710938 22.328125 -17.109375 C 21.273438 -16.898438 20.554688 -16.742188 20.171875 -16.640625 C 19.785156 -16.546875 19.488281 -16.476562 19.28125 -16.4375 C 19 -16.394531 18.191406 -16.332031 16.859375 -16.25 C 14.960938 -13.019531 13.8125 -10.515625 13.40625 -8.734375 C 13.238281 -8.003906 13.335938 -7.640625 13.703125 -7.640625 Z M 13.703125 -7.640625 "/></g></g><g style="fill:#6ff6b7;fill-opacity:1;"><g transform="translate(159.580382, 210.374986)"><path style="stroke:none" d="M 10.0625 3.515625 C 8 3.597656 6.109375 3.34375 4.390625 2.75 C 2.671875 2.164062 1.273438 1.367188 0.203125 0.359375 C -0.859375 -0.648438 -1.53125 -1.832031 -1.8125 -3.1875 C -2.101562 -4.539062 -1.863281 -5.925781 -1.09375 -7.34375 C -0.0390625 -9.039062 2.0625 -9.546875 5.21875 -8.859375 C 7.601562 -8.367188 9.25 -8.101562 10.15625 -8.0625 C 11.070312 -8.019531 11.851562 -8.144531 12.5 -8.4375 C 15.445312 -9.40625 17.101562 -10.453125 17.46875 -11.578125 C 17.707031 -12.429688 17.179688 -13.425781 15.890625 -14.5625 C 15.367188 -15.039062 14.78125 -15.519531 14.125 -16 C 13.476562 -16.488281 12.9375 -16.976562 12.5 -17.46875 C 10.476562 -18.96875 8.890625 -20.695312 7.734375 -22.65625 C 6.578125 -24.613281 6.097656 -26.742188 6.296875 -29.046875 C 6.503906 -31.359375 6.890625 -33.269531 7.453125 -34.78125 C 8.023438 -36.300781 8.734375 -37.644531 9.578125 -38.8125 C 11.078125 -40.875 13.019531 -42.554688 15.40625 -43.859375 C 18.15625 -45.273438 20.359375 -46.179688 22.015625 -46.578125 C 25.296875 -47.304688 28.613281 -47.367188 31.96875 -46.765625 C 33.101562 -46.566406 34.070312 -46.179688 34.875 -45.609375 C 35.6875 -45.046875 36.492188 -44.460938 37.296875 -43.859375 C 38.710938 -42.441406 39.054688 -41.003906 38.328125 -39.546875 C 38.046875 -38.898438 37.601562 -38.375 37 -37.96875 C 36.394531 -37.5625 35.75 -37.335938 35.0625 -37.296875 C 35.144531 -36.210938 34.941406 -35.40625 34.453125 -34.875 C 33.523438 -33.945312 31.90625 -33.34375 29.59375 -33.0625 C 26.28125 -33.300781 24.039062 -33.117188 22.875 -32.515625 C 21.5 -31.785156 20.988281 -30.207031 21.34375 -27.78125 C 21.425781 -27.25 21.757812 -26.703125 22.34375 -26.140625 C 22.9375 -25.578125 23.625 -24.972656 24.40625 -24.328125 C 25.195312 -23.679688 26.023438 -22.953125 26.890625 -22.140625 C 27.765625 -21.328125 28.523438 -20.394531 29.171875 -19.34375 C 31.441406 -15.625 31.257812 -11.28125 28.625 -6.3125 C 26.6875 -2.59375 23.375 0.195312 18.6875 2.0625 C 16.257812 3.03125 13.382812 3.515625 10.0625 3.515625 Z M 10.0625 3.515625 "/></g></g><g style="fill:#6ff6b7;fill-opacity:1;"><g transform="translate(193.062599, 210.374986)"><path style="stroke:none" d="M 12.3125 -40.15625 C 14.863281 -43.0625 17.695312 -44.878906 20.8125 -45.609375 C 22.945312 -46.140625 24.96875 -46.0625 26.875 -45.375 C 28.363281 -46.945312 30.300781 -47.507812 32.6875 -47.0625 C 34.875 -46.664062 36.738281 -45.4375 38.28125 -43.375 C 38.351562 -43.082031 38.519531 -42.65625 38.78125 -42.09375 C 39.050781 -41.53125 39.304688 -40.90625 39.546875 -40.21875 C 41.328125 -36.09375 41.46875 -30.671875 39.96875 -23.953125 C 38.113281 -15.628906 34.816406 -8.578125 30.078125 -2.796875 C 28.628906 -1.015625 26.992188 0.460938 25.171875 1.640625 C 22.265625 3.859375 18.785156 4.847656 14.734375 4.609375 C 12.234375 4.484375 10.132812 3.859375 8.4375 2.734375 C 1.675781 -0.628906 -0.53125 -7.625 1.8125 -18.25 C 3.757812 -26.988281 7.257812 -34.289062 12.3125 -40.15625 Z M 13.046875 -7.953125 L 12.984375 -7.578125 L 13.109375 -6.921875 C 13.347656 -5.660156 13.75 -4.695312 14.3125 -4.03125 C 14.882812 -3.363281 15.347656 -2.953125 15.703125 -2.796875 C 16.109375 -3.117188 16.515625 -3.421875 16.921875 -3.703125 C 17.328125 -3.984375 17.691406 -4.328125 18.015625 -4.734375 C 20.765625 -8.128906 22.90625 -12.578125 24.4375 -18.078125 C 25.976562 -23.578125 26.546875 -28.671875 26.140625 -33.359375 C 24.566406 -31.335938 22.910156 -29.007812 21.171875 -26.375 C 19.429688 -23.75 18.054688 -21.507812 17.046875 -19.65625 C 14.742188 -15.320312 13.410156 -11.421875 13.046875 -7.953125 Z M 13.046875 -7.953125 "/></g></g><g style="fill:#6ff6b7;fill-opacity:1;"><g transform="translate(231.821905, 210.374986)"><path style="stroke:none" d="M 23.84375 -44.28125 C 24.25 -43.1875 24.46875 -42.457031 24.5 -42.09375 C 24.582031 -41.320312 24.300781 -40.675781 23.65625 -40.15625 C 23.65625 -40.113281 23.613281 -40.050781 23.53125 -39.96875 C 23.894531 -38.070312 23.972656 -36.289062 23.765625 -34.625 C 23.566406 -32.96875 23.304688 -31.375 22.984375 -29.84375 C 25.171875 -33.5625 26.910156 -36.289062 28.203125 -38.03125 C 30.867188 -41.632812 33.359375 -44.203125 35.671875 -45.734375 C 36.429688 -46.179688 37.367188 -46.515625 38.484375 -46.734375 C 39.597656 -46.953125 40.660156 -46.976562 41.671875 -46.8125 C 42.679688 -46.65625 43.519531 -46.253906 44.1875 -45.609375 C 44.851562 -44.960938 45.144531 -43.992188 45.0625 -42.703125 C 43.9375 -34.816406 42.722656 -27.46875 41.421875 -20.65625 C 40.128906 -13.84375 38.453125 -7.34375 36.390625 -1.15625 L 36.390625 -1.03125 L 36.328125 -1.03125 C 35.847656 0.425781 34.640625 1.457031 32.703125 2.0625 C 30.796875 2.625 29.09375 2.664062 27.59375 2.1875 C 25.78125 1.65625 24.953125 0.679688 25.109375 -0.734375 L 25.171875 -2.125 L 25.171875 -2.25 C 25.335938 -3.21875 25.429688 -3.875 25.453125 -4.21875 C 25.472656 -4.5625 25.5 -4.8125 25.53125 -4.96875 C 25.613281 -6.019531 25.785156 -7 26.046875 -7.90625 C 26.316406 -8.820312 26.507812 -9.5625 26.625 -10.125 C 26.75 -10.695312 26.867188 -11.234375 26.984375 -11.734375 C 27.109375 -12.242188 27.191406 -12.640625 27.234375 -12.921875 C 25.703125 -10.816406 24.613281 -9.539062 23.96875 -9.09375 C 22.34375 -7.96875 20.457031 -7.441406 18.3125 -7.515625 C 16.976562 -7.597656 16.210938 -7.90625 16.015625 -8.4375 C 15.609375 -9.5625 15.328125 -10.226562 15.171875 -10.4375 C 14.921875 -10.757812 14.71875 -11.304688 14.5625 -12.078125 C 13.507812 -7.421875 12.476562 -4.125 11.46875 -2.1875 C 11.0625 -1.414062 10.65625 -0.726562 10.25 -0.125 C 9.6875 1.207031 8.394531 2.140625 6.375 2.671875 C 4.46875 3.191406 2.644531 3.148438 0.90625 2.546875 C -0.863281 1.984375 -1.707031 0.972656 -1.625 -0.484375 C -1.550781 -1.941406 -1.257812 -3.769531 -0.75 -5.96875 C -0.25 -8.175781 0.34375 -10.515625 1.03125 -12.984375 C 3.09375 -20.785156 4.554688 -25.859375 5.421875 -28.203125 C 6.296875 -30.546875 7.035156 -32.382812 7.640625 -33.71875 C 9.097656 -36.832031 10.394531 -39.097656 11.53125 -40.515625 C 12.78125 -43.066406 14.863281 -44.601562 17.78125 -45.125 C 20.082031 -45.570312 22.101562 -45.289062 23.84375 -44.28125 Z M 23.84375 -44.28125 "/></g></g><g style="fill:#6ff6b7;fill-opacity:1;"><g transform="translate(273.735339, 210.374986)"><path style="stroke:none" d="M 13.703125 -7.640625 C 16.046875 -7.398438 17.796875 -7.28125 18.953125 -7.28125 C 20.109375 -7.28125 21.859375 -7.441406 24.203125 -7.765625 C 24.929688 -7.523438 25.351562 -7.222656 25.46875 -6.859375 C 25.59375 -6.492188 25.632812 -6.117188 25.59375 -5.734375 C 25.550781 -5.347656 25.570312 -4.972656 25.65625 -4.609375 C 25.738281 -4.242188 26.125 -3.941406 26.8125 -3.703125 C 27.175781 -3.578125 27.285156 -3.222656 27.140625 -2.640625 C 27.003906 -2.054688 26.671875 -1.421875 26.140625 -0.734375 C 24.804688 1.003906 23.226562 2.21875 21.40625 2.90625 C 18.5 3.632812 16.21875 4.0625 14.5625 4.1875 C 11.8125 4.382812 8.816406 4.28125 5.578125 3.875 C 2.023438 3.226562 0.304688 1.753906 0.421875 -0.546875 C 0.421875 -9.035156 2.28125 -17.566406 6 -26.140625 C 7.21875 -28.929688 8.59375 -31.863281 10.125 -34.9375 C 10.445312 -35.582031 10.640625 -36.304688 10.703125 -37.109375 C 10.765625 -37.921875 10.816406 -38.710938 10.859375 -39.484375 C 10.898438 -40.253906 11.019531 -40.941406 11.21875 -41.546875 C 11.425781 -42.148438 11.851562 -42.578125 12.5 -42.828125 C 20.90625 -46.179688 27.554688 -47.472656 32.453125 -46.703125 C 34.148438 -46.660156 35.269531 -46.082031 35.8125 -44.96875 C 36.363281 -43.863281 36.425781 -42.625 36 -41.25 C 35.570312 -39.875 34.738281 -38.578125 33.5 -37.359375 C 32.269531 -36.148438 30.726562 -35.40625 28.875 -35.125 C 26.488281 -34.4375 25.03125 -33.96875 24.5 -33.71875 C 23.488281 -33.238281 22.765625 -32.59375 22.328125 -31.78125 C 21.753906 -30.894531 21.222656 -30.046875 20.734375 -29.234375 C 20.253906 -28.421875 19.914062 -27.550781 19.71875 -26.625 L 19.46875 -25.296875 C 20.238281 -24.929688 21.175781 -24.816406 22.28125 -24.953125 C 23.394531 -25.097656 24.425781 -25.238281 25.375 -25.375 C 26.332031 -25.519531 27.101562 -25.53125 27.6875 -25.40625 C 28.269531 -25.289062 28.390625 -24.695312 28.046875 -23.625 C 27.703125 -22.550781 27.078125 -21.347656 26.171875 -20.015625 C 25.265625 -18.679688 23.984375 -17.710938 22.328125 -17.109375 C 21.273438 -16.898438 20.554688 -16.742188 20.171875 -16.640625 C 19.785156 -16.546875 19.488281 -16.476562 19.28125 -16.4375 C 19 -16.394531 18.191406 -16.332031 16.859375 -16.25 C 14.960938 -13.019531 13.8125 -10.515625 13.40625 -8.734375 C 13.238281 -8.003906 13.335938 -7.640625 13.703125 -7.640625 Z M 13.703125 -7.640625 "/></g></g><g style="fill:#6ff6b7;fill-opacity:1;"><g transform="translate(305.519173, 210.374986)"><path style="stroke:none" d="M 28.578125 -43.734375 C 28.734375 -43.242188 28.910156 -42.90625 29.109375 -42.71875 C 29.316406 -42.539062 29.460938 -42.414062 29.546875 -42.34375 C 29.742188 -42.132812 29.640625 -41.769531 29.234375 -41.25 C 28.867188 -40.519531 28.363281 -39.671875 27.71875 -38.703125 C 26.550781 -36.960938 25.804688 -35.6875 25.484375 -34.875 C 23.816406 -31.5625 22.519531 -28.519531 21.59375 -25.75 C 20.664062 -22.976562 19.878906 -20.476562 19.234375 -18.25 C 18.585938 -16.03125 17.957031 -14.070312 17.34375 -12.375 C 16.613281 -10.394531 15.765625 -8.921875 14.796875 -7.953125 C 14.316406 -7.140625 13.445312 -6.59375 12.1875 -6.3125 C 10.9375 -6.03125 9.664062 -5.976562 8.375 -6.15625 C 7.082031 -6.332031 5.976562 -6.742188 5.0625 -7.390625 C 4.15625 -8.046875 3.820312 -8.898438 4.0625 -9.953125 C 4.507812 -13.753906 5.1875 -16.945312 6.09375 -19.53125 C 7.007812 -22.113281 7.800781 -24.253906 8.46875 -25.953125 C 9.132812 -27.660156 9.707031 -29.191406 10.1875 -30.546875 C 10.675781 -31.898438 11.128906 -33.070312 11.546875 -34.0625 C 11.972656 -35.050781 12.46875 -36.097656 13.03125 -37.203125 C 13.601562 -38.316406 14.222656 -39.453125 14.890625 -40.609375 C 15.554688 -41.765625 16.234375 -42.828125 16.921875 -43.796875 C 18.503906 -46.015625 19.835938 -47.335938 20.921875 -47.765625 C 22.015625 -48.191406 23.117188 -48.441406 24.234375 -48.515625 C 25.347656 -48.597656 26.316406 -48.476562 27.140625 -48.15625 C 27.972656 -47.832031 28.550781 -47.304688 28.875 -46.578125 C 29.195312 -45.859375 29.097656 -44.910156 28.578125 -43.734375 Z M 14.078125 2 C 13.628906 3.65625 12.707031 4.894531 11.3125 5.71875 C 9.914062 6.550781 8.425781 7 6.84375 7.0625 C 5.269531 7.125 3.804688 6.820312 2.453125 6.15625 C 1.097656 5.488281 0.25 4.457031 -0.09375 3.0625 C -0.4375 1.664062 -0.210938 0.472656 0.578125 -0.515625 C 1.367188 -1.503906 2.304688 -2.148438 3.390625 -2.453125 C 4.484375 -2.753906 5.769531 -2.96875 7.25 -3.09375 C 8.726562 -3.21875 10.070312 -3.132812 11.28125 -2.84375 C 12.5 -2.5625 13.429688 -2.035156 14.078125 -1.265625 C 14.722656 -0.503906 14.722656 0.582031 14.078125 2 Z M 14.078125 2 "/></g></g></g></svg>