<svg xmlns="http://www.w3.org/2000/svg" xmlns:xlink="http://www.w3.org/1999/xlink" width="500" zoomAndPan="magnify" viewBox="0 0 375 374.999991" height="500" preserveAspectRatio="xMidYMid meet" version="1.2"><defs><clipPath id="343de69b87"><path d="M 201 70.863281 L 210 70.863281 L 210 115 L 201 115 Z M 201 70.863281 "/></clipPath><clipPath id="37b8e85fc4"><path d="M 281 218 L 311.921875 218 L 311.921875 229 L 281 229 Z M 281 218 "/></clipPath></defs><g id="35483e91f9"><path style=" stroke:none;fill-rule:evenodd;fill:#000000;fill-opacity:1;" d="M 299.386719 154.378906 C 278.15625 170.746094 276.414062 180.132812 302.285156 188.957031 C 265.730469 198.785156 256.785156 208.046875 283.289062 233.296875 C 233.523438 224.53125 219.210938 231.753906 217.003906 279.445312 C 187.046875 242.273438 171.226562 244.898438 136.257812 281.375 C 142.722656 245.34375 130.03125 243.15625 94.734375 256.824219 C 110.394531 234.421875 103.441406 227.871094 76.644531 227.214844 C 97.878906 210.855469 99.617188 201.464844 73.75 192.640625 C 110.300781 182.8125 119.25 173.550781 92.742188 148.296875 C 142.507812 157.066406 156.824219 149.839844 159.027344 102.15625 C 188.988281 139.324219 204.804688 136.699219 239.773438 100.222656 C 233.308594 136.253906 246 138.441406 281.296875 124.773438 C 265.636719 147.175781 272.589844 153.726562 299.386719 154.378906 "/><path style=" stroke:none;fill-rule:evenodd;fill:#ffffff;fill-opacity:1;" d="M 290.699219 157.222656 C 271.121094 172.308594 269.519531 180.964844 293.367188 189.101562 C 259.667969 198.160156 251.417969 206.699219 275.855469 229.984375 C 229.972656 221.898438 216.773438 228.558594 214.742188 272.527344 C 187.121094 238.257812 172.535156 240.679688 140.296875 274.304688 C 146.253906 241.089844 134.558594 239.070312 102.015625 251.671875 C 116.453125 231.015625 110.039062 224.976562 85.332031 224.375 C 104.910156 209.289062 106.515625 200.632812 82.664062 192.496094 C 116.367188 183.433594 124.613281 174.898438 100.175781 151.617188 C 146.058594 159.699219 159.257812 153.039062 161.289062 109.070312 C 188.910156 143.34375 203.496094 140.917969 235.738281 107.289062 C 229.777344 140.511719 241.476562 142.527344 274.019531 129.925781 C 259.582031 150.578125 265.992188 156.621094 290.699219 157.222656 "/><path style=" stroke:none;fill-rule:nonzero;fill:#180f26;fill-opacity:1;" d="M 137.605469 130.917969 L 118.640625 111.285156 L 119.996094 110.0625 L 137.605469 130.917969 "/><path style=" stroke:none;fill-rule:nonzero;fill:#180f26;fill-opacity:1;" d="M 139.410156 108.792969 L 124.894531 81.804688 L 126.527344 80.988281 L 139.410156 108.792969 "/><path style=" stroke:none;fill-rule:nonzero;fill:#180f26;fill-opacity:1;" d="M 204.277344 111.476562 L 212.308594 73.40625 L 214.132812 73.40625 L 204.277344 111.476562 "/><g clip-rule="nonzero" clip-path="url(#343de69b87)"><path style=" stroke:none;fill-rule:nonzero;fill:#180f26;fill-opacity:1;" d="M 201.332031 114.023438 L 207.320312 70.855469 L 209.121094 71.144531 L 201.332031 114.023438 "/></g><path style=" stroke:none;fill-rule:nonzero;fill:#180f26;fill-opacity:1;" d="M 251.429688 120.753906 L 273.589844 96.65625 L 274.894531 97.925781 L 251.429688 120.753906 "/><path style=" stroke:none;fill-rule:nonzero;fill:#180f26;fill-opacity:1;" d="M 256.867188 282.390625 L 234.511719 250.441406 L 258.335938 281.3125 L 256.867188 282.390625 "/><g clip-rule="nonzero" clip-path="url(#37b8e85fc4)"><path style=" stroke:none;fill-rule:nonzero;fill:#180f26;fill-opacity:1;" d="M 311.25 228.113281 L 281.390625 218.40625 L 311.761719 226.363281 L 311.25 228.113281 "/></g><path style=" stroke:none;fill-rule:nonzero;fill:#180f26;fill-opacity:1;" d="M 280.636719 278.039062 L 240.695312 239.199219 L 281.890625 276.710938 L 280.636719 278.039062 "/><path style=" stroke:none;fill-rule:nonzero;fill:#180f26;fill-opacity:1;" d="M 270.902344 259.136719 L 249.882812 240.585938 L 272.066406 257.726562 L 270.902344 259.136719 "/><path style=" stroke:none;fill-rule:nonzero;fill:#180f26;fill-opacity:1;" d="M 194.242188 304 L 190.753906 259.359375 L 196.054688 303.820312 L 194.242188 304 "/><path style=" stroke:none;fill-rule:nonzero;fill:#180f26;fill-opacity:1;" d="M 185.824219 289.484375 L 184 289.441406 L 185.570312 261.019531 L 185.824219 289.484375 "/><path style=" stroke:none;fill-rule:nonzero;fill:#180f26;fill-opacity:1;" d="M 106.078125 298.957031 L 104.582031 297.910156 L 132.640625 259.371094 L 106.078125 298.957031 "/><path style=" stroke:none;fill-rule:nonzero;fill:#180f26;fill-opacity:1;" d="M 66.160156 254.214844 L 65.28125 252.613281 L 91.566406 239.199219 L 66.160156 254.214844 "/><path style=" stroke:none;fill-rule:nonzero;fill:#180f26;fill-opacity:1;" d="M 95.917969 168.679688 L 63.140625 160.3125 L 63.640625 158.558594 L 95.917969 168.679688 "/><path style=" stroke:none;fill-rule:nonzero;fill:#180f26;fill-opacity:1;" d="M 88.082031 153.285156 L 63.019531 143.179688 L 63.757812 141.511719 L 88.082031 153.285156 "/><path style=" stroke:none;fill-rule:nonzero;fill:#180f26;fill-opacity:1;" d="M 144.335938 129.574219 L 103.585938 76.3125 L 105.050781 75.222656 L 144.335938 129.574219 "/><path style=" stroke:none;fill-rule:evenodd;fill:#edaf33;fill-opacity:1;" d="M 279.996094 123.433594 L 277.597656 116.609375 L 271.15625 116.589844 L 276.113281 112.390625 L 273.714844 105.566406 L 279.179688 109.792969 L 284.136719 105.59375 L 282.554688 112.40625 L 288.015625 116.632812 L 281.578125 116.621094 L 279.996094 123.433594 "/><path style=" stroke:none;fill-rule:nonzero;fill:#000000;fill-opacity:1;" d="M 279.992188 123.355469 C 280.222656 122.234375 280.464844 121.117188 280.707031 120 C 280.949219 118.855469 281.203125 117.714844 281.453125 116.574219 L 281.472656 116.476562 L 281.570312 116.476562 L 284.785156 116.445312 L 288.003906 116.425781 L 287.917969 116.804688 L 285.171875 114.710938 L 282.4375 112.605469 L 282.304688 112.5 L 282.339844 112.332031 L 283.125 108.921875 L 283.925781 105.515625 L 284.273438 105.789062 C 283.445312 106.484375 282.621094 107.183594 281.785156 107.875 C 280.953125 108.566406 280.121094 109.261719 279.289062 109.945312 L 279.191406 110.023438 L 279.085938 109.945312 L 273.636719 105.695312 L 273.847656 105.515625 L 276.226562 112.347656 L 276.253906 112.441406 L 276.191406 112.496094 L 271.210938 116.671875 L 271.152344 116.492188 L 277.59375 116.546875 L 277.632812 116.546875 L 277.648438 116.589844 Z M 280 123.507812 L 277.546875 116.628906 L 277.601562 116.667969 L 271.164062 116.691406 L 270.890625 116.691406 L 271.097656 116.511719 L 276.035156 112.28125 L 276.003906 112.429688 L 273.578125 105.613281 L 273.414062 105.144531 L 273.792969 105.433594 L 279.269531 109.640625 L 279.070312 109.640625 C 279.882812 108.925781 280.707031 108.21875 281.527344 107.511719 C 282.347656 106.800781 283.171875 106.101562 283.996094 105.394531 L 284.507812 104.957031 L 284.34375 105.667969 L 283.5625 109.078125 L 282.765625 112.484375 L 282.667969 112.210938 L 285.398438 114.328125 L 288.117188 116.464844 L 288.609375 116.851562 L 288.03125 116.84375 L 284.808594 116.8125 L 281.585938 116.761719 L 281.703125 116.664062 C 281.421875 117.792969 281.152344 118.925781 280.867188 120.054688 C 280.582031 121.183594 280.304688 122.3125 280.015625 123.441406 L 280 123.507812 "/><path style=" stroke:none;fill-rule:evenodd;fill:#edaf33;fill-opacity:1;" d="M 118.878906 123.769531 L 112.117188 126.34375 L 112.265625 132.78125 L 107.9375 127.933594 L 101.175781 130.507812 L 105.261719 124.941406 L 100.933594 120.089844 L 107.789062 121.496094 L 111.875 115.921875 L 112.023438 122.363281 L 118.878906 123.769531 "/><path style=" stroke:none;fill-rule:nonzero;fill:#000000;fill-opacity:1;" d="M 118.800781 123.777344 C 117.671875 123.570312 116.550781 123.355469 115.421875 123.148438 C 114.273438 122.933594 113.128906 122.707031 111.984375 122.488281 L 111.886719 122.472656 L 111.882812 122.375 L 111.765625 119.160156 L 111.664062 115.945312 L 112.046875 116.023438 L 110.027344 118.816406 L 107.988281 121.609375 L 107.886719 121.746094 L 107.71875 121.710938 L 104.289062 121.015625 L 100.863281 120.304688 L 101.125 119.945312 C 101.84375 120.757812 102.566406 121.566406 103.277344 122.378906 C 103.988281 123.195312 104.703125 124.007812 105.414062 124.824219 L 105.496094 124.921875 L 105.417969 125.027344 L 101.304688 130.582031 L 101.125 130.375 L 107.894531 127.824219 L 107.988281 127.789062 L 108.042969 127.855469 L 112.34375 132.722656 L 112.167969 132.789062 L 112.054688 126.347656 L 112.054688 126.308594 L 112.097656 126.292969 Z M 118.953125 123.761719 L 112.136719 126.394531 L 112.179688 126.335938 L 112.363281 132.773438 L 112.371094 133.046875 L 112.1875 132.839844 L 107.832031 128.011719 L 107.980469 128.042969 L 101.226562 130.644531 L 100.765625 130.820312 L 101.042969 130.4375 L 105.105469 124.851562 L 105.113281 125.050781 C 104.375 124.253906 103.648438 123.449219 102.917969 122.648438 C 102.1875 121.851562 101.46875 121.039062 100.742188 120.234375 L 100.289062 119.734375 L 101.003906 119.878906 L 104.433594 120.574219 L 107.859375 121.28125 L 107.589844 121.382812 L 109.636719 118.601562 L 111.699219 115.828125 L 112.078125 115.328125 L 112.082031 115.90625 L 112.132812 119.128906 L 112.167969 122.351562 L 112.066406 122.238281 C 113.203125 122.488281 114.339844 122.730469 115.476562 122.988281 C 116.613281 123.238281 117.75 123.488281 118.886719 123.75 L 118.953125 123.761719 "/><path style=" stroke:none;fill-rule:evenodd;fill:#edaf33;fill-opacity:1;" d="M 86.074219 256.785156 L 84.796875 265.839844 L 92.019531 269.605469 L 84.007812 271.441406 L 82.730469 280.5 L 79.058594 272.574219 L 71.046875 274.40625 L 76.785156 267.675781 L 73.113281 259.75 L 80.332031 263.515625 L 86.074219 256.785156 "/><path style=" stroke:none;fill-rule:nonzero;fill:#000000;fill-opacity:1;" d="M 86.03125 256.875 C 85.117188 257.996094 84.199219 259.109375 83.277344 260.226562 C 82.335938 261.371094 81.390625 262.5 80.445312 263.636719 L 80.367188 263.734375 L 80.261719 263.679688 L 76.628906 261.847656 L 73.003906 259.992188 L 73.324219 259.621094 L 75.1875 263.566406 L 77.03125 267.523438 L 77.125 267.714844 L 76.980469 267.886719 L 74.117188 271.257812 L 71.238281 274.617188 L 71.003906 274.105469 C 72.339844 273.808594 73.675781 273.5 75.011719 273.214844 C 76.347656 272.917969 77.683594 272.621094 79.023438 272.339844 L 79.179688 272.304688 L 79.246094 272.457031 L 82.894531 280.398438 L 82.550781 280.476562 L 83.859375 271.421875 L 83.878906 271.300781 L 83.984375 271.273438 L 92 269.484375 L 91.964844 269.71875 L 84.765625 265.914062 L 84.722656 265.890625 L 84.726562 265.832031 Z M 86.109375 256.699219 L 84.867188 265.851562 L 84.828125 265.769531 L 92.070312 269.492188 L 92.375 269.648438 L 92.035156 269.730469 L 84.03125 271.605469 L 84.15625 271.460938 L 82.910156 280.523438 L 82.824219 281.144531 L 82.570312 280.597656 L 78.863281 272.691406 L 79.089844 272.808594 C 77.757812 273.136719 76.425781 273.449219 75.089844 273.769531 C 73.757812 274.09375 72.421875 274.394531 71.089844 274.707031 L 70.257812 274.902344 L 70.855469 274.203125 L 73.714844 270.828125 L 76.589844 267.46875 L 76.539062 267.828125 L 74.710938 263.863281 L 72.898438 259.882812 L 72.570312 259.160156 L 73.21875 259.503906 L 76.820312 261.417969 L 80.40625 263.351562 L 80.21875 263.394531 C 81.1875 262.285156 82.152344 261.171875 83.132812 260.070312 C 84.101562 258.964844 85.074219 257.859375 86.054688 256.761719 L 86.109375 256.699219 "/><path style=" stroke:none;fill-rule:evenodd;fill:#edaf33;fill-opacity:1;" d="M 107.378906 265.914062 L 107.3125 270.105469 L 110.8125 271.40625 L 107.277344 272.699219 L 107.210938 276.886719 L 105.089844 273.492188 L 101.550781 274.785156 L 103.777344 271.394531 L 101.65625 268 L 105.152344 269.300781 L 107.378906 265.914062 "/><path style=" stroke:none;fill-rule:nonzero;fill:#000000;fill-opacity:1;" d="M 107.367188 265.957031 C 107.015625 266.519531 106.65625 267.078125 106.304688 267.640625 C 105.941406 268.214844 105.574219 268.777344 105.210938 269.351562 L 105.179688 269.398438 L 105.128906 269.378906 L 103.375 268.753906 L 101.621094 268.117188 L 101.742188 267.929688 L 102.816406 269.617188 L 103.878906 271.3125 L 103.933594 271.394531 L 103.878906 271.480469 L 102.769531 273.175781 L 101.652344 274.863281 L 101.515625 274.648438 C 102.105469 274.4375 102.695312 274.222656 103.285156 274.015625 C 103.878906 273.800781 104.46875 273.59375 105.0625 273.390625 L 105.128906 273.367188 L 105.167969 273.429688 L 107.277344 276.832031 L 107.128906 276.886719 L 107.207031 272.695312 L 107.207031 272.636719 L 107.253906 272.625 L 110.796875 271.351562 L 110.796875 271.460938 L 107.304688 270.140625 L 107.28125 270.132812 L 107.28125 270.105469 Z M 107.390625 265.871094 L 107.347656 270.105469 L 107.324219 270.070312 L 110.828125 271.351562 L 110.976562 271.40625 L 110.828125 271.460938 L 107.296875 272.769531 L 107.34375 272.699219 L 107.296875 276.886719 L 107.289062 277.175781 L 107.144531 276.941406 L 105.007812 273.558594 L 105.117188 273.597656 C 104.53125 273.820312 103.941406 274.042969 103.355469 274.265625 C 102.769531 274.484375 102.175781 274.699219 101.589844 274.917969 L 101.21875 275.054688 L 101.453125 274.699219 L 102.5625 273.003906 L 103.679688 271.3125 L 103.675781 271.476562 L 102.617188 269.78125 L 101.566406 268.074219 L 101.375 267.765625 L 101.691406 267.886719 L 103.433594 268.546875 L 105.175781 269.222656 L 105.09375 269.253906 C 105.472656 268.695312 105.847656 268.132812 106.226562 267.578125 C 106.609375 267.019531 106.984375 266.460938 107.367188 265.90625 L 107.390625 265.871094 "/><g style="fill:#000000;fill-opacity:1;"><g transform="translate(87.596805, 210.735133)"><path style="stroke:none" d="M 32.671875 -48.3125 L 33.296875 -48.15625 L 33.636719 -47.953125 C 34.835938 -47.234375 35.882812 -46.421875 36.785156 -45.523438 C 37.621094 -44.6875 38.386719 -43.804688 39.089844 -42.878906 C 39.871094 -41.84375 40.488281 -40.722656 40.945312 -39.511719 L 38.457031 -38.578125 L 40.910156 -39.59375 C 41.925781 -37.132812 42.003906 -34.554688 41.136719 -31.855469 C 40.351562 -29.40625 38.777344 -26.886719 36.414062 -24.296875 C 34.46875 -22.171875 32.277344 -20.355469 29.84375 -18.851562 L 28.449219 -21.109375 L 29.992188 -23.269531 C 30.359375 -23.007812 30.679688 -22.828125 30.957031 -22.726562 C 31.589844 -22.5 32.429688 -22.101562 33.476562 -21.53125 C 35.132812 -20.632812 36.183594 -19.078125 36.632812 -16.875 C 36.992188 -15.09375 36.914062 -13.140625 36.394531 -11.015625 C 35.90625 -9.015625 35.035156 -6.976562 33.785156 -4.90625 C 32.515625 -2.804688 30.871094 -0.929688 28.855469 0.71875 C 24.253906 4.539062 18.914062 6.152344 12.84375 5.554688 L 13.101562 2.910156 L 13.101562 5.566406 C 11.84375 5.566406 10.902344 5.378906 10.28125 5.003906 C 10.042969 4.863281 9.84375 4.738281 9.6875 4.632812 C 9.898438 4.773438 10.09375 4.863281 10.277344 4.90625 C 10.253906 4.902344 10.199219 4.894531 10.109375 4.886719 L 10.371094 2.246094 L 12.03125 4.316406 C 10.652344 5.417969 9.082031 6.109375 7.324219 6.382812 C 5.589844 6.652344 3.9375 6.511719 2.367188 5.960938 C 0.742188 5.390625 -0.621094 4.425781 -1.726562 3.070312 C -2.910156 1.609375 -3.503906 -0.222656 -3.503906 -2.425781 L -3.503906 -2.578125 L -3.484375 -2.730469 C -3.332031 -4.066406 -3.050781 -5.167969 -2.648438 -6.035156 L -0.242188 -4.914062 L -2.761719 -4.074219 C -2.972656 -4.710938 -3.078125 -5.433594 -3.078125 -6.246094 L -3.078125 -6.496094 L -3.03125 -6.738281 C -1.640625 -14.160156 -0.320312 -19.859375 0.925781 -23.84375 C 3.480469 -31.851562 6.28125 -37.933594 9.324219 -42.089844 C 12.039062 -45.929688 15.808594 -48.414062 20.628906 -49.535156 C 25.289062 -50.617188 29.511719 -50.128906 33.296875 -48.070312 L 32.027344 -45.738281 Z M 31.386719 -43.164062 L 31.058594 -43.246094 L 30.757812 -43.40625 C 28.15625 -44.824219 25.179688 -45.144531 21.832031 -44.367188 C 18.324219 -43.546875 15.582031 -41.742188 13.605469 -38.953125 C 10.90625 -35.261719 8.367188 -29.699219 5.992188 -22.257812 C 4.808594 -18.476562 3.539062 -12.976562 2.183594 -5.757812 L -0.425781 -6.246094 L 2.230469 -6.246094 C 2.230469 -6.007812 2.246094 -5.84375 2.273438 -5.753906 L 2.609375 -4.75 L 2.164062 -3.792969 C 2 -3.445312 1.875 -2.886719 1.789062 -2.121094 L -0.847656 -2.425781 L 1.804688 -2.425781 C 1.804688 -1.476562 2 -0.761719 2.394531 -0.277344 C 2.867188 0.304688 3.445312 0.714844 4.125 0.953125 C 4.855469 1.210938 5.652344 1.273438 6.503906 1.140625 C 7.335938 1.007812 8.070312 0.6875 8.714844 0.171875 L 9.558594 -0.503906 L 10.636719 -0.394531 C 11.480469 -0.3125 12.144531 -0.105469 12.632812 0.21875 C 12.71875 0.277344 12.847656 0.355469 13.011719 0.453125 C 12.847656 0.355469 12.6875 0.285156 12.53125 0.242188 C 12.507812 0.238281 12.488281 0.234375 12.472656 0.230469 C 12.472656 0.230469 12.480469 0.230469 12.492188 0.234375 C 12.625 0.25 12.828125 0.257812 13.101562 0.257812 L 13.234375 0.257812 L 13.363281 0.269531 C 17.964844 0.722656 22.011719 -0.496094 25.496094 -3.386719 C 27.039062 -4.652344 28.289062 -6.070312 29.242188 -7.652344 C 30.214844 -9.257812 30.878906 -10.800781 31.238281 -12.277344 C 31.570312 -13.632812 31.632812 -14.8125 31.429688 -15.820312 C 31.308594 -16.40625 31.148438 -16.753906 30.941406 -16.867188 C 30.132812 -17.308594 29.535156 -17.597656 29.15625 -17.734375 C 28.421875 -17.996094 27.671875 -18.402344 26.90625 -18.949219 L 23.660156 -21.269531 L 27.054688 -23.367188 C 29.070312 -24.613281 30.882812 -26.113281 32.496094 -27.871094 C 35.941406 -31.652344 37.113281 -34.882812 36.003906 -37.566406 L 35.988281 -37.605469 L 35.972656 -37.648438 C 35.699219 -38.378906 35.328125 -39.054688 34.855469 -39.679688 C 34.300781 -40.410156 33.695312 -41.105469 33.035156 -41.769531 C 32.4375 -42.363281 31.730469 -42.90625 30.90625 -43.402344 L 32.269531 -45.675781 L 31.628906 -43.101562 Z M 12.519531 -5.972656 C 13.371094 -6.183594 14.152344 -6.226562 14.867188 -6.101562 C 14.914062 -6.09375 15.027344 -6.105469 15.214844 -6.136719 L 15.296875 -6.148438 L 15.378906 -6.15625 C 16.109375 -6.234375 17.285156 -6.816406 18.898438 -7.902344 L 20.382812 -5.703125 L 18.503906 -7.578125 C 19.289062 -8.363281 19.699219 -9.027344 19.734375 -9.578125 C 19.757812 -9.921875 19.753906 -10.160156 19.722656 -10.292969 C 19.734375 -10.242188 19.761719 -10.179688 19.804688 -10.105469 C 19.902344 -9.929688 20.039062 -9.773438 20.214844 -9.636719 C 20.257812 -9.601562 20.296875 -9.582031 20.320312 -9.574219 C 20.261719 -9.589844 20.171875 -9.597656 20.046875 -9.597656 C 19.511719 -9.597656 18.894531 -9.511719 18.191406 -9.339844 C 17.117188 -9.078125 16.066406 -8.921875 15.046875 -8.875 L 14.921875 -11.527344 L 17.578125 -11.527344 L 17.578125 -11.078125 L 17.496094 -10.761719 C 17.277344 -9.886719 17.058594 -9.113281 16.832031 -8.441406 C 16.644531 -7.871094 16.472656 -7.320312 16.320312 -6.792969 C 15.992188 -5.585938 15.734375 -4.328125 15.546875 -3.023438 L 12.921875 -3.398438 L 12.921875 -6.050781 L 13.164062 -6.050781 L 13.164062 -3.398438 Z M 13.488281 -0.742188 L 9.859375 -0.742188 L 10.292969 -3.773438 C 10.511719 -5.296875 10.820312 -6.789062 11.21875 -8.25 C 11.390625 -8.855469 11.582031 -9.476562 11.796875 -10.121094 C 11.980469 -10.664062 12.160156 -11.304688 12.347656 -12.046875 L 14.921875 -11.402344 L 12.269531 -11.402344 L 12.269531 -14.054688 L 14.796875 -14.175781 C 15.476562 -14.207031 16.1875 -14.316406 16.929688 -14.496094 C 18.046875 -14.769531 19.085938 -14.90625 20.046875 -14.90625 C 21.398438 -14.90625 22.539062 -14.550781 23.460938 -13.835938 C 24.652344 -12.917969 25.175781 -11.378906 25.03125 -9.226562 C 24.90625 -7.347656 23.980469 -5.550781 22.257812 -3.824219 L 22.078125 -3.644531 L 21.863281 -3.5 C 19.515625 -1.917969 17.535156 -1.046875 15.921875 -0.878906 L 15.648438 -3.519531 L 16.085938 -0.902344 C 15.300781 -0.769531 14.589844 -0.761719 13.945312 -0.875 C 13.992188 -0.867188 14.019531 -0.863281 14.03125 -0.863281 C 13.976562 -0.859375 13.902344 -0.847656 13.808594 -0.820312 Z M 24.09375 -32.308594 C 24.179688 -32.296875 24.25 -32.300781 24.308594 -32.320312 C 24.265625 -32.308594 24.199219 -32.265625 24.105469 -32.199219 C 23.695312 -31.902344 23.226562 -31.367188 22.691406 -30.585938 C 22.015625 -29.601562 21.46875 -27.980469 21.050781 -25.722656 L 18.441406 -26.207031 L 17.394531 -28.644531 C 18.324219 -29.042969 19.246094 -29.386719 20.15625 -29.675781 C 20.890625 -29.910156 21.578125 -30.167969 22.214844 -30.449219 C 23.554688 -31.027344 24.464844 -31.660156 24.945312 -32.34375 L 25.011719 -32.4375 L 25.089844 -32.53125 C 25.304688 -32.785156 25.429688 -32.96875 25.464844 -33.074219 C 25.402344 -32.878906 25.429688 -32.65625 25.539062 -32.40625 L 27.964844 -33.484375 L 25.839844 -31.890625 C 25.613281 -32.195312 25.148438 -32.515625 24.445312 -32.851562 L 25.597656 -35.242188 L 27.347656 -33.246094 C 26.378906 -32.402344 25.253906 -32.09375 23.972656 -32.328125 L 24.445312 -34.941406 Z M 24.796875 -37.570312 L 24.859375 -37.5625 L 24.921875 -37.550781 C 24.757812 -37.582031 24.582031 -37.570312 24.390625 -37.523438 C 24.183594 -37.464844 24 -37.371094 23.851562 -37.242188 L 25.171875 -38.394531 L 26.75 -37.632812 C 28.230469 -36.921875 29.34375 -36.070312 30.085938 -35.078125 L 30.265625 -34.835938 L 30.390625 -34.5625 C 30.824219 -33.582031 30.867188 -32.550781 30.523438 -31.464844 C 30.273438 -30.683594 29.8125 -29.894531 29.140625 -29.101562 L 27.113281 -30.816406 L 29.285156 -29.289062 C 28.230469 -27.789062 26.589844 -26.558594 24.371094 -25.601562 C 23.554688 -25.234375 22.683594 -24.90625 21.761719 -24.617188 C 21.015625 -24.378906 20.253906 -24.09375 19.484375 -23.765625 L 14.929688 -21.8125 L 15.832031 -26.6875 C 16.382812 -29.6875 17.210938 -31.988281 18.316406 -33.589844 C 20.34375 -36.550781 22.507812 -37.875 24.796875 -37.570312 Z M 23.535156 -37.835938 L 23.71875 -37.835938 L 23.71875 -32.527344 L 23.535156 -32.527344 Z M 23.535156 -32.527344 L 23.535156 -37.835938 L 23.71875 -37.835938 L 23.71875 -32.527344 Z M 23.535156 -32.527344 "/></g></g><g style="fill:#000000;fill-opacity:1;"><g transform="translate(123.080675, 210.735133)"><path style="stroke:none" d="M 10.316406 -41.90625 C 13.238281 -45.246094 16.535156 -47.34375 20.203125 -48.199219 C 22.847656 -48.847656 25.371094 -48.738281 27.773438 -47.871094 L 26.871094 -45.375 L 24.945312 -47.199219 C 26.023438 -48.335938 27.277344 -49.113281 28.707031 -49.527344 C 30.082031 -49.929688 31.574219 -49.980469 33.183594 -49.679688 C 36.046875 -49.152344 38.453125 -47.578125 40.40625 -44.957031 L 40.695312 -44.566406 L 40.828125 -44.101562 C 40.871094 -43.953125 40.996094 -43.65625 41.199219 -43.214844 C 41.496094 -42.574219 41.78125 -41.867188 42.054688 -41.101562 L 39.550781 -40.21875 L 41.988281 -41.269531 C 43.992188 -36.617188 44.1875 -30.65625 42.566406 -23.382812 C 40.613281 -14.640625 37.140625 -7.21875 32.140625 -1.109375 C 30.507812 0.886719 28.664062 2.542969 26.613281 3.867188 L 25.175781 1.636719 L 26.785156 3.746094 C 23.351562 6.371094 19.28125 7.542969 14.582031 7.257812 C 11.605469 7.117188 9.066406 6.339844 6.960938 4.9375 L 8.433594 2.730469 L 7.25 5.105469 C 3.199219 3.09375 0.511719 -0.0195312 -0.816406 -4.238281 C -2.0625 -8.1875 -2.046875 -13.050781 -0.773438 -18.832031 C 1.265625 -28.003906 4.957031 -35.6875 10.304688 -41.890625 Z M 14.324219 -38.425781 C 9.558594 -32.898438 6.253906 -25.984375 4.410156 -17.6875 C 3.339844 -12.832031 3.285156 -8.878906 4.246094 -5.832031 C 5.121094 -3.050781 6.910156 -0.988281 9.613281 0.351562 L 9.765625 0.429688 L 9.902344 0.519531 C 11.195312 1.382812 12.859375 1.863281 14.898438 1.960938 C 18.285156 2.164062 21.175781 1.351562 23.5625 -0.472656 L 23.648438 -0.535156 L 23.734375 -0.59375 C 25.320312 -1.613281 26.753906 -2.90625 28.035156 -4.472656 C 32.5 -9.929688 35.617188 -16.617188 37.382812 -24.539062 C 38.757812 -30.691406 38.664062 -35.566406 37.113281 -39.167969 L 37.078125 -39.25 L 37.046875 -39.335938 C 36.832031 -39.941406 36.613281 -40.492188 36.386719 -40.980469 C 36.0625 -41.671875 35.84375 -42.226562 35.726562 -42.644531 L 38.277344 -43.371094 L 36.148438 -41.785156 C 35.027344 -43.292969 33.714844 -44.183594 32.210938 -44.464844 C 31.429688 -44.609375 30.757812 -44.597656 30.195312 -44.433594 C 29.683594 -44.285156 29.214844 -43.988281 28.796875 -43.546875 L 27.601562 -42.289062 L 25.96875 -42.878906 C 24.574219 -43.382812 23.050781 -43.433594 21.410156 -43.03125 C 18.851562 -42.433594 16.484375 -40.894531 14.3125 -38.410156 Z M 15.660156 -7.511719 L 15.597656 -7.144531 L 12.980469 -7.582031 L 15.59375 -8.058594 L 15.714844 -7.390625 C 15.863281 -6.609375 16.074219 -6.066406 16.339844 -5.75 C 16.542969 -5.511719 16.714844 -5.328125 16.855469 -5.203125 C 16.890625 -5.171875 16.917969 -5.148438 16.933594 -5.136719 C 16.898438 -5.160156 16.851562 -5.1875 16.789062 -5.214844 L 15.710938 -2.789062 L 14.054688 -4.863281 C 14.5 -5.222656 14.953125 -5.558594 15.402344 -5.875 C 15.597656 -6.011719 15.777344 -6.183594 15.945312 -6.390625 C 18.46875 -9.511719 20.453125 -13.644531 21.890625 -18.789062 C 23.339844 -23.980469 23.878906 -28.761719 23.5 -33.136719 L 26.144531 -33.363281 L 28.238281 -31.730469 C 26.703125 -29.761719 25.085938 -27.492188 23.382812 -24.921875 C 21.6875 -22.359375 20.351562 -20.179688 19.378906 -18.386719 C 17.242188 -14.378906 16.007812 -10.804688 15.679688 -7.671875 L 15.671875 -7.589844 Z M 10.425781 -8.382812 L 13.042969 -7.945312 L 10.402344 -8.222656 C 10.800781 -12.042969 12.238281 -16.277344 14.714844 -20.921875 C 15.761719 -22.847656 17.175781 -25.160156 18.957031 -27.851562 C 20.734375 -30.539062 22.433594 -32.917969 24.050781 -34.996094 L 28.207031 -40.324219 L 28.789062 -33.589844 C 29.21875 -28.582031 28.625 -23.171875 27.003906 -17.363281 C 25.367188 -11.511719 23.0625 -6.746094 20.089844 -3.074219 C 19.605469 -2.472656 19.058594 -1.953125 18.445312 -1.527344 C 18.089844 -1.277344 17.730469 -1.007812 17.367188 -0.71875 L 16.109375 0.289062 L 14.632812 -0.363281 C 13.898438 -0.691406 13.121094 -1.339844 12.292969 -2.316406 C 11.425781 -3.335938 10.824219 -4.710938 10.492188 -6.441406 L 10.289062 -7.5625 Z M 10.425781 -8.382812 "/></g></g><g style="fill:#000000;fill-opacity:1;"><g transform="translate(161.83998, 210.735133)"><path style="stroke:none" d="M 10.316406 -41.90625 C 13.238281 -45.246094 16.535156 -47.34375 20.203125 -48.199219 C 22.847656 -48.847656 25.371094 -48.738281 27.773438 -47.871094 L 26.871094 -45.375 L 24.945312 -47.199219 C 26.023438 -48.335938 27.277344 -49.113281 28.707031 -49.527344 C 30.082031 -49.929688 31.574219 -49.980469 33.183594 -49.679688 C 36.046875 -49.152344 38.453125 -47.578125 40.40625 -44.957031 L 40.695312 -44.566406 L 40.828125 -44.101562 C 40.871094 -43.953125 40.996094 -43.65625 41.199219 -43.214844 C 41.496094 -42.574219 41.78125 -41.867188 42.054688 -41.101562 L 39.550781 -40.21875 L 41.988281 -41.269531 C 43.992188 -36.617188 44.1875 -30.65625 42.566406 -23.382812 C 40.613281 -14.640625 37.140625 -7.21875 32.140625 -1.109375 C 30.507812 0.886719 28.664062 2.542969 26.613281 3.867188 L 25.175781 1.636719 L 26.785156 3.746094 C 23.351562 6.371094 19.28125 7.542969 14.582031 7.257812 C 11.605469 7.117188 9.066406 6.339844 6.960938 4.9375 L 8.433594 2.730469 L 7.25 5.105469 C 3.199219 3.09375 0.511719 -0.0195312 -0.816406 -4.238281 C -2.0625 -8.1875 -2.046875 -13.050781 -0.773438 -18.832031 C 1.265625 -28.003906 4.957031 -35.6875 10.304688 -41.890625 Z M 14.324219 -38.425781 C 9.558594 -32.898438 6.253906 -25.984375 4.410156 -17.6875 C 3.339844 -12.832031 3.285156 -8.878906 4.246094 -5.832031 C 5.121094 -3.050781 6.910156 -0.988281 9.613281 0.351562 L 9.765625 0.429688 L 9.902344 0.519531 C 11.195312 1.382812 12.859375 1.863281 14.898438 1.960938 C 18.285156 2.164062 21.175781 1.351562 23.5625 -0.472656 L 23.648438 -0.535156 L 23.734375 -0.59375 C 25.320312 -1.613281 26.753906 -2.90625 28.035156 -4.472656 C 32.5 -9.929688 35.617188 -16.617188 37.382812 -24.539062 C 38.757812 -30.691406 38.664062 -35.566406 37.113281 -39.167969 L 37.078125 -39.25 L 37.046875 -39.335938 C 36.832031 -39.941406 36.613281 -40.492188 36.386719 -40.980469 C 36.0625 -41.671875 35.84375 -42.226562 35.726562 -42.644531 L 38.277344 -43.371094 L 36.148438 -41.785156 C 35.027344 -43.292969 33.714844 -44.183594 32.210938 -44.464844 C 31.429688 -44.609375 30.757812 -44.597656 30.195312 -44.433594 C 29.683594 -44.285156 29.214844 -43.988281 28.796875 -43.546875 L 27.601562 -42.289062 L 25.96875 -42.878906 C 24.574219 -43.382812 23.050781 -43.433594 21.410156 -43.03125 C 18.851562 -42.433594 16.484375 -40.894531 14.3125 -38.410156 Z M 15.660156 -7.511719 L 15.597656 -7.144531 L 12.980469 -7.582031 L 15.59375 -8.058594 L 15.714844 -7.390625 C 15.863281 -6.609375 16.074219 -6.066406 16.339844 -5.75 C 16.542969 -5.511719 16.714844 -5.328125 16.855469 -5.203125 C 16.890625 -5.171875 16.917969 -5.148438 16.933594 -5.136719 C 16.898438 -5.160156 16.851562 -5.1875 16.789062 -5.214844 L 15.710938 -2.789062 L 14.054688 -4.863281 C 14.5 -5.222656 14.953125 -5.558594 15.402344 -5.875 C 15.597656 -6.011719 15.777344 -6.183594 15.945312 -6.390625 C 18.46875 -9.511719 20.453125 -13.644531 21.890625 -18.789062 C 23.339844 -23.980469 23.878906 -28.761719 23.5 -33.136719 L 26.144531 -33.363281 L 28.238281 -31.730469 C 26.703125 -29.761719 25.085938 -27.492188 23.382812 -24.921875 C 21.6875 -22.359375 20.351562 -20.179688 19.378906 -18.386719 C 17.242188 -14.378906 16.007812 -10.804688 15.679688 -7.671875 L 15.671875 -7.589844 Z M 10.425781 -8.382812 L 13.042969 -7.945312 L 10.402344 -8.222656 C 10.800781 -12.042969 12.238281 -16.277344 14.714844 -20.921875 C 15.761719 -22.847656 17.175781 -25.160156 18.957031 -27.851562 C 20.734375 -30.539062 22.433594 -32.917969 24.050781 -34.996094 L 28.207031 -40.324219 L 28.789062 -33.589844 C 29.21875 -28.582031 28.625 -23.171875 27.003906 -17.363281 C 25.367188 -11.511719 23.0625 -6.746094 20.089844 -3.074219 C 19.605469 -2.472656 19.058594 -1.953125 18.445312 -1.527344 C 18.089844 -1.277344 17.730469 -1.007812 17.367188 -0.71875 L 16.109375 0.289062 L 14.632812 -0.363281 C 13.898438 -0.691406 13.121094 -1.339844 12.292969 -2.316406 C 11.425781 -3.335938 10.824219 -4.710938 10.492188 -6.441406 L 10.289062 -7.5625 Z M 10.425781 -8.382812 "/></g></g><g style="fill:#000000;fill-opacity:1;"><g transform="translate(200.599285, 210.735133)"><path style="stroke:none" d="M 26.328125 -45.203125 C 26.808594 -43.910156 27.078125 -42.972656 27.144531 -42.390625 C 27.234375 -41.53125 27.117188 -40.726562 26.785156 -39.972656 C 26.472656 -39.257812 25.988281 -38.628906 25.332031 -38.097656 L 23.65625 -40.15625 L 26.3125 -40.15625 C 26.3125 -39.382812 26.011719 -38.699219 25.414062 -38.097656 L 23.535156 -39.976562 L 26.144531 -40.472656 C 26.558594 -38.300781 26.648438 -36.25 26.414062 -34.316406 C 26.203125 -32.582031 25.925781 -30.910156 25.585938 -29.296875 L 22.988281 -29.84375 L 20.703125 -31.1875 C 22.933594 -34.992188 24.726562 -37.800781 26.078125 -39.617188 C 28.929688 -43.460938 31.632812 -46.238281 34.195312 -47.945312 L 34.265625 -47.992188 L 34.339844 -48.035156 C 35.359375 -48.625 36.570312 -49.0625 37.96875 -49.339844 C 39.390625 -49.625 40.765625 -49.664062 42.09375 -49.449219 C 43.65625 -49.199219 44.96875 -48.558594 46.039062 -47.523438 C 47.289062 -46.308594 47.851562 -44.644531 47.71875 -42.539062 L 47.710938 -42.433594 L 47.699219 -42.328125 C 46.558594 -34.402344 45.339844 -27.011719 44.039062 -20.160156 C 42.722656 -13.230469 41.015625 -6.613281 38.914062 -0.3125 L 36.394531 -1.152344 L 39.050781 -1.152344 L 39.050781 1.621094 L 36.335938 1.621094 L 36.335938 -1.03125 L 38.851562 -0.191406 C 38.082031 2.121094 36.292969 3.71875 33.488281 4.59375 C 31.035156 5.324219 28.800781 5.363281 26.78125 4.707031 L 27.601562 2.183594 L 26.863281 4.734375 C 25.445312 4.324219 24.355469 3.675781 23.59375 2.785156 C 22.679688 1.714844 22.308594 0.441406 22.476562 -1.027344 L 25.113281 -0.726562 L 22.460938 -0.84375 L 22.523438 -2.238281 L 25.175781 -2.125 L 22.519531 -2.125 L 22.519531 -2.464844 L 22.554688 -2.679688 C 22.703125 -3.558594 22.78125 -4.121094 22.796875 -4.371094 C 22.828125 -4.878906 22.882812 -5.296875 22.964844 -5.617188 L 25.539062 -4.972656 L 22.890625 -5.175781 C 22.988281 -6.410156 23.191406 -7.570312 23.503906 -8.652344 C 23.75 -9.503906 23.925781 -10.179688 24.035156 -10.6875 C 24.160156 -11.273438 24.285156 -11.832031 24.414062 -12.355469 C 24.515625 -12.78125 24.582031 -13.09375 24.609375 -13.296875 L 27.238281 -12.921875 L 29.378906 -11.355469 C 27.664062 -9.007812 26.359375 -7.527344 25.464844 -6.910156 C 23.371094 -5.445312 20.957031 -4.765625 18.21875 -4.871094 L 18.160156 -4.871094 C 15.6875 -5.023438 14.148438 -5.890625 13.539062 -7.480469 L 13.527344 -7.507812 L 13.515625 -7.539062 C 13.328125 -8.058594 13.175781 -8.457031 13.054688 -8.746094 C 13.007812 -8.851562 12.972656 -8.933594 12.945312 -8.984375 C 12.972656 -8.933594 13.019531 -8.863281 13.09375 -8.777344 L 13.066406 -8.808594 L 13.042969 -8.839844 C 12.5625 -9.476562 12.203125 -10.371094 11.960938 -11.523438 L 14.558594 -12.070312 L 17.148438 -11.484375 C 16.046875 -6.613281 14.933594 -3.101562 13.820312 -0.957031 C 13.367188 -0.101562 12.914062 0.667969 12.460938 1.351562 L 10.25 -0.121094 L 12.695312 0.914062 C 11.789062 3.050781 9.902344 4.492188 7.039062 5.238281 C 4.628906 5.902344 2.296875 5.84375 0.0351562 5.054688 L 0.910156 2.546875 L 0.105469 5.078125 C -1.273438 4.636719 -2.339844 3.96875 -3.09375 3.070312 C -3.96875 2.03125 -4.367188 0.796875 -4.289062 -0.632812 C -4.199219 -2.238281 -3.882812 -4.21875 -3.34375 -6.566406 C -2.832031 -8.8125 -2.222656 -11.1875 -1.523438 -13.695312 C 0.554688 -21.558594 2.042969 -26.703125 2.941406 -29.128906 C 3.832031 -31.535156 4.59375 -33.433594 5.226562 -34.824219 C 6.78125 -38.148438 8.1875 -40.597656 9.453125 -42.179688 L 11.527344 -40.519531 L 9.144531 -41.691406 C 9.960938 -43.351562 11.0625 -44.695312 12.453125 -45.71875 C 13.824219 -46.734375 15.441406 -47.40625 17.300781 -47.742188 C 20.238281 -48.308594 22.859375 -47.921875 25.171875 -46.574219 L 25.996094 -46.097656 Z M 21.351562 -43.359375 L 23.839844 -44.28125 L 22.503906 -41.988281 C 21.339844 -42.664062 19.917969 -42.84375 18.246094 -42.519531 C 17.195312 -42.328125 16.3125 -41.972656 15.601562 -41.449219 C 14.910156 -40.9375 14.34375 -40.238281 13.90625 -39.347656 L 13.777344 -39.089844 L 13.597656 -38.863281 C 12.597656 -37.613281 11.417969 -35.535156 10.058594 -32.628906 C 9.480469 -31.351562 8.765625 -29.570312 7.917969 -27.285156 C 7.078125 -25.019531 5.632812 -20.015625 3.585938 -12.269531 C 2.910156 -9.839844 2.324219 -7.546875 1.828125 -5.382812 C 1.355469 -3.324219 1.085938 -1.644531 1.011719 -0.339844 C 1.011719 -0.304688 1.011719 -0.277344 1.011719 -0.257812 L 1.011719 -0.265625 C 1 -0.296875 0.988281 -0.324219 0.96875 -0.34375 C 1.066406 -0.230469 1.3125 -0.109375 1.714844 0.0195312 L 1.785156 0.0429688 C 3 0.464844 4.308594 0.484375 5.703125 0.101562 C 6.878906 -0.207031 7.582031 -0.625 7.808594 -1.15625 L 7.90625 -1.386719 L 8.042969 -1.59375 C 8.398438 -2.125 8.753906 -2.730469 9.109375 -3.410156 C 10.015625 -5.148438 10.96875 -8.230469 11.96875 -12.65625 L 17.15625 -12.617188 C 17.210938 -12.363281 17.265625 -12.15625 17.320312 -12.007812 C 17.335938 -11.96875 17.34375 -11.941406 17.351562 -11.925781 C 17.339844 -11.953125 17.316406 -11.984375 17.289062 -12.027344 L 15.164062 -10.433594 L 17.238281 -12.089844 C 17.585938 -11.65625 18.007812 -10.734375 18.511719 -9.324219 L 16.015625 -8.433594 L 18.492188 -9.382812 C 18.378906 -9.671875 18.214844 -9.910156 17.996094 -10.097656 C 17.890625 -10.183594 17.800781 -10.246094 17.714844 -10.277344 C 17.839844 -10.230469 18.09375 -10.195312 18.480469 -10.171875 L 18.320312 -7.523438 L 18.417969 -10.175781 C 19.96875 -10.117188 21.3125 -10.484375 22.457031 -11.285156 C 22.589844 -11.378906 22.855469 -11.652344 23.25 -12.113281 C 23.75 -12.699219 24.367188 -13.492188 25.09375 -14.488281 L 29.863281 -12.546875 C 29.8125 -12.179688 29.714844 -11.703125 29.574219 -11.117188 C 29.457031 -10.632812 29.339844 -10.121094 29.226562 -9.574219 C 29.089844 -8.949219 28.882812 -8.148438 28.601562 -7.179688 C 28.390625 -6.445312 28.25 -5.640625 28.183594 -4.769531 L 28.167969 -4.546875 L 28.113281 -4.332031 C 28.117188 -4.355469 28.125 -4.375 28.125 -4.390625 C 28.125 -4.378906 28.121094 -4.367188 28.121094 -4.347656 C 28.109375 -4.273438 28.101562 -4.179688 28.097656 -4.058594 C 28.070312 -3.621094 27.96875 -2.871094 27.792969 -1.808594 L 25.175781 -2.246094 L 27.828125 -2.246094 L 27.828125 -2.066406 L 27.761719 -0.519531 L 27.75 -0.425781 C 27.746094 -0.40625 27.746094 -0.398438 27.746094 -0.390625 C 27.746094 -0.414062 27.742188 -0.4375 27.734375 -0.464844 C 27.710938 -0.542969 27.679688 -0.609375 27.632812 -0.664062 L 27.625 -0.667969 C 27.652344 -0.648438 27.683594 -0.628906 27.726562 -0.605469 C 27.878906 -0.519531 28.082031 -0.441406 28.335938 -0.367188 L 28.378906 -0.355469 L 28.417969 -0.339844 C 29.390625 -0.0234375 30.554688 -0.0703125 31.902344 -0.46875 C 32.980469 -0.808594 33.617188 -1.273438 33.816406 -1.871094 L 34.421875 -3.683594 L 36.394531 -3.683594 L 36.394531 -1.03125 L 33.742188 -1.03125 L 33.742188 -1.582031 L 33.878906 -1.992188 C 35.902344 -8.066406 37.550781 -14.453125 38.824219 -21.148438 C 40.109375 -27.925781 41.316406 -35.234375 42.445312 -43.082031 L 45.070312 -42.703125 L 42.421875 -42.871094 C 42.441406 -43.199219 42.425781 -43.453125 42.371094 -43.636719 C 42.359375 -43.671875 42.347656 -43.699219 42.339844 -43.714844 C 42.339844 -43.714844 42.339844 -43.714844 42.34375 -43.710938 C 42.078125 -43.96875 41.714844 -44.136719 41.253906 -44.207031 C 40.558594 -44.320312 39.808594 -44.296875 39.007812 -44.136719 C 38.183594 -43.972656 37.511719 -43.738281 36.996094 -43.441406 L 35.667969 -45.738281 L 37.140625 -43.53125 C 35.089844 -42.164062 32.824219 -39.804688 30.335938 -36.449219 C 29.097656 -34.789062 27.414062 -32.136719 25.277344 -28.5 L 20.394531 -30.390625 C 20.699219 -31.855469 20.953125 -33.375 21.144531 -34.957031 C 21.3125 -36.339844 21.242188 -37.847656 20.929688 -39.476562 L 20.664062 -40.855469 L 21.660156 -41.851562 C 21.574219 -41.769531 21.496094 -41.667969 21.417969 -41.554688 C 21.140625 -41.136719 21.003906 -40.671875 21.003906 -40.15625 L 21.003906 -41.421875 L 21.984375 -42.214844 L 21.996094 -42.222656 C 21.96875 -42.191406 21.945312 -42.148438 21.921875 -42.101562 C 21.878906 -41.996094 21.859375 -41.894531 21.867188 -41.804688 C 21.851562 -41.953125 21.679688 -42.472656 21.351562 -43.359375 Z M 21.351562 -43.359375 "/></g></g><g style="fill:#000000;fill-opacity:1;"><g transform="translate(242.512708, 210.735133)"><path style="stroke:none" d="M 31.089844 -44.574219 C 31.121094 -44.480469 31.144531 -44.421875 31.160156 -44.390625 C 31.105469 -44.492188 31.015625 -44.597656 30.890625 -44.707031 C 31.128906 -44.496094 31.304688 -44.332031 31.417969 -44.21875 C 31.863281 -43.773438 32.136719 -43.242188 32.25 -42.625 C 32.332031 -42.15625 32.308594 -41.683594 32.175781 -41.207031 C 32.03125 -40.691406 31.753906 -40.167969 31.339844 -39.628906 L 29.238281 -41.25 L 31.613281 -40.0625 C 31.199219 -39.234375 30.636719 -38.292969 29.929688 -37.230469 C 28.859375 -35.640625 28.195312 -34.527344 27.941406 -33.894531 L 27.898438 -33.792969 L 27.851562 -33.691406 C 26.25 -30.488281 25 -27.558594 24.109375 -24.90625 C 23.191406 -22.167969 22.414062 -19.707031 21.777344 -17.515625 C 21.117188 -15.242188 20.472656 -13.230469 19.847656 -11.480469 C 18.980469 -9.121094 17.921875 -7.316406 16.675781 -6.070312 L 14.800781 -7.945312 L 17.078125 -6.582031 C 16.203125 -5.125 14.769531 -4.167969 12.777344 -3.71875 C 11.207031 -3.367188 9.617188 -3.300781 8 -3.527344 C 6.28125 -3.769531 4.789062 -4.339844 3.527344 -5.238281 C 2.644531 -5.867188 2.023438 -6.636719 1.664062 -7.550781 C 1.296875 -8.488281 1.234375 -9.484375 1.476562 -10.546875 L 4.0625 -9.949219 L 1.429688 -10.257812 C 1.894531 -14.253906 2.617188 -17.640625 3.59375 -20.414062 C 4.511719 -23.03125 5.3125 -25.203125 5.992188 -26.933594 C 6.648438 -28.605469 7.214844 -30.109375 7.691406 -31.4375 C 8.195312 -32.84375 8.671875 -34.066406 9.117188 -35.105469 C 9.5625 -36.152344 10.085938 -37.253906 10.675781 -38.417969 C 11.265625 -39.574219 11.902344 -40.746094 12.59375 -41.941406 C 13.304688 -43.164062 14.023438 -44.292969 14.757812 -45.332031 C 16.644531 -47.988281 18.378906 -49.625 19.964844 -50.242188 C 21.304688 -50.765625 22.664062 -51.074219 24.042969 -51.175781 C 25.550781 -51.285156 26.910156 -51.105469 28.109375 -50.636719 C 29.617188 -50.046875 30.679688 -49.058594 31.300781 -47.664062 C 31.945312 -46.214844 31.839844 -44.542969 30.992188 -42.648438 L 28.570312 -43.734375 Z M 26.054688 -42.898438 L 25.726562 -43.878906 L 26.148438 -44.820312 C 26.296875 -45.152344 26.382812 -45.414062 26.402344 -45.609375 C 26.402344 -45.628906 26.40625 -45.644531 26.40625 -45.660156 L 26.40625 -45.652344 C 26.410156 -45.605469 26.425781 -45.558594 26.449219 -45.507812 C 26.421875 -45.570312 26.332031 -45.632812 26.179688 -45.691406 C 25.722656 -45.871094 25.140625 -45.933594 24.425781 -45.882812 C 23.578125 -45.820312 22.734375 -45.625 21.890625 -45.296875 C 21.6875 -45.21875 21.382812 -44.976562 20.976562 -44.574219 C 20.417969 -44.019531 19.789062 -43.25 19.089844 -42.261719 C 18.449219 -41.359375 17.816406 -40.363281 17.1875 -39.28125 C 16.546875 -38.171875 15.953125 -37.082031 15.40625 -36.011719 C 14.867188 -34.949219 14.398438 -33.953125 13.996094 -33.015625 C 13.589844 -32.074219 13.15625 -30.953125 12.6875 -29.648438 C 12.195312 -28.265625 11.609375 -26.714844 10.933594 -24.992188 C 10.277344 -23.324219 9.5 -21.210938 8.601562 -18.652344 C 7.753906 -16.25 7.121094 -13.246094 6.699219 -9.640625 L 6.683594 -9.496094 L 6.648438 -9.351562 C 6.644531 -9.332031 6.640625 -9.316406 6.640625 -9.304688 C 6.640625 -9.308594 6.640625 -9.3125 6.640625 -9.324219 C 6.636719 -9.378906 6.625 -9.433594 6.601562 -9.492188 C 6.582031 -9.546875 6.558594 -9.589844 6.53125 -9.621094 C 6.539062 -9.609375 6.5625 -9.589844 6.601562 -9.5625 C 7.160156 -9.167969 7.875 -8.90625 8.742188 -8.785156 C 9.714844 -8.648438 10.671875 -8.6875 11.609375 -8.898438 C 12.125 -9.015625 12.429688 -9.152344 12.523438 -9.3125 L 12.695312 -9.59375 L 12.925781 -9.824219 C 13.621094 -10.519531 14.261719 -11.667969 14.847656 -13.265625 C 15.4375 -14.914062 16.046875 -16.828125 16.679688 -19 C 17.339844 -21.257812 18.136719 -23.789062 19.078125 -26.59375 C 20.046875 -29.484375 21.390625 -32.640625 23.101562 -36.066406 L 25.476562 -34.878906 L 23.011719 -35.863281 C 23.40625 -36.847656 24.238281 -38.285156 25.511719 -40.171875 C 26.097656 -41.050781 26.550781 -41.804688 26.863281 -42.4375 L 26.980469 -42.664062 L 27.132812 -42.867188 C 27.152344 -42.890625 27.167969 -42.910156 27.179688 -42.925781 L 27.175781 -42.925781 C 27.132812 -42.84375 27.09375 -42.746094 27.058594 -42.625 C 26.976562 -42.328125 26.964844 -42.019531 27.023438 -41.691406 C 27.109375 -41.214844 27.324219 -40.804688 27.664062 -40.464844 C 27.617188 -40.511719 27.507812 -40.613281 27.339844 -40.761719 C 26.792969 -41.257812 26.363281 -41.96875 26.054688 -42.898438 Z M 16.636719 2.691406 C 16.003906 5.042969 14.683594 6.816406 12.667969 8.015625 C 10.886719 9.074219 8.984375 9.640625 6.957031 9.71875 C 4.933594 9.796875 3.039062 9.402344 1.285156 8.539062 C -0.808594 7.507812 -2.128906 5.894531 -2.667969 3.699219 C -3.21875 1.457031 -2.832031 -0.496094 -1.5 -2.167969 C -0.355469 -3.609375 1.042969 -4.558594 2.6875 -5.015625 C 3.941406 -5.363281 5.386719 -5.605469 7.03125 -5.738281 C 8.785156 -5.882812 10.402344 -5.78125 11.886719 -5.433594 C 13.671875 -5.019531 15.078125 -4.203125 16.101562 -2.984375 C 16.84375 -2.105469 17.210938 -1.070312 17.210938 0.121094 C 17.210938 1.050781 16.96875 2.046875 16.488281 3.105469 L 14.074219 2 Z M 11.511719 1.3125 L 11.566406 1.101562 L 11.660156 0.898438 C 11.824219 0.542969 11.90625 0.28125 11.90625 0.121094 C 11.90625 0.222656 11.949219 0.324219 12.042969 0.4375 C 11.773438 0.117188 11.320312 -0.117188 10.679688 -0.265625 C 9.738281 -0.488281 8.664062 -0.546875 7.464844 -0.449219 C 6.15625 -0.339844 5.039062 -0.15625 4.105469 0.101562 C 3.570312 0.25 3.082031 0.59375 2.652344 1.136719 C 2.40625 1.449219 2.351562 1.878906 2.484375 2.429688 C 2.632812 3.023438 3.015625 3.472656 3.628906 3.777344 C 4.582031 4.246094 5.625 4.457031 6.753906 4.414062 C 7.878906 4.371094 8.949219 4.050781 9.957031 3.449219 C 10.734375 2.988281 11.25 2.277344 11.511719 1.3125 Z M 11.511719 1.3125 "/></g></g><g style="fill:#000000;fill-opacity:1;"><g transform="translate(264.955497, 210.735133)"><path style="stroke:none" d="M 31.089844 -44.574219 C 31.121094 -44.480469 31.144531 -44.421875 31.160156 -44.390625 C 31.105469 -44.492188 31.015625 -44.597656 30.890625 -44.707031 C 31.128906 -44.496094 31.304688 -44.332031 31.417969 -44.21875 C 31.863281 -43.773438 32.136719 -43.242188 32.25 -42.625 C 32.332031 -42.15625 32.308594 -41.683594 32.175781 -41.207031 C 32.03125 -40.691406 31.753906 -40.167969 31.339844 -39.628906 L 29.238281 -41.25 L 31.613281 -40.0625 C 31.199219 -39.234375 30.636719 -38.292969 29.929688 -37.230469 C 28.859375 -35.640625 28.195312 -34.527344 27.941406 -33.894531 L 27.898438 -33.792969 L 27.851562 -33.691406 C 26.25 -30.488281 25 -27.558594 24.109375 -24.90625 C 23.191406 -22.167969 22.414062 -19.707031 21.777344 -17.515625 C 21.117188 -15.242188 20.472656 -13.230469 19.847656 -11.480469 C 18.980469 -9.121094 17.921875 -7.316406 16.675781 -6.070312 L 14.800781 -7.945312 L 17.078125 -6.582031 C 16.203125 -5.125 14.769531 -4.167969 12.777344 -3.71875 C 11.207031 -3.367188 9.617188 -3.300781 8 -3.527344 C 6.28125 -3.769531 4.789062 -4.339844 3.527344 -5.238281 C 2.644531 -5.867188 2.023438 -6.636719 1.664062 -7.550781 C 1.296875 -8.488281 1.234375 -9.484375 1.476562 -10.546875 L 4.0625 -9.949219 L 1.429688 -10.257812 C 1.894531 -14.253906 2.617188 -17.640625 3.59375 -20.414062 C 4.511719 -23.03125 5.3125 -25.203125 5.992188 -26.933594 C 6.648438 -28.605469 7.214844 -30.109375 7.691406 -31.4375 C 8.195312 -32.84375 8.671875 -34.066406 9.117188 -35.105469 C 9.5625 -36.152344 10.085938 -37.253906 10.675781 -38.417969 C 11.265625 -39.574219 11.902344 -40.746094 12.59375 -41.941406 C 13.304688 -43.164062 14.023438 -44.292969 14.757812 -45.332031 C 16.644531 -47.988281 18.378906 -49.625 19.964844 -50.242188 C 21.304688 -50.765625 22.664062 -51.074219 24.042969 -51.175781 C 25.550781 -51.285156 26.910156 -51.105469 28.109375 -50.636719 C 29.617188 -50.046875 30.679688 -49.058594 31.300781 -47.664062 C 31.945312 -46.214844 31.839844 -44.542969 30.992188 -42.648438 L 28.570312 -43.734375 Z M 26.054688 -42.898438 L 25.726562 -43.878906 L 26.148438 -44.820312 C 26.296875 -45.152344 26.382812 -45.414062 26.402344 -45.609375 C 26.402344 -45.628906 26.40625 -45.644531 26.40625 -45.660156 L 26.40625 -45.652344 C 26.410156 -45.605469 26.425781 -45.558594 26.449219 -45.507812 C 26.421875 -45.570312 26.332031 -45.632812 26.179688 -45.691406 C 25.722656 -45.871094 25.140625 -45.933594 24.425781 -45.882812 C 23.578125 -45.820312 22.734375 -45.625 21.890625 -45.296875 C 21.6875 -45.21875 21.382812 -44.976562 20.976562 -44.574219 C 20.417969 -44.019531 19.789062 -43.25 19.089844 -42.261719 C 18.449219 -41.359375 17.816406 -40.363281 17.1875 -39.28125 C 16.546875 -38.171875 15.953125 -37.082031 15.40625 -36.011719 C 14.867188 -34.949219 14.398438 -33.953125 13.996094 -33.015625 C 13.589844 -32.074219 13.15625 -30.953125 12.6875 -29.648438 C 12.195312 -28.265625 11.609375 -26.714844 10.933594 -24.992188 C 10.277344 -23.324219 9.5 -21.210938 8.601562 -18.652344 C 7.753906 -16.25 7.121094 -13.246094 6.699219 -9.640625 L 6.683594 -9.496094 L 6.648438 -9.351562 C 6.644531 -9.332031 6.640625 -9.316406 6.640625 -9.304688 C 6.640625 -9.308594 6.640625 -9.3125 6.640625 -9.324219 C 6.636719 -9.378906 6.625 -9.433594 6.601562 -9.492188 C 6.582031 -9.546875 6.558594 -9.589844 6.53125 -9.621094 C 6.539062 -9.609375 6.5625 -9.589844 6.601562 -9.5625 C 7.160156 -9.167969 7.875 -8.90625 8.742188 -8.785156 C 9.714844 -8.648438 10.671875 -8.6875 11.609375 -8.898438 C 12.125 -9.015625 12.429688 -9.152344 12.523438 -9.3125 L 12.695312 -9.59375 L 12.925781 -9.824219 C 13.621094 -10.519531 14.261719 -11.667969 14.847656 -13.265625 C 15.4375 -14.914062 16.046875 -16.828125 16.679688 -19 C 17.339844 -21.257812 18.136719 -23.789062 19.078125 -26.59375 C 20.046875 -29.484375 21.390625 -32.640625 23.101562 -36.066406 L 25.476562 -34.878906 L 23.011719 -35.863281 C 23.40625 -36.847656 24.238281 -38.285156 25.511719 -40.171875 C 26.097656 -41.050781 26.550781 -41.804688 26.863281 -42.4375 L 26.980469 -42.664062 L 27.132812 -42.867188 C 27.152344 -42.890625 27.167969 -42.910156 27.179688 -42.925781 L 27.175781 -42.925781 C 27.132812 -42.84375 27.09375 -42.746094 27.058594 -42.625 C 26.976562 -42.328125 26.964844 -42.019531 27.023438 -41.691406 C 27.109375 -41.214844 27.324219 -40.804688 27.664062 -40.464844 C 27.617188 -40.511719 27.507812 -40.613281 27.339844 -40.761719 C 26.792969 -41.257812 26.363281 -41.96875 26.054688 -42.898438 Z M 16.636719 2.691406 C 16.003906 5.042969 14.683594 6.816406 12.667969 8.015625 C 10.886719 9.074219 8.984375 9.640625 6.957031 9.71875 C 4.933594 9.796875 3.039062 9.402344 1.285156 8.539062 C -0.808594 7.507812 -2.128906 5.894531 -2.667969 3.699219 C -3.21875 1.457031 -2.832031 -0.496094 -1.5 -2.167969 C -0.355469 -3.609375 1.042969 -4.558594 2.6875 -5.015625 C 3.941406 -5.363281 5.386719 -5.605469 7.03125 -5.738281 C 8.785156 -5.882812 10.402344 -5.78125 11.886719 -5.433594 C 13.671875 -5.019531 15.078125 -4.203125 16.101562 -2.984375 C 16.84375 -2.105469 17.210938 -1.070312 17.210938 0.121094 C 17.210938 1.050781 16.96875 2.046875 16.488281 3.105469 L 14.074219 2 Z M 11.511719 1.3125 L 11.566406 1.101562 L 11.660156 0.898438 C 11.824219 0.542969 11.90625 0.28125 11.90625 0.121094 C 11.90625 0.222656 11.949219 0.324219 12.042969 0.4375 C 11.773438 0.117188 11.320312 -0.117188 10.679688 -0.265625 C 9.738281 -0.488281 8.664062 -0.546875 7.464844 -0.449219 C 6.15625 -0.339844 5.039062 -0.15625 4.105469 0.101562 C 3.570312 0.25 3.082031 0.59375 2.652344 1.136719 C 2.40625 1.449219 2.351562 1.878906 2.484375 2.429688 C 2.632812 3.023438 3.015625 3.472656 3.628906 3.777344 C 4.582031 4.246094 5.625 4.457031 6.753906 4.414062 C 7.878906 4.371094 8.949219 4.050781 9.957031 3.449219 C 10.734375 2.988281 11.25 2.277344 11.511719 1.3125 Z M 11.511719 1.3125 "/></g></g><g style="fill:#6ff6b7;fill-opacity:1;"><g transform="translate(87.596805, 210.735133)"><path style="stroke:none" d="M 32.03125 -45.734375 L 32.265625 -45.671875 C 33.273438 -45.066406 34.15625 -44.390625 34.90625 -43.640625 C 35.65625 -42.890625 36.34375 -42.097656 36.96875 -41.265625 C 37.59375 -40.441406 38.085938 -39.546875 38.453125 -38.578125 C 39.992188 -34.859375 38.660156 -30.691406 34.453125 -26.078125 C 32.671875 -24.140625 30.671875 -22.484375 28.453125 -21.109375 C 29.015625 -20.703125 29.546875 -20.40625 30.046875 -20.21875 C 30.554688 -20.039062 31.273438 -19.695312 32.203125 -19.1875 C 33.140625 -18.6875 33.75 -17.738281 34.03125 -16.34375 C 34.3125 -14.945312 34.238281 -13.378906 33.8125 -11.640625 C 33.382812 -9.898438 32.613281 -8.109375 31.5 -6.265625 C 30.394531 -4.429688 28.953125 -2.785156 27.171875 -1.328125 C 23.128906 2.023438 18.441406 3.4375 13.109375 2.90625 C 12.335938 2.90625 11.847656 2.84375 11.640625 2.71875 C 11.441406 2.601562 11.28125 2.503906 11.15625 2.421875 C 11.039062 2.347656 10.78125 2.289062 10.375 2.25 C 9.363281 3.050781 8.207031 3.550781 6.90625 3.75 C 5.613281 3.957031 4.390625 3.859375 3.234375 3.453125 C 2.085938 3.046875 1.117188 2.359375 0.328125 1.390625 C -0.453125 0.421875 -0.84375 -0.847656 -0.84375 -2.421875 C -0.726562 -3.472656 -0.53125 -4.300781 -0.25 -4.90625 C -0.363281 -5.269531 -0.421875 -5.71875 -0.421875 -6.25 C 0.953125 -13.5625 2.242188 -19.160156 3.453125 -23.046875 C 5.921875 -30.773438 8.59375 -36.597656 11.46875 -40.515625 C 13.8125 -43.835938 17.066406 -45.984375 21.234375 -46.953125 C 25.234375 -47.878906 28.832031 -47.472656 32.03125 -45.734375 Z M 13.15625 -3.390625 C 13.644531 -3.515625 14.0625 -3.546875 14.40625 -3.484375 C 14.75 -3.421875 15.164062 -3.429688 15.65625 -3.515625 C 16.820312 -3.640625 18.394531 -4.367188 20.375 -5.703125 C 21.632812 -6.953125 22.300781 -8.179688 22.375 -9.390625 C 22.457031 -10.609375 22.273438 -11.390625 21.828125 -11.734375 C 21.390625 -12.078125 20.796875 -12.25 20.046875 -12.25 C 19.296875 -12.25 18.460938 -12.132812 17.546875 -11.90625 C 16.640625 -11.6875 15.765625 -11.5625 14.921875 -11.53125 L 14.921875 -11.40625 C 14.722656 -10.59375 14.519531 -9.882812 14.3125 -9.28125 C 14.113281 -8.675781 13.929688 -8.085938 13.765625 -7.515625 C 13.398438 -6.179688 13.117188 -4.804688 12.921875 -3.390625 Z M 24.4375 -34.9375 C 23.226562 -35.101562 21.914062 -34.15625 20.5 -32.09375 C 19.613281 -30.789062 18.925781 -28.828125 18.4375 -26.203125 C 19.289062 -26.566406 20.128906 -26.878906 20.953125 -27.140625 C 21.785156 -27.398438 22.566406 -27.691406 23.296875 -28.015625 C 25.066406 -28.785156 26.335938 -29.71875 27.109375 -30.8125 C 28.003906 -31.863281 28.289062 -32.753906 27.96875 -33.484375 C 27.476562 -34.128906 26.6875 -34.710938 25.59375 -35.234375 C 25.269531 -34.953125 24.882812 -34.851562 24.4375 -34.9375 Z M 23.53125 -35.1875 L 23.71875 -35.1875 Z M 23.53125 -35.1875 "/></g></g><g style="fill:#6ff6b7;fill-opacity:1;"><g transform="translate(123.080675, 210.735133)"><path style="stroke:none" d="M 12.3125 -40.15625 C 14.863281 -43.0625 17.695312 -44.878906 20.8125 -45.609375 C 22.945312 -46.140625 24.96875 -46.0625 26.875 -45.375 C 28.363281 -46.945312 30.300781 -47.507812 32.6875 -47.0625 C 34.875 -46.664062 36.738281 -45.4375 38.28125 -43.375 C 38.351562 -43.082031 38.519531 -42.65625 38.78125 -42.09375 C 39.050781 -41.53125 39.304688 -40.90625 39.546875 -40.21875 C 41.328125 -36.09375 41.46875 -30.671875 39.96875 -23.953125 C 38.113281 -15.628906 34.816406 -8.578125 30.078125 -2.796875 C 28.628906 -1.015625 26.992188 0.460938 25.171875 1.640625 C 22.265625 3.859375 18.785156 4.847656 14.734375 4.609375 C 12.234375 4.484375 10.132812 3.859375 8.4375 2.734375 C 1.675781 -0.628906 -0.53125 -7.625 1.8125 -18.25 C 3.757812 -26.988281 7.257812 -34.289062 12.3125 -40.15625 Z M 13.046875 -7.953125 L 12.984375 -7.578125 L 13.109375 -6.921875 C 13.347656 -5.660156 13.75 -4.695312 14.3125 -4.03125 C 14.882812 -3.363281 15.347656 -2.953125 15.703125 -2.796875 C 16.109375 -3.117188 16.515625 -3.421875 16.921875 -3.703125 C 17.328125 -3.984375 17.691406 -4.328125 18.015625 -4.734375 C 20.765625 -8.128906 22.90625 -12.578125 24.4375 -18.078125 C 25.976562 -23.578125 26.546875 -28.671875 26.140625 -33.359375 C 24.566406 -31.335938 22.910156 -29.007812 21.171875 -26.375 C 19.429688 -23.75 18.054688 -21.507812 17.046875 -19.65625 C 14.742188 -15.320312 13.410156 -11.421875 13.046875 -7.953125 Z M 13.046875 -7.953125 "/></g></g><g style="fill:#6ff6b7;fill-opacity:1;"><g transform="translate(161.83998, 210.735133)"><path style="stroke:none" d="M 12.3125 -40.15625 C 14.863281 -43.0625 17.695312 -44.878906 20.8125 -45.609375 C 22.945312 -46.140625 24.96875 -46.0625 26.875 -45.375 C 28.363281 -46.945312 30.300781 -47.507812 32.6875 -47.0625 C 34.875 -46.664062 36.738281 -45.4375 38.28125 -43.375 C 38.351562 -43.082031 38.519531 -42.65625 38.78125 -42.09375 C 39.050781 -41.53125 39.304688 -40.90625 39.546875 -40.21875 C 41.328125 -36.09375 41.46875 -30.671875 39.96875 -23.953125 C 38.113281 -15.628906 34.816406 -8.578125 30.078125 -2.796875 C 28.628906 -1.015625 26.992188 0.460938 25.171875 1.640625 C 22.265625 3.859375 18.785156 4.847656 14.734375 4.609375 C 12.234375 4.484375 10.132812 3.859375 8.4375 2.734375 C 1.675781 -0.628906 -0.53125 -7.625 1.8125 -18.25 C 3.757812 -26.988281 7.257812 -34.289062 12.3125 -40.15625 Z M 13.046875 -7.953125 L 12.984375 -7.578125 L 13.109375 -6.921875 C 13.347656 -5.660156 13.75 -4.695312 14.3125 -4.03125 C 14.882812 -3.363281 15.347656 -2.953125 15.703125 -2.796875 C 16.109375 -3.117188 16.515625 -3.421875 16.921875 -3.703125 C 17.328125 -3.984375 17.691406 -4.328125 18.015625 -4.734375 C 20.765625 -8.128906 22.90625 -12.578125 24.4375 -18.078125 C 25.976562 -23.578125 26.546875 -28.671875 26.140625 -33.359375 C 24.566406 -31.335938 22.910156 -29.007812 21.171875 -26.375 C 19.429688 -23.75 18.054688 -21.507812 17.046875 -19.65625 C 14.742188 -15.320312 13.410156 -11.421875 13.046875 -7.953125 Z M 13.046875 -7.953125 "/></g></g><g style="fill:#6ff6b7;fill-opacity:1;"><g transform="translate(200.599285, 210.735133)"><path style="stroke:none" d="M 23.84375 -44.28125 C 24.25 -43.1875 24.46875 -42.457031 24.5 -42.09375 C 24.582031 -41.320312 24.300781 -40.675781 23.65625 -40.15625 C 23.65625 -40.113281 23.613281 -40.050781 23.53125 -39.96875 C 23.894531 -38.070312 23.972656 -36.289062 23.765625 -34.625 C 23.566406 -32.96875 23.304688 -31.375 22.984375 -29.84375 C 25.171875 -33.5625 26.910156 -36.289062 28.203125 -38.03125 C 30.867188 -41.632812 33.359375 -44.203125 35.671875 -45.734375 C 36.429688 -46.179688 37.367188 -46.515625 38.484375 -46.734375 C 39.597656 -46.953125 40.660156 -46.976562 41.671875 -46.8125 C 42.679688 -46.65625 43.519531 -46.253906 44.1875 -45.609375 C 44.851562 -44.960938 45.144531 -43.992188 45.0625 -42.703125 C 43.9375 -34.816406 42.722656 -27.46875 41.421875 -20.65625 C 40.128906 -13.84375 38.453125 -7.34375 36.390625 -1.15625 L 36.390625 -1.03125 L 36.328125 -1.03125 C 35.847656 0.425781 34.640625 1.457031 32.703125 2.0625 C 30.796875 2.625 29.09375 2.664062 27.59375 2.1875 C 25.78125 1.65625 24.953125 0.679688 25.109375 -0.734375 L 25.171875 -2.125 L 25.171875 -2.25 C 25.335938 -3.21875 25.429688 -3.875 25.453125 -4.21875 C 25.472656 -4.5625 25.5 -4.8125 25.53125 -4.96875 C 25.613281 -6.019531 25.785156 -7 26.046875 -7.90625 C 26.316406 -8.820312 26.507812 -9.5625 26.625 -10.125 C 26.75 -10.695312 26.867188 -11.234375 26.984375 -11.734375 C 27.109375 -12.242188 27.191406 -12.640625 27.234375 -12.921875 C 25.703125 -10.816406 24.613281 -9.539062 23.96875 -9.09375 C 22.34375 -7.96875 20.457031 -7.441406 18.3125 -7.515625 C 16.976562 -7.597656 16.210938 -7.90625 16.015625 -8.4375 C 15.609375 -9.5625 15.328125 -10.226562 15.171875 -10.4375 C 14.921875 -10.757812 14.71875 -11.304688 14.5625 -12.078125 C 13.507812 -7.421875 12.476562 -4.125 11.46875 -2.1875 C 11.0625 -1.414062 10.65625 -0.726562 10.25 -0.125 C 9.6875 1.207031 8.394531 2.140625 6.375 2.671875 C 4.46875 3.191406 2.644531 3.148438 0.90625 2.546875 C -0.863281 1.984375 -1.707031 0.972656 -1.625 -0.484375 C -1.550781 -1.941406 -1.257812 -3.769531 -0.75 -5.96875 C -0.25 -8.175781 0.34375 -10.515625 1.03125 -12.984375 C 3.09375 -20.785156 4.554688 -25.859375 5.421875 -28.203125 C 6.296875 -30.546875 7.035156 -32.382812 7.640625 -33.71875 C 9.097656 -36.832031 10.394531 -39.097656 11.53125 -40.515625 C 12.78125 -43.066406 14.863281 -44.601562 17.78125 -45.125 C 20.082031 -45.570312 22.101562 -45.289062 23.84375 -44.28125 Z M 23.84375 -44.28125 "/></g></g><g style="fill:#6ff6b7;fill-opacity:1;"><g transform="translate(242.512708, 210.735133)"><path style="stroke:none" d="M 28.578125 -43.734375 C 28.734375 -43.242188 28.910156 -42.90625 29.109375 -42.71875 C 29.316406 -42.539062 29.460938 -42.414062 29.546875 -42.34375 C 29.742188 -42.132812 29.640625 -41.769531 29.234375 -41.25 C 28.867188 -40.519531 28.363281 -39.671875 27.71875 -38.703125 C 26.550781 -36.960938 25.804688 -35.6875 25.484375 -34.875 C 23.816406 -31.5625 22.519531 -28.519531 21.59375 -25.75 C 20.664062 -22.976562 19.878906 -20.476562 19.234375 -18.25 C 18.585938 -16.03125 17.957031 -14.070312 17.34375 -12.375 C 16.613281 -10.394531 15.765625 -8.921875 14.796875 -7.953125 C 14.316406 -7.140625 13.445312 -6.59375 12.1875 -6.3125 C 10.9375 -6.03125 9.664062 -5.976562 8.375 -6.15625 C 7.082031 -6.332031 5.976562 -6.742188 5.0625 -7.390625 C 4.15625 -8.046875 3.820312 -8.898438 4.0625 -9.953125 C 4.507812 -13.753906 5.1875 -16.945312 6.09375 -19.53125 C 7.007812 -22.113281 7.800781 -24.253906 8.46875 -25.953125 C 9.132812 -27.660156 9.707031 -29.191406 10.1875 -30.546875 C 10.675781 -31.898438 11.128906 -33.070312 11.546875 -34.0625 C 11.972656 -35.050781 12.46875 -36.097656 13.03125 -37.203125 C 13.601562 -38.316406 14.222656 -39.453125 14.890625 -40.609375 C 15.554688 -41.765625 16.234375 -42.828125 16.921875 -43.796875 C 18.503906 -46.015625 19.835938 -47.335938 20.921875 -47.765625 C 22.015625 -48.191406 23.117188 -48.441406 24.234375 -48.515625 C 25.347656 -48.597656 26.316406 -48.476562 27.140625 -48.15625 C 27.972656 -47.832031 28.550781 -47.304688 28.875 -46.578125 C 29.195312 -45.859375 29.097656 -44.910156 28.578125 -43.734375 Z M 14.078125 2 C 13.628906 3.65625 12.707031 4.894531 11.3125 5.71875 C 9.914062 6.550781 8.425781 7 6.84375 7.0625 C 5.269531 7.125 3.804688 6.820312 2.453125 6.15625 C 1.097656 5.488281 0.25 4.457031 -0.09375 3.0625 C -0.4375 1.664062 -0.210938 0.472656 0.578125 -0.515625 C 1.367188 -1.503906 2.304688 -2.148438 3.390625 -2.453125 C 4.484375 -2.753906 5.769531 -2.96875 7.25 -3.09375 C 8.726562 -3.21875 10.070312 -3.132812 11.28125 -2.84375 C 12.5 -2.5625 13.429688 -2.035156 14.078125 -1.265625 C 14.722656 -0.503906 14.722656 0.582031 14.078125 2 Z M 14.078125 2 "/></g></g><g style="fill:#6ff6b7;fill-opacity:1;"><g transform="translate(264.955497, 210.735133)"><path style="stroke:none" d="M 28.578125 -43.734375 C 28.734375 -43.242188 28.910156 -42.90625 29.109375 -42.71875 C 29.316406 -42.539062 29.460938 -42.414062 29.546875 -42.34375 C 29.742188 -42.132812 29.640625 -41.769531 29.234375 -41.25 C 28.867188 -40.519531 28.363281 -39.671875 27.71875 -38.703125 C 26.550781 -36.960938 25.804688 -35.6875 25.484375 -34.875 C 23.816406 -31.5625 22.519531 -28.519531 21.59375 -25.75 C 20.664062 -22.976562 19.878906 -20.476562 19.234375 -18.25 C 18.585938 -16.03125 17.957031 -14.070312 17.34375 -12.375 C 16.613281 -10.394531 15.765625 -8.921875 14.796875 -7.953125 C 14.316406 -7.140625 13.445312 -6.59375 12.1875 -6.3125 C 10.9375 -6.03125 9.664062 -5.976562 8.375 -6.15625 C 7.082031 -6.332031 5.976562 -6.742188 5.0625 -7.390625 C 4.15625 -8.046875 3.820312 -8.898438 4.0625 -9.953125 C 4.507812 -13.753906 5.1875 -16.945312 6.09375 -19.53125 C 7.007812 -22.113281 7.800781 -24.253906 8.46875 -25.953125 C 9.132812 -27.660156 9.707031 -29.191406 10.1875 -30.546875 C 10.675781 -31.898438 11.128906 -33.070312 11.546875 -34.0625 C 11.972656 -35.050781 12.46875 -36.097656 13.03125 -37.203125 C 13.601562 -38.316406 14.222656 -39.453125 14.890625 -40.609375 C 15.554688 -41.765625 16.234375 -42.828125 16.921875 -43.796875 C 18.503906 -46.015625 19.835938 -47.335938 20.921875 -47.765625 C 22.015625 -48.191406 23.117188 -48.441406 24.234375 -48.515625 C 25.347656 -48.597656 26.316406 -48.476562 27.140625 -48.15625 C 27.972656 -47.832031 28.550781 -47.304688 28.875 -46.578125 C 29.195312 -45.859375 29.097656 -44.910156 28.578125 -43.734375 Z M 14.078125 2 C 13.628906 3.65625 12.707031 4.894531 11.3125 5.71875 C 9.914062 6.550781 8.425781 7 6.84375 7.0625 C 5.269531 7.125 3.804688 6.820312 2.453125 6.15625 C 1.097656 5.488281 0.25 4.457031 -0.09375 3.0625 C -0.4375 1.664062 -0.210938 0.472656 0.578125 -0.515625 C 1.367188 -1.503906 2.304688 -2.148438 3.390625 -2.453125 C 4.484375 -2.753906 5.769531 -2.96875 7.25 -3.09375 C 8.726562 -3.21875 10.070312 -3.132812 11.28125 -2.84375 C 12.5 -2.5625 13.429688 -2.035156 14.078125 -1.265625 C 14.722656 -0.503906 14.722656 0.582031 14.078125 2 Z M 14.078125 2 "/></g></g></g></svg>