<svg xmlns="http://www.w3.org/2000/svg" width="856.96mm" height="856.96mm" data-name="Lager 1" viewBox="0 0 2429.18 2429.18"><path d="M1274.26 1408.53h-.51V183.86c400.12 16.18 741.14 261.78 895.08 608.8h91.24c-159.21-394.49-538.54-676.54-985.81-693.9q-21.81-.86-43.81-.85c-613 0-1109.89 496.91-1109.89 1109.89s496.91 1109.89 1109.88 1109.89c544.43 0 997.29-392 1091.77-909.16ZM206.81 1207.8c0-433.85 269.6-804.72 650.39-954.25-158 128.5-259.06 325.16-259.06 544.81 0 313.89 206.41 577.31 490.37 664.25L478 1902.25c-168.34-182.59-271.19-426.51-271.19-694.45m982.66 1023.93c-250.71-10.14-478.2-110.35-651-269.14l651-468.83Zm0-823.2c-289.14-48.66-509.29-305.74-509.29-610.17 0-303.25 218.76-563.56 506.24-614.37l3.36-.14Zm84.28 823.21v-738.93h942.48c-119.74 414.39-493.97 720.79-942.48 738.93" style="fill:#fff"/></svg>