<svg xmlns="http://www.w3.org/2000/svg" id="Layer_1" width="467.62mm" height="75.84mm" data-name="Layer 1" viewBox="0 0 1325.55 214.97"><defs><style>.cls-1{fill:#fff}</style></defs><path d="M286.69 107.78h20.4c14.7 0 22-10.55 22-21.09 0-10.38-7.26-20.92-22-20.92h-26.8v103.39H263v-121h44.09c26.28 0 39.42 19.36 39.42 38.56 0 17.11-10.54 33.37-31.29 37l38.21 45.47h-22.65l-44.09-53.08Z" class="cls-1"/><path d="M370.89 151.7h56.19v17.46h-73.83V48.3h73.66v17.47h-56v34.06h54.79v17.63h-54.81ZM452.14 99.31h51.18v-51H521v120.85h-17.68V116.6h-51.18v52.56h-17.46V48.3h17.46ZM532.19 169.16V48l13.49.17 59 85.24V48.13h17.29v121H608.1l-58.44-84.52v84.55ZM695 119.12v5h53.2c-4.83 23.21-28.83 42.57-53.13 42.57a54 54 0 0 1-39.31-17.12 58.82 58.82 0 0 1-16.12-40.73 59.43 59.43 0 0 1 16.12-40.73C666.43 57.05 680.4 51 695.06 51c22.67 0 42.42 13.29 50.32 33.87l.27.71h5.26l-.51-1.47C742.52 61.29 720.28 46 695.06 46a58.72 58.72 0 0 0-42.82 18.51 64.6 64.6 0 0 0-17.59 44.33 63.9 63.9 0 0 0 17.6 44.33 58.83 58.83 0 0 0 42.81 18.68c23.14 0 48.28-17.55 56-39.09a44 44 0 0 0 3-12.42l.1-1.2ZM789.06 120h16.66c11.53 0 21.23-3.94 28-11.41a36.9 36.9 0 0 0 9.36-25.05c0-17.57-11.71-36.47-37.41-36.47h-43v123.2h4.82V52h38.14c22.4 0 32.6 16.37 32.6 31.57a32 32 0 0 1-8.13 21.72c-5.92 6.45-14.38 9.85-24.47 9.85h-24.54v4.2l56 50.64.32.29h7.28ZM936 47.19v89.12c0 19.72-19.83 30.36-38.49 30.36S859 156.09 859 136.48V47.19h-5v89.12c0 22.95 22.4 35.34 43.47 35.34S941 159.33 941 136.48V47.19ZM997.8 47h-42.95v123.27h5v-46h38c11.55 0 21.25-4.19 28.07-12.11a40.5 40.5 0 0 0 9.35-26.52C1035.22 67 1023.51 47 997.8 47m32.61 38.72a35.45 35.45 0 0 1-8.17 23.23c-5.91 6.87-14.36 10.5-24.44 10.5h-38V52h38c22.4 0 32.61 17.49 32.61 33.74ZM1088.57 47h-43v123.27h5v-46h38c11.55 0 21.25-4.19 28.07-12.11a40.5 40.5 0 0 0 9.36-26.51C1126 67 1114.28 47 1088.57 47m32.61 38.72A35.45 35.45 0 0 1 1113 109c-5.91 6.87-14.36 10.5-24.44 10.5h-38V52h38c22.44 0 32.62 17.49 32.62 33.74ZM1141.37 165.46v-54.32h62.59v-4.99h-62.59V52h63.97v-4.81h-68.96v123.08h69.31v-4.81zM1298.91 47.02v113.75l-78.68-113.71-4.14-.29v123.5h4.98V57.21l77.86 112.58.33.48h4.46V47.02zM118.63 123.64V18.09a88.37 88.37 0 0 1 77.15 52.47h7.86a95.69 95.69 0 0 0-85-59.8c-1.26 0-2.51-.07-3.78-.07a95.66 95.66 0 1 0 94.1 113Zm-92-17.3A88.35 88.35 0 0 1 82.68 24.1a60.42 60.42 0 0 0-22.32 46.95 59.77 59.77 0 0 0 42.26 57.25L50 166.2a88 88 0 0 1-23.37-59.86m84.69 88.25a88 88 0 0 1-56.11-23.19l56.11-40.4Zm0-70.95c-24.92-4.19-43.89-26.35-43.89-52.59s18.85-48.57 43.63-52.95h.29Zm7.26 71v-63.73h81.23a88.36 88.36 0 0 1-81.23 63.68Z" class="cls-1"/></svg>