<svg xmlns="http://www.w3.org/2000/svg" xmlns:xlink="http://www.w3.org/1999/xlink" width="500" zoomAndPan="magnify" viewBox="0 0 375 374.999991" height="500" preserveAspectRatio="xMidYMid meet" version="1.2"><defs><clipPath id="1ebe253a29"><path d="M 201 70.863281 L 210 70.863281 L 210 115 L 201 115 Z M 201 70.863281 "/></clipPath><clipPath id="ebf1e6ac4a"><path d="M 281 218 L 311.921875 218 L 311.921875 229 L 281 229 Z M 281 218 "/></clipPath></defs><g id="eb5659d456"><path style=" stroke:none;fill-rule:evenodd;fill:#000000;fill-opacity:1;" d="M 299.386719 154.378906 C 278.15625 170.746094 276.414062 180.132812 302.285156 188.957031 C 265.730469 198.785156 256.785156 208.046875 283.289062 233.296875 C 233.523438 224.53125 219.210938 231.753906 217.003906 279.445312 C 187.046875 242.273438 171.226562 244.898438 136.257812 281.375 C 142.722656 245.34375 130.03125 243.15625 94.734375 256.824219 C 110.394531 234.421875 103.441406 227.871094 76.644531 227.214844 C 97.878906 210.855469 99.617188 201.464844 73.75 192.640625 C 110.300781 182.8125 119.25 173.550781 92.742188 148.296875 C 142.507812 157.066406 156.824219 149.839844 159.027344 102.15625 C 188.988281 139.324219 204.804688 136.699219 239.773438 100.222656 C 233.308594 136.253906 246 138.441406 281.296875 124.773438 C 265.636719 147.175781 272.589844 153.726562 299.386719 154.378906 "/><path style=" stroke:none;fill-rule:evenodd;fill:#ffffff;fill-opacity:1;" d="M 290.699219 157.222656 C 271.121094 172.308594 269.519531 180.964844 293.367188 189.101562 C 259.667969 198.160156 251.417969 206.699219 275.855469 229.984375 C 229.972656 221.898438 216.773438 228.558594 214.742188 272.527344 C 187.121094 238.257812 172.535156 240.679688 140.296875 274.304688 C 146.253906 241.089844 134.558594 239.070312 102.015625 251.671875 C 116.453125 231.015625 110.039062 224.976562 85.332031 224.375 C 104.910156 209.289062 106.515625 200.632812 82.664062 192.496094 C 116.367188 183.433594 124.613281 174.898438 100.175781 151.617188 C 146.058594 159.699219 159.257812 153.039062 161.289062 109.070312 C 188.910156 143.34375 203.496094 140.917969 235.738281 107.289062 C 229.777344 140.511719 241.476562 142.527344 274.019531 129.925781 C 259.582031 150.578125 265.992188 156.621094 290.699219 157.222656 "/><path style=" stroke:none;fill-rule:nonzero;fill:#180f26;fill-opacity:1;" d="M 137.605469 130.917969 L 118.640625 111.285156 L 119.996094 110.0625 L 137.605469 130.917969 "/><path style=" stroke:none;fill-rule:nonzero;fill:#180f26;fill-opacity:1;" d="M 139.410156 108.792969 L 124.894531 81.804688 L 126.527344 80.988281 L 139.410156 108.792969 "/><path style=" stroke:none;fill-rule:nonzero;fill:#180f26;fill-opacity:1;" d="M 204.277344 111.476562 L 212.308594 73.40625 L 214.132812 73.40625 L 204.277344 111.476562 "/><g clip-rule="nonzero" clip-path="url(#1ebe253a29)"><path style=" stroke:none;fill-rule:nonzero;fill:#180f26;fill-opacity:1;" d="M 201.332031 114.023438 L 207.320312 70.855469 L 209.121094 71.144531 L 201.332031 114.023438 "/></g><path style=" stroke:none;fill-rule:nonzero;fill:#180f26;fill-opacity:1;" d="M 251.429688 120.753906 L 273.589844 96.65625 L 274.894531 97.925781 L 251.429688 120.753906 "/><path style=" stroke:none;fill-rule:nonzero;fill:#180f26;fill-opacity:1;" d="M 256.867188 282.390625 L 234.511719 250.441406 L 258.335938 281.3125 L 256.867188 282.390625 "/><g clip-rule="nonzero" clip-path="url(#ebf1e6ac4a)"><path style=" stroke:none;fill-rule:nonzero;fill:#180f26;fill-opacity:1;" d="M 311.25 228.113281 L 281.390625 218.40625 L 311.761719 226.363281 L 311.25 228.113281 "/></g><path style=" stroke:none;fill-rule:nonzero;fill:#180f26;fill-opacity:1;" d="M 280.636719 278.039062 L 240.695312 239.199219 L 281.890625 276.710938 L 280.636719 278.039062 "/><path style=" stroke:none;fill-rule:nonzero;fill:#180f26;fill-opacity:1;" d="M 270.902344 259.136719 L 249.882812 240.585938 L 272.066406 257.726562 L 270.902344 259.136719 "/><path style=" stroke:none;fill-rule:nonzero;fill:#180f26;fill-opacity:1;" d="M 194.242188 304 L 190.753906 259.359375 L 196.054688 303.820312 L 194.242188 304 "/><path style=" stroke:none;fill-rule:nonzero;fill:#180f26;fill-opacity:1;" d="M 185.824219 289.484375 L 184 289.441406 L 185.570312 261.019531 L 185.824219 289.484375 "/><path style=" stroke:none;fill-rule:nonzero;fill:#180f26;fill-opacity:1;" d="M 106.078125 298.957031 L 104.582031 297.910156 L 132.640625 259.371094 L 106.078125 298.957031 "/><path style=" stroke:none;fill-rule:nonzero;fill:#180f26;fill-opacity:1;" d="M 66.160156 254.214844 L 65.28125 252.613281 L 91.566406 239.199219 L 66.160156 254.214844 "/><path style=" stroke:none;fill-rule:nonzero;fill:#180f26;fill-opacity:1;" d="M 95.917969 168.679688 L 63.140625 160.3125 L 63.640625 158.558594 L 95.917969 168.679688 "/><path style=" stroke:none;fill-rule:nonzero;fill:#180f26;fill-opacity:1;" d="M 88.082031 153.285156 L 63.019531 143.179688 L 63.757812 141.511719 L 88.082031 153.285156 "/><path style=" stroke:none;fill-rule:nonzero;fill:#180f26;fill-opacity:1;" d="M 144.335938 129.574219 L 103.585938 76.3125 L 105.050781 75.222656 L 144.335938 129.574219 "/><path style=" stroke:none;fill-rule:evenodd;fill:#edaf33;fill-opacity:1;" d="M 279.996094 123.433594 L 277.597656 116.609375 L 271.15625 116.589844 L 276.113281 112.390625 L 273.714844 105.566406 L 279.179688 109.792969 L 284.136719 105.59375 L 282.554688 112.40625 L 288.015625 116.632812 L 281.578125 116.621094 L 279.996094 123.433594 "/><path style=" stroke:none;fill-rule:nonzero;fill:#000000;fill-opacity:1;" d="M 279.992188 123.355469 C 280.222656 122.234375 280.464844 121.117188 280.707031 120 C 280.949219 118.855469 281.203125 117.714844 281.453125 116.574219 L 281.472656 116.476562 L 281.570312 116.476562 L 284.785156 116.445312 L 288.003906 116.425781 L 287.917969 116.804688 L 285.171875 114.710938 L 282.4375 112.605469 L 282.304688 112.5 L 282.339844 112.332031 L 283.125 108.921875 L 283.925781 105.515625 L 284.273438 105.789062 C 283.445312 106.484375 282.621094 107.183594 281.785156 107.875 C 280.953125 108.566406 280.121094 109.261719 279.289062 109.945312 L 279.191406 110.023438 L 279.085938 109.945312 L 273.636719 105.695312 L 273.847656 105.515625 L 276.226562 112.347656 L 276.253906 112.441406 L 276.191406 112.496094 L 271.210938 116.671875 L 271.152344 116.492188 L 277.59375 116.546875 L 277.632812 116.546875 L 277.648438 116.589844 Z M 280 123.507812 L 277.546875 116.628906 L 277.601562 116.667969 L 271.164062 116.691406 L 270.890625 116.691406 L 271.097656 116.511719 L 276.035156 112.28125 L 276.003906 112.429688 L 273.578125 105.613281 L 273.414062 105.144531 L 273.792969 105.433594 L 279.269531 109.640625 L 279.070312 109.640625 C 279.882812 108.925781 280.707031 108.21875 281.527344 107.511719 C 282.347656 106.800781 283.171875 106.101562 283.996094 105.394531 L 284.507812 104.957031 L 284.34375 105.667969 L 283.5625 109.078125 L 282.765625 112.484375 L 282.667969 112.210938 L 285.398438 114.328125 L 288.117188 116.464844 L 288.609375 116.851562 L 288.03125 116.84375 L 284.808594 116.8125 L 281.585938 116.761719 L 281.703125 116.664062 C 281.421875 117.792969 281.152344 118.925781 280.867188 120.054688 C 280.582031 121.183594 280.304688 122.3125 280.015625 123.441406 L 280 123.507812 "/><path style=" stroke:none;fill-rule:evenodd;fill:#edaf33;fill-opacity:1;" d="M 118.878906 123.769531 L 112.117188 126.34375 L 112.265625 132.78125 L 107.9375 127.933594 L 101.175781 130.507812 L 105.261719 124.941406 L 100.933594 120.089844 L 107.789062 121.496094 L 111.875 115.921875 L 112.023438 122.363281 L 118.878906 123.769531 "/><path style=" stroke:none;fill-rule:nonzero;fill:#000000;fill-opacity:1;" d="M 118.800781 123.777344 C 117.671875 123.570312 116.550781 123.355469 115.421875 123.148438 C 114.273438 122.933594 113.128906 122.707031 111.984375 122.488281 L 111.886719 122.472656 L 111.882812 122.375 L 111.765625 119.160156 L 111.664062 115.945312 L 112.046875 116.023438 L 110.027344 118.816406 L 107.988281 121.609375 L 107.886719 121.746094 L 107.71875 121.710938 L 104.289062 121.015625 L 100.863281 120.304688 L 101.125 119.945312 C 101.84375 120.757812 102.566406 121.566406 103.277344 122.378906 C 103.988281 123.195312 104.703125 124.007812 105.414062 124.824219 L 105.496094 124.921875 L 105.417969 125.027344 L 101.304688 130.582031 L 101.125 130.375 L 107.894531 127.824219 L 107.988281 127.789062 L 108.042969 127.855469 L 112.34375 132.722656 L 112.167969 132.789062 L 112.054688 126.347656 L 112.054688 126.308594 L 112.097656 126.292969 Z M 118.953125 123.761719 L 112.136719 126.394531 L 112.179688 126.335938 L 112.363281 132.773438 L 112.371094 133.046875 L 112.1875 132.839844 L 107.832031 128.011719 L 107.980469 128.042969 L 101.226562 130.644531 L 100.765625 130.820312 L 101.042969 130.4375 L 105.105469 124.851562 L 105.113281 125.050781 C 104.375 124.253906 103.648438 123.449219 102.917969 122.648438 C 102.1875 121.851562 101.46875 121.039062 100.742188 120.234375 L 100.289062 119.734375 L 101.003906 119.878906 L 104.433594 120.574219 L 107.859375 121.28125 L 107.589844 121.382812 L 109.636719 118.601562 L 111.699219 115.828125 L 112.078125 115.328125 L 112.082031 115.90625 L 112.132812 119.128906 L 112.167969 122.351562 L 112.066406 122.238281 C 113.203125 122.488281 114.339844 122.730469 115.476562 122.988281 C 116.613281 123.238281 117.75 123.488281 118.886719 123.75 L 118.953125 123.761719 "/><path style=" stroke:none;fill-rule:evenodd;fill:#edaf33;fill-opacity:1;" d="M 86.074219 256.785156 L 84.796875 265.839844 L 92.019531 269.605469 L 84.007812 271.441406 L 82.730469 280.5 L 79.058594 272.574219 L 71.046875 274.40625 L 76.785156 267.675781 L 73.113281 259.75 L 80.332031 263.515625 L 86.074219 256.785156 "/><path style=" stroke:none;fill-rule:nonzero;fill:#000000;fill-opacity:1;" d="M 86.03125 256.875 C 85.117188 257.996094 84.199219 259.109375 83.277344 260.226562 C 82.335938 261.371094 81.390625 262.5 80.445312 263.636719 L 80.367188 263.734375 L 80.261719 263.679688 L 76.628906 261.847656 L 73.003906 259.992188 L 73.324219 259.621094 L 75.1875 263.566406 L 77.03125 267.523438 L 77.125 267.714844 L 76.980469 267.886719 L 74.117188 271.257812 L 71.238281 274.617188 L 71.003906 274.105469 C 72.339844 273.808594 73.675781 273.5 75.011719 273.214844 C 76.347656 272.917969 77.683594 272.621094 79.023438 272.339844 L 79.179688 272.304688 L 79.246094 272.457031 L 82.894531 280.398438 L 82.550781 280.476562 L 83.859375 271.421875 L 83.878906 271.300781 L 83.984375 271.273438 L 92 269.484375 L 91.964844 269.71875 L 84.765625 265.914062 L 84.722656 265.890625 L 84.726562 265.832031 Z M 86.109375 256.699219 L 84.867188 265.851562 L 84.828125 265.769531 L 92.070312 269.492188 L 92.375 269.648438 L 92.035156 269.730469 L 84.03125 271.605469 L 84.15625 271.460938 L 82.910156 280.523438 L 82.824219 281.144531 L 82.570312 280.597656 L 78.863281 272.691406 L 79.089844 272.808594 C 77.757812 273.136719 76.425781 273.449219 75.089844 273.769531 C 73.757812 274.09375 72.421875 274.394531 71.089844 274.707031 L 70.257812 274.902344 L 70.855469 274.203125 L 73.714844 270.828125 L 76.589844 267.46875 L 76.539062 267.828125 L 74.710938 263.863281 L 72.898438 259.882812 L 72.570312 259.160156 L 73.21875 259.503906 L 76.820312 261.417969 L 80.40625 263.351562 L 80.21875 263.394531 C 81.1875 262.285156 82.152344 261.171875 83.132812 260.070312 C 84.101562 258.964844 85.074219 257.859375 86.054688 256.761719 L 86.109375 256.699219 "/><path style=" stroke:none;fill-rule:evenodd;fill:#edaf33;fill-opacity:1;" d="M 107.378906 265.914062 L 107.3125 270.105469 L 110.8125 271.40625 L 107.277344 272.699219 L 107.210938 276.886719 L 105.089844 273.492188 L 101.550781 274.785156 L 103.777344 271.394531 L 101.65625 268 L 105.152344 269.300781 L 107.378906 265.914062 "/><path style=" stroke:none;fill-rule:nonzero;fill:#000000;fill-opacity:1;" d="M 107.367188 265.957031 C 107.015625 266.519531 106.65625 267.078125 106.304688 267.640625 C 105.941406 268.214844 105.574219 268.777344 105.210938 269.351562 L 105.179688 269.398438 L 105.128906 269.378906 L 103.375 268.753906 L 101.621094 268.117188 L 101.742188 267.929688 L 102.816406 269.617188 L 103.878906 271.3125 L 103.933594 271.394531 L 103.878906 271.480469 L 102.769531 273.175781 L 101.652344 274.863281 L 101.515625 274.648438 C 102.105469 274.4375 102.695312 274.222656 103.285156 274.015625 C 103.878906 273.800781 104.46875 273.59375 105.0625 273.390625 L 105.128906 273.367188 L 105.167969 273.429688 L 107.277344 276.832031 L 107.128906 276.886719 L 107.207031 272.695312 L 107.207031 272.636719 L 107.253906 272.625 L 110.796875 271.351562 L 110.796875 271.460938 L 107.304688 270.140625 L 107.28125 270.132812 L 107.28125 270.105469 Z M 107.390625 265.871094 L 107.347656 270.105469 L 107.324219 270.070312 L 110.828125 271.351562 L 110.976562 271.40625 L 110.828125 271.460938 L 107.296875 272.769531 L 107.34375 272.699219 L 107.296875 276.886719 L 107.289062 277.175781 L 107.144531 276.941406 L 105.007812 273.558594 L 105.117188 273.597656 C 104.53125 273.820312 103.941406 274.042969 103.355469 274.265625 C 102.769531 274.484375 102.175781 274.699219 101.589844 274.917969 L 101.21875 275.054688 L 101.453125 274.699219 L 102.5625 273.003906 L 103.679688 271.3125 L 103.675781 271.476562 L 102.617188 269.78125 L 101.566406 268.074219 L 101.375 267.765625 L 101.691406 267.886719 L 103.433594 268.546875 L 105.175781 269.222656 L 105.09375 269.253906 C 105.472656 268.695312 105.847656 268.132812 106.226562 267.578125 C 106.609375 267.019531 106.984375 266.460938 107.367188 265.90625 L 107.390625 265.871094 "/><g style="fill:#000000;fill-opacity:1;"><g transform="translate(86.367186, 210.374986)"><path style="stroke:none" d="M 10.171875 6.171875 C 7.78125 6.265625 5.570312 5.964844 3.539062 5.273438 C 1.457031 4.5625 -0.257812 3.570312 -1.609375 2.292969 C -3.085938 0.902344 -4.019531 -0.742188 -4.417969 -2.640625 C -4.832031 -4.632812 -4.503906 -6.621094 -3.425781 -8.605469 L -3.347656 -8.738281 C -2.441406 -10.203125 -1.105469 -11.152344 0.652344 -11.574219 C 2.097656 -11.921875 3.808594 -11.878906 5.78125 -11.449219 C 8.007812 -10.996094 9.507812 -10.753906 10.277344 -10.71875 C 10.777344 -10.695312 11.160156 -10.746094 11.433594 -10.863281 L 11.546875 -10.914062 L 11.667969 -10.953125 C 12.933594 -11.371094 13.890625 -11.78125 14.53125 -12.191406 C 14.753906 -12.328125 14.910156 -12.449219 15.007812 -12.554688 L 15.015625 -12.5625 C 14.988281 -12.515625 14.964844 -12.460938 14.945312 -12.398438 L 17.46875 -11.585938 L 14.917969 -12.316406 C 14.871094 -12.15625 14.863281 -12 14.886719 -11.847656 C 14.894531 -11.78125 14.90625 -11.738281 14.914062 -11.722656 C 14.804688 -11.929688 14.546875 -12.210938 14.144531 -12.5625 L 14.117188 -12.585938 L 14.09375 -12.609375 C 13.632812 -13.03125 13.117188 -13.460938 12.542969 -13.890625 C 11.761719 -14.476562 11.09375 -15.070312 10.539062 -15.675781 L 12.496094 -17.46875 L 10.917969 -15.335938 C 8.605469 -17.046875 6.78125 -19.039062 5.445312 -21.3125 C 4.007812 -23.761719 3.414062 -26.417969 3.664062 -29.289062 C 3.886719 -31.832031 4.324219 -33.976562 4.976562 -35.714844 C 5.625 -37.457031 6.445312 -39.011719 7.433594 -40.378906 C 9.167969 -42.769531 11.402344 -44.703125 14.140625 -46.191406 C 17.113281 -47.71875 19.527344 -48.710938 21.390625 -49.164062 C 25.050781 -49.980469 28.734375 -50.050781 32.441406 -49.378906 C 33.953125 -49.109375 35.273438 -48.582031 36.402344 -47.789062 C 37.234375 -47.207031 38.066406 -46.605469 38.898438 -45.980469 L 39.050781 -45.867188 L 39.183594 -45.734375 C 40.242188 -44.671875 40.917969 -43.539062 41.207031 -42.335938 C 41.527344 -40.992188 41.363281 -39.667969 40.710938 -38.363281 L 38.335938 -39.550781 L 40.769531 -38.488281 C 40.277344 -37.363281 39.511719 -36.457031 38.476562 -35.765625 C 37.46875 -35.09375 36.382812 -34.726562 35.21875 -34.65625 L 35.0625 -37.304688 L 37.707031 -37.5 C 37.847656 -35.644531 37.410156 -34.167969 36.40625 -33.078125 L 36.332031 -33.003906 C 34.96875 -31.640625 32.835938 -30.78125 29.925781 -30.425781 L 29.667969 -30.394531 L 29.410156 -30.414062 C 27.886719 -30.523438 26.632812 -30.539062 25.644531 -30.460938 C 24.878906 -30.398438 24.359375 -30.296875 24.089844 -30.15625 C 24.050781 -30.136719 24.019531 -30.078125 23.984375 -29.976562 C 23.859375 -29.578125 23.855469 -28.980469 23.976562 -28.175781 C 23.960938 -28.269531 23.945312 -28.332031 23.929688 -28.363281 C 23.976562 -28.28125 24.066406 -28.179688 24.195312 -28.054688 C 24.730469 -27.539062 25.367188 -26.976562 26.097656 -26.375 C 26.929688 -25.695312 27.800781 -24.929688 28.710938 -24.085938 C 29.753906 -23.113281 30.664062 -21.996094 31.4375 -20.742188 C 32.851562 -18.414062 33.503906 -15.898438 33.390625 -13.1875 C 33.285156 -10.617188 32.480469 -7.910156 30.976562 -5.070312 C 28.738281 -0.773438 24.964844 2.425781 19.660156 4.53125 C 16.921875 5.625 13.726562 6.171875 10.070312 6.171875 L 10.070312 3.519531 Z M 9.964844 0.867188 L 10.015625 0.863281 L 10.070312 0.863281 C 13.042969 0.863281 15.589844 0.441406 17.703125 -0.40625 C 21.785156 -2.023438 24.644531 -4.402344 26.285156 -7.546875 C 27.414062 -9.683594 28.011719 -11.636719 28.085938 -13.410156 C 28.15625 -15.046875 27.765625 -16.566406 26.917969 -17.960938 C 26.394531 -18.804688 25.789062 -19.550781 25.09375 -20.199219 C 24.265625 -20.96875 23.476562 -21.660156 22.730469 -22.273438 C 21.886719 -22.964844 21.148438 -23.621094 20.511719 -24.234375 C 19.496094 -25.214844 18.898438 -26.265625 18.726562 -27.386719 C 18.484375 -29.011719 18.550781 -30.414062 18.929688 -31.59375 C 19.402344 -33.070312 20.308594 -34.160156 21.648438 -34.871094 C 23.265625 -35.707031 25.980469 -35.984375 29.796875 -35.707031 L 29.601562 -33.058594 L 29.277344 -35.695312 C 30.222656 -35.808594 31 -35.984375 31.613281 -36.210938 C 32.0625 -36.378906 32.382812 -36.5625 32.578125 -36.757812 L 34.453125 -34.878906 L 32.503906 -36.679688 C 32.441406 -36.609375 32.40625 -36.558594 32.394531 -36.523438 C 32.429688 -36.652344 32.433594 -36.847656 32.414062 -37.109375 L 32.214844 -39.796875 L 34.90625 -39.957031 C 35.113281 -39.96875 35.324219 -40.042969 35.53125 -40.179688 C 35.707031 -40.296875 35.832031 -40.441406 35.90625 -40.613281 L 35.933594 -40.675781 L 35.964844 -40.738281 C 36.039062 -40.886719 36.066406 -41.011719 36.042969 -41.101562 C 35.988281 -41.332031 35.785156 -41.625 35.429688 -41.980469 L 37.304688 -43.855469 L 35.714844 -41.734375 C 34.929688 -42.324219 34.140625 -42.894531 33.359375 -43.441406 C 32.867188 -43.785156 32.246094 -44.023438 31.496094 -44.15625 C 28.488281 -44.699219 25.539062 -44.652344 22.648438 -44.007812 C 21.195312 -43.652344 19.203125 -42.824219 16.671875 -41.523438 C 14.640625 -40.421875 12.992188 -39.003906 11.734375 -37.265625 C 11.023438 -36.289062 10.429688 -35.152344 9.949219 -33.859375 C 9.464844 -32.570312 9.132812 -30.890625 8.953125 -28.824219 C 8.800781 -27.082031 9.15625 -25.476562 10.023438 -24 C 10.992188 -22.351562 12.34375 -20.886719 14.074219 -19.601562 L 14.28125 -19.453125 L 14.453125 -19.261719 C 14.785156 -18.898438 15.210938 -18.523438 15.726562 -18.136719 C 16.445312 -17.597656 17.101562 -17.054688 17.691406 -16.507812 L 15.894531 -14.558594 L 17.640625 -16.554688 C 19.777344 -14.683594 20.574219 -12.785156 20.023438 -10.855469 L 20.011719 -10.816406 L 19.996094 -10.773438 C 19.617188 -9.597656 18.746094 -8.574219 17.375 -7.707031 C 16.359375 -7.0625 15.011719 -6.464844 13.324219 -5.910156 L 12.496094 -8.433594 L 13.558594 -6 C 12.535156 -5.550781 11.363281 -5.359375 10.042969 -5.417969 C 8.996094 -5.464844 7.199219 -5.746094 4.652344 -6.261719 C 3.46875 -6.519531 2.550781 -6.570312 1.894531 -6.414062 C 1.550781 -6.328125 1.308594 -6.171875 1.164062 -5.941406 L -1.09375 -7.339844 L 1.242188 -6.074219 C 0.78125 -5.230469 0.628906 -4.445312 0.777344 -3.726562 C 0.949219 -2.917969 1.367188 -2.195312 2.035156 -1.566406 C 2.824219 -0.820312 3.898438 -0.214844 5.253906 0.25 C 6.660156 0.726562 8.230469 0.933594 9.964844 0.867188 Z M 9.964844 0.867188 "/></g></g><g style="fill:#000000;fill-opacity:1;"><g transform="translate(119.849404, 210.374986)"><path style="stroke:none" d="M 26.328125 -45.203125 C 26.808594 -43.910156 27.078125 -42.972656 27.144531 -42.390625 C 27.234375 -41.53125 27.117188 -40.726562 26.785156 -39.972656 C 26.472656 -39.257812 25.988281 -38.628906 25.332031 -38.097656 L 23.65625 -40.15625 L 26.3125 -40.15625 C 26.3125 -39.382812 26.011719 -38.699219 25.414062 -38.097656 L 23.535156 -39.976562 L 26.144531 -40.472656 C 26.558594 -38.300781 26.648438 -36.25 26.414062 -34.316406 C 26.203125 -32.582031 25.925781 -30.910156 25.585938 -29.296875 L 22.988281 -29.84375 L 20.703125 -31.1875 C 22.933594 -34.992188 24.726562 -37.800781 26.078125 -39.617188 C 28.929688 -43.460938 31.632812 -46.238281 34.195312 -47.945312 L 34.265625 -47.992188 L 34.339844 -48.035156 C 35.359375 -48.625 36.570312 -49.0625 37.96875 -49.339844 C 39.390625 -49.625 40.765625 -49.664062 42.09375 -49.449219 C 43.65625 -49.199219 44.96875 -48.558594 46.039062 -47.523438 C 47.289062 -46.308594 47.851562 -44.644531 47.71875 -42.539062 L 47.710938 -42.433594 L 47.699219 -42.328125 C 46.558594 -34.402344 45.339844 -27.011719 44.039062 -20.160156 C 42.722656 -13.230469 41.015625 -6.613281 38.914062 -0.3125 L 36.394531 -1.152344 L 39.050781 -1.152344 L 39.050781 1.621094 L 36.335938 1.621094 L 36.335938 -1.03125 L 38.851562 -0.191406 C 38.082031 2.121094 36.292969 3.71875 33.488281 4.59375 C 31.035156 5.324219 28.800781 5.363281 26.78125 4.707031 L 27.601562 2.183594 L 26.863281 4.734375 C 25.445312 4.324219 24.355469 3.675781 23.59375 2.785156 C 22.679688 1.714844 22.308594 0.441406 22.476562 -1.027344 L 25.113281 -0.726562 L 22.460938 -0.84375 L 22.523438 -2.238281 L 25.175781 -2.125 L 22.519531 -2.125 L 22.519531 -2.464844 L 22.554688 -2.679688 C 22.703125 -3.558594 22.78125 -4.121094 22.796875 -4.371094 C 22.828125 -4.878906 22.882812 -5.296875 22.964844 -5.617188 L 25.539062 -4.972656 L 22.890625 -5.175781 C 22.988281 -6.410156 23.191406 -7.570312 23.503906 -8.652344 C 23.75 -9.503906 23.925781 -10.179688 24.035156 -10.6875 C 24.160156 -11.273438 24.285156 -11.832031 24.414062 -12.355469 C 24.515625 -12.78125 24.582031 -13.09375 24.609375 -13.296875 L 27.238281 -12.921875 L 29.378906 -11.355469 C 27.664062 -9.007812 26.359375 -7.527344 25.464844 -6.910156 C 23.371094 -5.445312 20.957031 -4.765625 18.21875 -4.871094 L 18.160156 -4.871094 C 15.6875 -5.023438 14.148438 -5.890625 13.539062 -7.480469 L 13.527344 -7.507812 L 13.515625 -7.539062 C 13.328125 -8.058594 13.175781 -8.457031 13.054688 -8.746094 C 13.007812 -8.851562 12.972656 -8.933594 12.945312 -8.984375 C 12.972656 -8.933594 13.019531 -8.863281 13.09375 -8.777344 L 13.066406 -8.808594 L 13.042969 -8.839844 C 12.5625 -9.476562 12.203125 -10.371094 11.960938 -11.523438 L 14.558594 -12.070312 L 17.148438 -11.484375 C 16.046875 -6.613281 14.933594 -3.101562 13.820312 -0.957031 C 13.367188 -0.101562 12.914062 0.667969 12.460938 1.351562 L 10.25 -0.121094 L 12.695312 0.914062 C 11.789062 3.050781 9.902344 4.492188 7.039062 5.238281 C 4.628906 5.902344 2.296875 5.84375 0.0351562 5.054688 L 0.910156 2.546875 L 0.105469 5.078125 C -1.273438 4.636719 -2.339844 3.96875 -3.09375 3.070312 C -3.96875 2.03125 -4.367188 0.796875 -4.289062 -0.632812 C -4.199219 -2.238281 -3.882812 -4.21875 -3.34375 -6.566406 C -2.832031 -8.8125 -2.222656 -11.1875 -1.523438 -13.695312 C 0.554688 -21.558594 2.042969 -26.703125 2.941406 -29.128906 C 3.832031 -31.535156 4.59375 -33.433594 5.226562 -34.824219 C 6.78125 -38.148438 8.1875 -40.597656 9.453125 -42.179688 L 11.527344 -40.519531 L 9.144531 -41.691406 C 9.960938 -43.351562 11.0625 -44.695312 12.453125 -45.71875 C 13.824219 -46.734375 15.441406 -47.40625 17.300781 -47.742188 C 20.238281 -48.308594 22.859375 -47.921875 25.171875 -46.574219 L 25.996094 -46.097656 Z M 21.351562 -43.359375 L 23.839844 -44.28125 L 22.503906 -41.988281 C 21.339844 -42.664062 19.917969 -42.84375 18.246094 -42.519531 C 17.195312 -42.328125 16.3125 -41.972656 15.601562 -41.449219 C 14.910156 -40.9375 14.34375 -40.238281 13.90625 -39.347656 L 13.777344 -39.089844 L 13.597656 -38.863281 C 12.597656 -37.613281 11.417969 -35.535156 10.058594 -32.628906 C 9.480469 -31.351562 8.765625 -29.570312 7.917969 -27.285156 C 7.078125 -25.019531 5.632812 -20.015625 3.585938 -12.269531 C 2.910156 -9.839844 2.324219 -7.546875 1.828125 -5.382812 C 1.355469 -3.324219 1.085938 -1.644531 1.011719 -0.339844 C 1.011719 -0.304688 1.011719 -0.277344 1.011719 -0.257812 L 1.011719 -0.265625 C 1 -0.296875 0.988281 -0.324219 0.96875 -0.34375 C 1.066406 -0.230469 1.3125 -0.109375 1.714844 0.0195312 L 1.785156 0.0429688 C 3 0.464844 4.308594 0.484375 5.703125 0.101562 C 6.878906 -0.207031 7.582031 -0.625 7.808594 -1.15625 L 7.90625 -1.386719 L 8.042969 -1.59375 C 8.398438 -2.125 8.753906 -2.730469 9.109375 -3.410156 C 10.015625 -5.148438 10.96875 -8.230469 11.96875 -12.65625 L 17.15625 -12.617188 C 17.210938 -12.363281 17.265625 -12.15625 17.320312 -12.007812 C 17.335938 -11.96875 17.34375 -11.941406 17.351562 -11.925781 C 17.339844 -11.953125 17.316406 -11.984375 17.289062 -12.027344 L 15.164062 -10.433594 L 17.238281 -12.089844 C 17.585938 -11.65625 18.007812 -10.734375 18.511719 -9.324219 L 16.015625 -8.433594 L 18.492188 -9.382812 C 18.378906 -9.671875 18.214844 -9.910156 17.996094 -10.097656 C 17.890625 -10.183594 17.800781 -10.246094 17.714844 -10.277344 C 17.839844 -10.230469 18.09375 -10.195312 18.480469 -10.171875 L 18.320312 -7.523438 L 18.417969 -10.175781 C 19.96875 -10.117188 21.3125 -10.484375 22.457031 -11.285156 C 22.589844 -11.378906 22.855469 -11.652344 23.25 -12.113281 C 23.75 -12.699219 24.367188 -13.492188 25.09375 -14.488281 L 29.863281 -12.546875 C 29.8125 -12.179688 29.714844 -11.703125 29.574219 -11.117188 C 29.457031 -10.632812 29.339844 -10.121094 29.226562 -9.574219 C 29.089844 -8.949219 28.882812 -8.148438 28.601562 -7.179688 C 28.390625 -6.445312 28.25 -5.640625 28.183594 -4.769531 L 28.167969 -4.546875 L 28.113281 -4.332031 C 28.117188 -4.355469 28.125 -4.375 28.125 -4.390625 C 28.125 -4.378906 28.121094 -4.367188 28.121094 -4.347656 C 28.109375 -4.273438 28.101562 -4.179688 28.097656 -4.058594 C 28.070312 -3.621094 27.96875 -2.871094 27.792969 -1.808594 L 25.175781 -2.246094 L 27.828125 -2.246094 L 27.828125 -2.066406 L 27.761719 -0.519531 L 27.75 -0.425781 C 27.746094 -0.40625 27.746094 -0.398438 27.746094 -0.390625 C 27.746094 -0.414062 27.742188 -0.4375 27.734375 -0.464844 C 27.710938 -0.542969 27.679688 -0.609375 27.632812 -0.664062 L 27.625 -0.667969 C 27.652344 -0.648438 27.683594 -0.628906 27.726562 -0.605469 C 27.878906 -0.519531 28.082031 -0.441406 28.335938 -0.367188 L 28.378906 -0.355469 L 28.417969 -0.339844 C 29.390625 -0.0234375 30.554688 -0.0703125 31.902344 -0.46875 C 32.980469 -0.808594 33.617188 -1.273438 33.816406 -1.871094 L 34.421875 -3.683594 L 36.394531 -3.683594 L 36.394531 -1.03125 L 33.742188 -1.03125 L 33.742188 -1.582031 L 33.878906 -1.992188 C 35.902344 -8.066406 37.550781 -14.453125 38.824219 -21.148438 C 40.109375 -27.925781 41.316406 -35.234375 42.445312 -43.082031 L 45.070312 -42.703125 L 42.421875 -42.871094 C 42.441406 -43.199219 42.425781 -43.453125 42.371094 -43.636719 C 42.359375 -43.671875 42.347656 -43.699219 42.339844 -43.714844 C 42.339844 -43.714844 42.339844 -43.714844 42.34375 -43.710938 C 42.078125 -43.96875 41.714844 -44.136719 41.253906 -44.207031 C 40.558594 -44.320312 39.808594 -44.296875 39.007812 -44.136719 C 38.183594 -43.972656 37.511719 -43.738281 36.996094 -43.441406 L 35.667969 -45.738281 L 37.140625 -43.53125 C 35.089844 -42.164062 32.824219 -39.804688 30.335938 -36.449219 C 29.097656 -34.789062 27.414062 -32.136719 25.277344 -28.5 L 20.394531 -30.390625 C 20.699219 -31.855469 20.953125 -33.375 21.144531 -34.957031 C 21.3125 -36.339844 21.242188 -37.847656 20.929688 -39.476562 L 20.664062 -40.855469 L 21.660156 -41.851562 C 21.574219 -41.769531 21.496094 -41.667969 21.417969 -41.554688 C 21.140625 -41.136719 21.003906 -40.671875 21.003906 -40.15625 L 21.003906 -41.421875 L 21.984375 -42.214844 L 21.996094 -42.222656 C 21.96875 -42.191406 21.945312 -42.148438 21.921875 -42.101562 C 21.878906 -41.996094 21.859375 -41.894531 21.867188 -41.804688 C 21.851562 -41.953125 21.679688 -42.472656 21.351562 -43.359375 Z M 21.351562 -43.359375 "/></g></g><g style="fill:#000000;fill-opacity:1;"><g transform="translate(161.762827, 210.374986)"><path style="stroke:none" d="M 34.785156 -43.472656 C 36.851562 -42.378906 38.164062 -40.746094 38.722656 -38.574219 L 38.867188 -38.015625 L 38.765625 -37.445312 C 37.960938 -32.945312 37.238281 -28.476562 36.597656 -24.035156 C 35.941406 -19.519531 35.308594 -15.730469 34.691406 -12.667969 C 34.09375 -9.703125 33.6875 -7.492188 33.472656 -6.039062 C 33.242188 -4.507812 32.984375 -2.976562 32.695312 -1.449219 L 32.671875 -1.328125 L 32.273438 0.0625 L 29.722656 -0.667969 L 32.335938 -0.191406 C 32.25 0.277344 32.164062 0.714844 32.078125 1.121094 C 32 1.484375 31.925781 1.875 31.847656 2.292969 L 31.71875 3.015625 L 31.234375 3.566406 C 29.574219 5.464844 27.371094 6.414062 24.628906 6.414062 C 21.90625 6.414062 19.6875 5.671875 17.976562 4.1875 L 19.714844 2.183594 L 18.085938 4.277344 C 16.433594 2.992188 16 0.875 16.785156 -2.078125 C 16.941406 -2.636719 17.042969 -3.398438 17.09375 -4.355469 C 17.15625 -5.554688 17.230469 -6.5625 17.316406 -7.375 L 19.957031 -7.097656 L 17.304688 -7.097656 L 17.304688 -7.21875 L 19.957031 -7.21875 L 20.871094 -4.726562 C 19.890625 -4.367188 19.015625 -3.90625 18.246094 -3.34375 C 17.285156 -2.644531 16.6875 -2.207031 16.453125 -2.03125 C 15.925781 -1.636719 15.285156 -1.34375 14.535156 -1.15625 C 14.027344 -1.027344 13.558594 -0.9375 13.128906 -0.886719 L 13.035156 -0.871094 L 12.9375 -0.867188 C 12.707031 -0.855469 12.539062 -0.835938 12.425781 -0.8125 C 12.507812 -0.828125 12.621094 -0.890625 12.765625 -0.996094 L 11.222656 -3.15625 L 13.539062 -1.863281 C 12.269531 0.414062 11.046875 2.210938 9.863281 3.53125 C 8.453125 5.101562 7.027344 6.074219 5.582031 6.449219 L 4.914062 3.882812 L 5.699219 6.417969 C 4.136719 6.902344 2.566406 7.023438 0.988281 6.777344 C -1.03125 6.464844 -2.59375 5.328125 -3.703125 3.371094 L -1.394531 2.0625 L -3.210938 4 C -4.492188 2.796875 -5.011719 0.933594 -4.765625 -1.59375 C -4.582031 -3.46875 -3.96875 -5.863281 -2.921875 -8.78125 C -1.835938 -11.75 -0.292969 -15.285156 1.707031 -19.390625 C 3.707031 -23.488281 5.636719 -27.070312 7.5 -30.132812 C 11.546875 -36.769531 16.003906 -42.371094 20.871094 -46.945312 L 21.21875 -47.269531 L 21.65625 -47.457031 C 22.386719 -47.761719 23.179688 -48.121094 24.03125 -48.527344 C 25.242188 -49.105469 26.460938 -49.421875 27.6875 -49.480469 C 28.828125 -49.535156 29.992188 -49.40625 31.183594 -49.09375 C 32.449219 -48.765625 33.542969 -48.25 34.46875 -47.558594 C 35.796875 -46.554688 36.570312 -45.339844 36.789062 -43.914062 C 37 -42.5625 36.675781 -41.175781 35.816406 -39.753906 L 33.546875 -41.128906 Z M 32.304688 -38.78125 L 29.820312 -40.097656 L 31.273438 -42.5 C 31.402344 -42.714844 31.488281 -42.898438 31.527344 -43.046875 C 31.535156 -43.078125 31.539062 -43.105469 31.542969 -43.125 C 31.542969 -43.121094 31.542969 -43.113281 31.542969 -43.101562 C 31.546875 -43.085938 31.550781 -43.066406 31.558594 -43.050781 L 31.554688 -43.050781 C 31.507812 -43.125 31.417969 -43.210938 31.285156 -43.3125 C 30.917969 -43.585938 30.433594 -43.804688 29.84375 -43.957031 C 29.171875 -44.132812 28.535156 -44.207031 27.9375 -44.179688 C 27.421875 -44.15625 26.882812 -44.007812 26.316406 -43.738281 C 25.390625 -43.292969 24.523438 -42.902344 23.714844 -42.5625 L 22.6875 -45.007812 L 24.503906 -43.074219 C 19.988281 -38.832031 15.832031 -33.597656 12.035156 -27.375 C 10.257812 -24.453125 8.40625 -21.015625 6.480469 -17.066406 C 4.558594 -13.125 3.089844 -9.765625 2.074219 -6.992188 C 1.175781 -4.488281 0.660156 -2.515625 0.519531 -1.078125 C 0.464844 -0.519531 0.46875 -0.09375 0.53125 0.203125 C 0.542969 0.257812 0.554688 0.289062 0.558594 0.300781 C 0.527344 0.242188 0.484375 0.183594 0.421875 0.125 L 0.714844 0.402344 L 0.914062 0.753906 C 1.179688 1.222656 1.476562 1.480469 1.800781 1.53125 C 2.570312 1.652344 3.34375 1.589844 4.125 1.347656 L 4.183594 1.328125 L 4.242188 1.3125 C 4.660156 1.207031 5.214844 0.765625 5.910156 -0.0117188 C 6.828125 -1.039062 7.828125 -2.515625 8.902344 -4.445312 L 9.195312 -4.96875 L 9.679688 -5.3125 C 10.382812 -5.816406 11.375 -6.101562 12.660156 -6.167969 L 12.800781 -3.519531 L 12.46875 -6.152344 C 12.6875 -6.179688 12.945312 -6.230469 13.246094 -6.304688 C 13.304688 -6.320312 13.347656 -6.332031 13.375 -6.34375 C 13.347656 -6.332031 13.3125 -6.3125 13.269531 -6.277344 C 13.519531 -6.46875 14.136719 -6.917969 15.117188 -7.632812 C 16.289062 -8.488281 17.597656 -9.179688 19.042969 -9.710938 L 22.609375 -11.019531 L 22.609375 -6.957031 L 22.597656 -6.820312 C 22.519531 -6.097656 22.453125 -5.183594 22.394531 -4.078125 C 22.324219 -2.730469 22.164062 -1.609375 21.914062 -0.710938 C 21.753906 -0.113281 21.691406 0.320312 21.71875 0.597656 L 21.71875 0.605469 C 21.707031 0.570312 21.695312 0.53125 21.671875 0.488281 C 21.597656 0.335938 21.488281 0.203125 21.34375 0.0898438 L 21.398438 0.132812 L 21.453125 0.179688 C 22.167969 0.796875 23.226562 1.105469 24.628906 1.105469 C 25.765625 1.105469 26.636719 0.761719 27.242188 0.0703125 L 29.238281 1.820312 L 26.628906 1.34375 C 26.710938 0.875 26.796875 0.4375 26.882812 0.03125 C 26.960938 -0.332031 27.035156 -0.722656 27.113281 -1.140625 L 27.136719 -1.269531 L 27.535156 -2.671875 L 30.085938 -1.941406 L 27.480469 -2.433594 C 27.757812 -3.894531 28.003906 -5.359375 28.21875 -6.820312 C 28.449219 -8.359375 28.871094 -10.660156 29.488281 -13.71875 C 30.085938 -16.683594 30.703125 -20.375 31.34375 -24.796875 C 31.996094 -29.292969 32.726562 -33.820312 33.539062 -38.378906 L 36.152344 -37.914062 L 33.582031 -37.25 C 33.414062 -37.910156 32.988281 -38.417969 32.304688 -38.78125 Z M 23.070312 -24.296875 C 22.203125 -21.824219 21.335938 -19.542969 20.464844 -17.453125 C 19.625 -15.425781 18.902344 -13.648438 18.300781 -12.128906 L 15.832031 -13.101562 L 15.730469 -15.753906 L 20.523438 -15.9375 L 20.625 -13.285156 L 17.992188 -13.613281 C 18.316406 -16.230469 18.6875 -18.828125 19.09375 -21.40625 C 19.496094 -23.9375 19.878906 -26.472656 20.242188 -29.007812 L 22.867188 -28.632812 L 25.078125 -27.160156 L 22.773438 -23.703125 L 20.5625 -25.175781 Z M 18.167969 -26.367188 L 20.660156 -30.105469 L 25.496094 -28.257812 C 25.128906 -25.695312 24.742188 -23.132812 24.335938 -20.574219 C 23.9375 -18.054688 23.578125 -15.515625 23.257812 -12.957031 L 22.976562 -10.71875 L 11.871094 -10.296875 L 13.363281 -14.078125 C 13.976562 -15.628906 14.710938 -17.433594 15.566406 -19.488281 C 16.394531 -21.484375 17.226562 -23.671875 18.058594 -26.050781 Z M 18.925781 -15.695312 C 19.367188 -15.695312 19.808594 -15.726562 20.25 -15.789062 L 20.625 -13.164062 L 17.96875 -13.164062 L 17.96875 -13.222656 L 20.625 -13.222656 L 20.828125 -10.578125 C 20.316406 -10.539062 19.839844 -10.5 19.410156 -10.460938 C 19.320312 -10.453125 19.25 -10.445312 19.207031 -10.441406 C 19.273438 -10.449219 19.34375 -10.464844 19.417969 -10.480469 C 19.601562 -10.527344 19.777344 -10.59375 19.949219 -10.679688 C 20.3125 -10.859375 20.617188 -11.113281 20.863281 -11.433594 C 21.183594 -11.847656 21.363281 -12.316406 21.40625 -12.839844 C 21.457031 -13.449219 21.308594 -14.011719 20.96875 -14.523438 C 20.507812 -15.214844 19.867188 -15.605469 19.046875 -15.6875 C 18.992188 -15.691406 18.949219 -15.695312 18.90625 -15.695312 C 18.90625 -15.695312 18.914062 -15.695312 18.925781 -15.695312 Z M 18.925781 -10.386719 C 18.765625 -10.386719 18.628906 -10.394531 18.519531 -10.40625 C 17.671875 -10.488281 17.019531 -10.878906 16.554688 -11.578125 C 16.210938 -12.089844 16.066406 -12.652344 16.117188 -13.261719 C 16.15625 -13.785156 16.335938 -14.253906 16.65625 -14.671875 C 16.90625 -14.992188 17.210938 -15.246094 17.578125 -15.425781 C 17.753906 -15.515625 17.9375 -15.582031 18.128906 -15.632812 C 18.304688 -15.675781 18.570312 -15.714844 18.929688 -15.746094 C 19.386719 -15.789062 19.882812 -15.828125 20.421875 -15.871094 L 23.277344 -16.089844 L 23.277344 -10.863281 L 21 -10.535156 C 20.308594 -10.4375 19.617188 -10.386719 18.925781 -10.386719 Z M 18.925781 -10.386719 "/></g></g><g style="fill:#000000;fill-opacity:1;"><g transform="translate(195.972911, 210.374986)"><path style="stroke:none" d="M 24.582031 -30.207031 C 24.582031 -30.308594 24.578125 -30.371094 24.570312 -30.402344 C 24.597656 -30.296875 24.652344 -30.179688 24.742188 -30.050781 C 24.90625 -29.820312 25.117188 -29.644531 25.378906 -29.519531 C 25.582031 -29.421875 25.773438 -29.375 25.960938 -29.375 C 25.980469 -29.375 26 -29.375 26.011719 -29.375 C 26.003906 -29.375 25.992188 -29.375 25.976562 -29.371094 C 25.910156 -29.355469 25.820312 -29.328125 25.71875 -29.292969 C 25.222656 -29.113281 24.75 -28.957031 24.296875 -28.820312 L 23.535156 -31.359375 L 24.796875 -29.027344 C 23.582031 -28.371094 22.667969 -27.6875 22.046875 -26.976562 C 21.273438 -26.089844 20.484375 -25.089844 19.679688 -23.980469 C 18.933594 -22.953125 18.296875 -21.851562 17.761719 -20.679688 C 17.214844 -19.472656 16.796875 -18.347656 16.511719 -17.308594 C 16.023438 -15.515625 15.863281 -14.074219 16.03125 -12.988281 C 16.140625 -12.261719 16.410156 -11.742188 16.84375 -11.429688 C 17.207031 -11.171875 17.566406 -11.046875 17.929688 -11.054688 C 18.394531 -11.066406 18.714844 -11.125 18.890625 -11.234375 C 19.503906 -11.613281 20.109375 -11.972656 20.703125 -12.3125 C 21.527344 -12.785156 22.457031 -13.117188 23.496094 -13.3125 C 24.675781 -13.539062 26.035156 -13.414062 27.566406 -12.9375 C 29.746094 -12.265625 30.957031 -11.089844 31.199219 -9.414062 C 31.3125 -8.605469 31.316406 -7.777344 31.203125 -6.929688 C 31.152344 -6.546875 31.140625 -6.230469 31.175781 -5.96875 C 31.105469 -6.507812 30.859375 -6.925781 30.429688 -7.226562 C 30.335938 -7.292969 30.246094 -7.339844 30.164062 -7.367188 L 30.160156 -7.371094 C 30.183594 -7.367188 30.207031 -7.359375 30.238281 -7.355469 L 31.273438 -7.199219 L 31.925781 -6.378906 C 32.421875 -5.753906 32.71875 -5.066406 32.816406 -4.3125 C 32.914062 -3.574219 32.8125 -2.839844 32.507812 -2.109375 C 32.089844 -1.097656 31.265625 -0.105469 30.035156 0.867188 C 29.605469 1.21875 29.183594 1.5625 28.773438 1.890625 L 28.664062 1.976562 L 28.542969 2.054688 C 24.679688 4.523438 20.558594 5.894531 16.179688 6.167969 C 13.335938 6.355469 10.339844 5.855469 7.191406 4.667969 C 4.574219 3.675781 2.519531 2.058594 1.035156 -0.1875 C -0.382812 -2.324219 -1.246094 -4.988281 -1.550781 -8.179688 L 1.09375 -8.433594 L -1.539062 -8.078125 C -2.285156 -13.605469 -1.589844 -19.300781 0.539062 -25.167969 C 2.304688 -30.078125 4.972656 -34.621094 8.539062 -38.789062 C 11.863281 -42.734375 15.222656 -45.335938 18.613281 -46.589844 L 19.53125 -44.101562 L 18.3125 -46.457031 C 22.296875 -48.519531 26.59375 -49.320312 31.199219 -48.863281 L 31.238281 -48.859375 L 31.28125 -48.855469 C 33.84375 -48.519531 36 -47.78125 37.75 -46.644531 C 39.617188 -45.429688 40.988281 -43.800781 41.867188 -41.75 C 43.496094 -37.953125 43.277344 -33.53125 41.21875 -28.480469 C 40.378906 -26.347656 38.816406 -24.683594 36.535156 -23.488281 L 35.304688 -25.839844 L 36.59375 -23.519531 C 34.738281 -22.488281 32.730469 -21.972656 30.574219 -21.972656 C 29.3125 -21.972656 28.226562 -22.199219 27.3125 -22.648438 C 26.195312 -23.195312 25.382812 -24.027344 24.878906 -25.140625 C 24.128906 -26.800781 24.0625 -28.730469 24.683594 -30.929688 L 27.238281 -30.207031 Z M 29.890625 -30.207031 L 29.890625 -29.839844 L 29.789062 -29.488281 C 29.519531 -28.53125 29.496094 -27.8125 29.714844 -27.332031 C 29.695312 -27.371094 29.671875 -27.402344 29.648438 -27.414062 C 29.828125 -27.324219 30.132812 -27.28125 30.574219 -27.28125 C 31.8125 -27.28125 32.960938 -27.574219 34.015625 -28.160156 L 34.042969 -28.175781 L 34.074219 -28.191406 C 35.1875 -28.777344 35.933594 -29.539062 36.304688 -30.480469 C 37.804688 -34.164062 38.03125 -37.222656 36.988281 -39.65625 C 36.535156 -40.71875 35.824219 -41.566406 34.859375 -42.191406 C 33.78125 -42.894531 32.359375 -43.359375 30.59375 -43.589844 L 30.9375 -46.222656 L 30.675781 -43.582031 C 27.113281 -43.933594 23.804688 -43.320312 20.75 -41.742188 L 20.605469 -41.667969 L 20.453125 -41.609375 C 17.9375 -40.679688 15.3125 -38.589844 12.570312 -35.335938 C 9.425781 -31.660156 7.078125 -27.667969 5.527344 -23.359375 C 3.695312 -18.308594 3.09375 -13.449219 3.722656 -8.785156 L 3.730469 -8.734375 L 3.734375 -8.683594 C 3.953125 -6.375 4.527344 -4.519531 5.457031 -3.121094 C 6.316406 -1.824219 7.515625 -0.886719 9.0625 -0.300781 C 11.496094 0.617188 13.757812 1.007812 15.851562 0.871094 C 19.316406 0.65625 22.59375 -0.441406 25.683594 -2.417969 L 27.113281 -0.183594 L 25.457031 -2.253906 C 25.855469 -2.570312 26.28125 -2.917969 26.742188 -3.296875 C 27.050781 -3.539062 27.289062 -3.757812 27.457031 -3.953125 C 27.546875 -4.050781 27.59375 -4.113281 27.605469 -4.140625 C 27.542969 -3.992188 27.527344 -3.820312 27.554688 -3.617188 C 27.582031 -3.402344 27.652344 -3.222656 27.765625 -3.085938 L 29.84375 -4.730469 L 29.449219 -2.105469 C 28.636719 -2.230469 27.949219 -2.484375 27.394531 -2.875 C 26.53125 -3.476562 26.035156 -4.289062 25.90625 -5.3125 C 25.816406 -6.023438 25.828125 -6.796875 25.941406 -7.628906 C 25.988281 -7.996094 25.988281 -8.339844 25.945312 -8.664062 C 26.003906 -8.230469 26.175781 -7.90625 26.453125 -7.695312 C 26.40625 -7.730469 26.253906 -7.789062 25.996094 -7.867188 C 25.304688 -8.082031 24.800781 -8.160156 24.484375 -8.097656 C 24.027344 -8.011719 23.644531 -7.882812 23.335938 -7.703125 C 22.796875 -7.398438 22.25 -7.070312 21.691406 -6.722656 C 20.691406 -6.101562 19.476562 -5.777344 18.042969 -5.75 C 16.503906 -5.714844 15.066406 -6.175781 13.726562 -7.132812 C 10.675781 -9.347656 9.898438 -13.207031 11.394531 -18.722656 C 11.753906 -20.027344 12.265625 -21.414062 12.929688 -22.875 C 13.609375 -24.371094 14.429688 -25.777344 15.382812 -27.09375 C 16.277344 -28.332031 17.167969 -29.457031 18.046875 -30.46875 C 19.085938 -31.660156 20.496094 -32.734375 22.273438 -33.695312 L 22.511719 -33.824219 L 22.773438 -33.902344 C 23.128906 -34.011719 23.503906 -34.136719 23.902344 -34.28125 C 24.640625 -34.546875 25.328125 -34.683594 25.960938 -34.683594 C 26.574219 -34.683594 27.140625 -34.558594 27.660156 -34.3125 C 28.242188 -34.035156 28.71875 -33.628906 29.09375 -33.09375 C 29.625 -32.335938 29.890625 -31.371094 29.890625 -30.207031 Z M 29.890625 -30.207031 "/></g></g><g style="fill:#000000;fill-opacity:1;"><g transform="translate(230.728902, 210.374986)"><path style="stroke:none" d="M 8.464844 -44.082031 C 9.070312 -45.546875 9.890625 -46.59375 10.929688 -47.230469 C 12.210938 -48.011719 13.605469 -48.121094 15.117188 -47.558594 L 14.195312 -45.070312 L 11.777344 -46.167969 C 12.359375 -47.445312 12.964844 -48.335938 13.597656 -48.839844 C 14.082031 -49.230469 14.59375 -49.542969 15.132812 -49.777344 L 16.15625 -50.226562 C 16.726562 -50.484375 17.515625 -50.6875 18.511719 -50.847656 C 19.398438 -50.984375 20.367188 -51.066406 21.414062 -51.089844 C 22.476562 -51.113281 23.550781 -51.054688 24.628906 -50.917969 C 25.964844 -50.746094 27.121094 -50.355469 28.097656 -49.746094 L 26.691406 -47.496094 L 28.039062 -49.78125 C 29.480469 -48.929688 30.375 -47.761719 30.71875 -46.269531 C 31.019531 -44.957031 30.832031 -43.519531 30.160156 -41.957031 L 27.722656 -43.007812 L 26.535156 -45.382812 C 26.929688 -45.578125 27.339844 -45.675781 27.761719 -45.675781 C 28.234375 -45.675781 28.675781 -45.558594 29.085938 -45.328125 C 29.742188 -44.953125 30.160156 -44.398438 30.34375 -43.664062 C 30.503906 -43.027344 30.4375 -42.410156 30.140625 -41.820312 C 30.003906 -41.542969 29.800781 -41.273438 29.539062 -41.011719 L 27.660156 -42.886719 L 30.007812 -41.644531 L 29.351562 -40.410156 L 28.683594 -39.550781 L 28.566406 -39.433594 C 28.664062 -39.53125 28.742188 -39.621094 28.800781 -39.707031 C 28.792969 -39.699219 28.78125 -39.675781 28.757812 -39.636719 C 28.675781 -39.5 28.570312 -39.296875 28.433594 -39.03125 C 28.136719 -38.441406 27.730469 -37.59375 27.21875 -36.492188 L 27.191406 -36.433594 L 27.160156 -36.375 C 26.296875 -34.734375 25.414062 -33.113281 24.511719 -31.511719 C 23.113281 -28.910156 22.269531 -27.261719 21.976562 -26.570312 L 19.53125 -27.601562 L 18.265625 -29.933594 C 19.550781 -30.628906 21.066406 -31.660156 22.808594 -33.027344 C 26.453125 -35.832031 28.820312 -37.53125 29.914062 -38.121094 C 31.035156 -38.730469 31.867188 -39.117188 32.414062 -39.289062 C 33.203125 -39.539062 33.988281 -39.597656 34.769531 -39.46875 C 35.324219 -39.375 35.890625 -39.214844 36.472656 -38.980469 L 37.988281 -38.375 L 37.003906 -35.910156 L 37.84375 -38.429688 C 39.972656 -37.71875 41.101562 -35.742188 41.230469 -32.5 C 41.285156 -29.816406 40.675781 -27.71875 39.398438 -26.195312 L 37.367188 -27.902344 L 39.46875 -26.28125 C 35.46875 -21.09375 30.914062 -17.605469 25.808594 -15.816406 C 24.328125 -15.265625 22.789062 -14.792969 21.191406 -14.40625 L 20.5625 -16.984375 L 20.863281 -19.621094 C 23.765625 -19.292969 26.414062 -17.53125 28.8125 -14.332031 C 30.570312 -11.988281 31.847656 -9.5625 32.648438 -7.050781 C 33.339844 -4.871094 33.882812 -3.269531 34.269531 -2.242188 C 34.820312 -0.777344 35.046875 0.453125 34.941406 1.457031 C 34.859375 2.25 34.578125 2.957031 34.097656 3.578125 C 33.671875 4.132812 33.113281 4.574219 32.425781 4.90625 C 31.589844 5.3125 30.304688 5.679688 28.578125 6.003906 C 27.582031 6.179688 26.453125 5.90625 25.191406 5.1875 C 24.359375 4.710938 23.351562 3.992188 22.167969 3.03125 C 21.210938 2.242188 20.195312 1.382812 19.128906 0.460938 C 18.117188 -0.417969 17.105469 -1.242188 16.09375 -2.019531 C 14.964844 -2.90625 14.027344 -3.566406 13.28125 -4 C 12.96875 -4.183594 12.707031 -4.316406 12.492188 -4.402344 C 12.425781 -4.429688 12.371094 -4.449219 12.328125 -4.460938 C 12.347656 -4.457031 12.371094 -4.453125 12.398438 -4.453125 L 12.617188 -7.097656 L 12.617188 -4.441406 C 12.25 -4.441406 11.808594 -4.527344 11.292969 -4.699219 L 12.132812 -7.21875 L 14.597656 -6.234375 L 13.503906 -3.503906 C 12.933594 -2.152344 12.355469 -0.75 11.777344 0.707031 C 11.117188 2.371094 10.324219 3.871094 9.402344 5.207031 L 9.121094 5.617188 L 8.707031 5.898438 C 6.925781 7.105469 4.886719 7.597656 2.59375 7.371094 C 1.230469 7.226562 0.0664062 6.859375 -0.902344 6.265625 C -1.992188 5.597656 -2.796875 4.683594 -3.324219 3.523438 L -3.390625 3.386719 L -3.4375 3.242188 C -3.773438 2.191406 -3.738281 0.527344 -3.324219 -1.746094 C -2.976562 -3.671875 -2.355469 -6.203125 -1.460938 -9.339844 C -0.296875 -13.601562 0.710938 -17.34375 1.558594 -20.570312 C 2.410156 -23.824219 3.144531 -26.523438 3.757812 -28.664062 C 4.351562 -30.746094 4.785156 -32.367188 5.0625 -33.519531 C 5.347656 -34.722656 5.632812 -35.898438 5.917969 -37.039062 C 6.660156 -39.871094 7.539062 -42.285156 8.554688 -44.277344 L 10.917969 -43.070312 Z M 13.371094 -42.054688 L 13.332031 -41.957031 L 13.28125 -41.859375 C 12.4375 -40.210938 11.699219 -38.175781 11.066406 -35.753906 C 10.785156 -34.628906 10.507812 -33.476562 10.226562 -32.296875 C 9.933594 -31.0625 9.476562 -29.367188 8.859375 -27.203125 C 8.257812 -25.101562 7.535156 -22.4375 6.691406 -19.222656 C 5.839844 -15.980469 4.824219 -12.199219 3.644531 -7.886719 C 2.796875 -4.917969 2.214844 -2.554688 1.898438 -0.800781 C 1.75 0.0078125 1.664062 0.667969 1.636719 1.171875 C 1.628906 1.367188 1.625 1.527344 1.636719 1.648438 C 1.636719 1.675781 1.640625 1.699219 1.640625 1.707031 C 1.636719 1.683594 1.628906 1.652344 1.617188 1.613281 L -0.910156 2.425781 L 1.507812 1.328125 C 1.695312 1.742188 2.230469 1.996094 3.109375 2.089844 C 4.132812 2.191406 5.003906 1.996094 5.730469 1.503906 L 7.21875 3.699219 L 5.035156 2.195312 C 5.730469 1.1875 6.332031 0.0351562 6.84375 -1.253906 C 7.4375 -2.746094 8.015625 -4.15625 8.574219 -5.472656 L 10.597656 -10.527344 L 12.972656 -9.734375 C 13.027344 -9.71875 13.0625 -9.707031 13.078125 -9.703125 C 12.949219 -9.734375 12.792969 -9.75 12.617188 -9.75 L 12.726562 -9.75 L 12.835938 -9.742188 C 13.722656 -9.667969 14.761719 -9.28125 15.957031 -8.585938 C 16.910156 -8.03125 18.035156 -7.242188 19.332031 -6.226562 C 20.421875 -5.386719 21.515625 -4.496094 22.605469 -3.554688 C 23.640625 -2.65625 24.609375 -1.835938 25.511719 -1.089844 C 26.472656 -0.3125 27.242188 0.242188 27.824219 0.578125 C 28.023438 0.691406 28.167969 0.761719 28.257812 0.789062 C 28.101562 0.738281 27.878906 0.738281 27.59375 0.789062 C 28.859375 0.550781 29.699219 0.328125 30.113281 0.128906 C 30.054688 0.15625 29.980469 0.226562 29.898438 0.332031 C 29.761719 0.507812 29.683594 0.703125 29.660156 0.910156 L 29.65625 0.90625 C 29.652344 0.839844 29.640625 0.757812 29.621094 0.660156 C 29.5625 0.382812 29.457031 0.0390625 29.304688 -0.367188 C 28.882812 -1.484375 28.308594 -3.175781 27.589844 -5.441406 C 26.972656 -7.382812 25.964844 -9.28125 24.566406 -11.144531 C 23.085938 -13.125 21.648438 -14.191406 20.265625 -14.347656 L 19.9375 -19.5625 C 21.332031 -19.902344 22.703125 -20.324219 24.050781 -20.824219 C 28.167969 -22.265625 31.90625 -25.167969 35.265625 -29.523438 L 35.296875 -29.566406 L 35.335938 -29.609375 C 35.757812 -30.113281 35.953125 -31.003906 35.929688 -32.285156 C 35.902344 -32.957031 35.828125 -33.429688 35.703125 -33.703125 C 35.699219 -33.714844 35.695312 -33.722656 35.691406 -33.726562 C 35.691406 -33.726562 35.691406 -33.726562 35.695312 -33.722656 C 35.714844 -33.695312 35.738281 -33.664062 35.769531 -33.632812 C 35.878906 -33.523438 36.007812 -33.445312 36.164062 -33.394531 L 36.089844 -33.417969 L 34.5 -34.054688 C 34.273438 -34.144531 34.074219 -34.203125 33.898438 -34.234375 C 33.953125 -34.222656 33.988281 -34.222656 34.011719 -34.230469 C 33.789062 -34.160156 33.265625 -33.902344 32.441406 -33.457031 C 31.597656 -32.996094 29.476562 -31.460938 26.082031 -28.847656 C 24.105469 -27.300781 22.34375 -26.105469 20.796875 -25.269531 L 14.152344 -21.660156 L 17.085938 -28.628906 C 17.441406 -29.476562 18.378906 -31.304688 19.890625 -34.121094 C 20.765625 -35.675781 21.625 -37.25 22.460938 -38.84375 L 24.808594 -37.609375 L 22.402344 -38.726562 C 22.941406 -39.886719 23.375 -40.789062 23.703125 -41.433594 C 24.144531 -42.300781 24.515625 -42.886719 24.8125 -43.1875 L 26.691406 -41.308594 L 24.59375 -42.9375 L 25.019531 -43.484375 L 27.113281 -41.855469 L 24.769531 -43.097656 L 25.503906 -44.480469 L 25.785156 -44.761719 C 25.640625 -44.621094 25.511719 -44.429688 25.394531 -44.195312 C 25.101562 -43.613281 25.039062 -43.007812 25.195312 -42.375 C 25.378906 -41.644531 25.796875 -41.09375 26.449219 -40.71875 C 26.859375 -40.484375 27.296875 -40.371094 27.761719 -40.371094 C 28.171875 -40.371094 28.554688 -40.457031 28.910156 -40.632812 L 22.40625 -37.382812 L 25.285156 -44.058594 C 25.5 -44.558594 25.585938 -44.898438 25.542969 -45.082031 C 25.546875 -45.066406 25.554688 -45.054688 25.5625 -45.046875 C 25.527344 -45.089844 25.453125 -45.144531 25.34375 -45.210938 L 25.3125 -45.226562 L 25.285156 -45.246094 C 24.964844 -45.445312 24.523438 -45.582031 23.957031 -45.652344 C 23.136719 -45.757812 22.328125 -45.800781 21.53125 -45.785156 C 20.71875 -45.765625 19.988281 -45.707031 19.339844 -45.601562 C 18.800781 -45.519531 18.453125 -45.441406 18.296875 -45.371094 L 17.261719 -44.914062 C 17.148438 -44.867188 17.035156 -44.792969 16.914062 -44.695312 C 16.984375 -44.753906 17.042969 -44.804688 17.078125 -44.851562 C 17.066406 -44.835938 17.042969 -44.804688 17.011719 -44.753906 C 16.898438 -44.570312 16.765625 -44.3125 16.609375 -43.972656 L 15.585938 -41.722656 L 13.269531 -42.582031 C 13.25 -42.589844 13.234375 -42.59375 13.234375 -42.59375 C 13.261719 -42.589844 13.300781 -42.589844 13.34375 -42.589844 C 13.472656 -42.597656 13.589844 -42.632812 13.699219 -42.699219 C 13.722656 -42.714844 13.742188 -42.726562 13.753906 -42.738281 C 13.738281 -42.726562 13.71875 -42.699219 13.691406 -42.667969 C 13.589844 -42.523438 13.480469 -42.320312 13.371094 -42.054688 Z M 13.371094 -42.054688 "/></g></g><g style="fill:#000000;fill-opacity:1;"><g transform="translate(265.848838, 210.374986)"><path style="stroke:none" d="M 31.089844 -44.574219 C 31.121094 -44.480469 31.144531 -44.421875 31.160156 -44.390625 C 31.105469 -44.492188 31.015625 -44.597656 30.890625 -44.707031 C 31.128906 -44.496094 31.304688 -44.332031 31.417969 -44.21875 C 31.863281 -43.773438 32.136719 -43.242188 32.25 -42.625 C 32.332031 -42.15625 32.308594 -41.683594 32.175781 -41.207031 C 32.03125 -40.691406 31.753906 -40.167969 31.339844 -39.628906 L 29.238281 -41.25 L 31.613281 -40.0625 C 31.199219 -39.234375 30.636719 -38.292969 29.929688 -37.230469 C 28.859375 -35.640625 28.195312 -34.527344 27.941406 -33.894531 L 27.898438 -33.792969 L 27.851562 -33.691406 C 26.25 -30.488281 25 -27.558594 24.109375 -24.90625 C 23.191406 -22.167969 22.414062 -19.707031 21.777344 -17.515625 C 21.117188 -15.242188 20.472656 -13.230469 19.847656 -11.480469 C 18.980469 -9.121094 17.921875 -7.316406 16.675781 -6.070312 L 14.800781 -7.945312 L 17.078125 -6.582031 C 16.203125 -5.125 14.769531 -4.167969 12.777344 -3.71875 C 11.207031 -3.367188 9.617188 -3.300781 8 -3.527344 C 6.28125 -3.769531 4.789062 -4.339844 3.527344 -5.238281 C 2.644531 -5.867188 2.023438 -6.636719 1.664062 -7.550781 C 1.296875 -8.488281 1.234375 -9.484375 1.476562 -10.546875 L 4.0625 -9.949219 L 1.429688 -10.257812 C 1.894531 -14.253906 2.617188 -17.640625 3.59375 -20.414062 C 4.511719 -23.03125 5.3125 -25.203125 5.992188 -26.933594 C 6.648438 -28.605469 7.214844 -30.109375 7.691406 -31.4375 C 8.195312 -32.84375 8.671875 -34.066406 9.117188 -35.105469 C 9.5625 -36.152344 10.085938 -37.253906 10.675781 -38.417969 C 11.265625 -39.574219 11.902344 -40.746094 12.59375 -41.941406 C 13.304688 -43.164062 14.023438 -44.292969 14.757812 -45.332031 C 16.644531 -47.988281 18.378906 -49.625 19.964844 -50.242188 C 21.304688 -50.765625 22.664062 -51.074219 24.042969 -51.175781 C 25.550781 -51.285156 26.910156 -51.105469 28.109375 -50.636719 C 29.617188 -50.046875 30.679688 -49.058594 31.300781 -47.664062 C 31.945312 -46.214844 31.839844 -44.542969 30.992188 -42.648438 L 28.570312 -43.734375 Z M 26.054688 -42.898438 L 25.726562 -43.878906 L 26.148438 -44.820312 C 26.296875 -45.152344 26.382812 -45.414062 26.402344 -45.609375 C 26.402344 -45.628906 26.40625 -45.644531 26.40625 -45.660156 L 26.40625 -45.652344 C 26.410156 -45.605469 26.425781 -45.558594 26.449219 -45.507812 C 26.421875 -45.570312 26.332031 -45.632812 26.179688 -45.691406 C 25.722656 -45.871094 25.140625 -45.933594 24.425781 -45.882812 C 23.578125 -45.820312 22.734375 -45.625 21.890625 -45.296875 C 21.6875 -45.21875 21.382812 -44.976562 20.976562 -44.574219 C 20.417969 -44.019531 19.789062 -43.25 19.089844 -42.261719 C 18.449219 -41.359375 17.816406 -40.363281 17.1875 -39.28125 C 16.546875 -38.171875 15.953125 -37.082031 15.40625 -36.011719 C 14.867188 -34.949219 14.398438 -33.953125 13.996094 -33.015625 C 13.589844 -32.074219 13.15625 -30.953125 12.6875 -29.648438 C 12.195312 -28.265625 11.609375 -26.714844 10.933594 -24.992188 C 10.277344 -23.324219 9.5 -21.210938 8.601562 -18.652344 C 7.753906 -16.25 7.121094 -13.246094 6.699219 -9.640625 L 6.683594 -9.496094 L 6.648438 -9.351562 C 6.644531 -9.332031 6.640625 -9.316406 6.640625 -9.304688 C 6.640625 -9.308594 6.640625 -9.3125 6.640625 -9.324219 C 6.636719 -9.378906 6.625 -9.433594 6.601562 -9.492188 C 6.582031 -9.546875 6.558594 -9.589844 6.53125 -9.621094 C 6.539062 -9.609375 6.5625 -9.589844 6.601562 -9.5625 C 7.160156 -9.167969 7.875 -8.90625 8.742188 -8.785156 C 9.714844 -8.648438 10.671875 -8.6875 11.609375 -8.898438 C 12.125 -9.015625 12.429688 -9.152344 12.523438 -9.3125 L 12.695312 -9.59375 L 12.925781 -9.824219 C 13.621094 -10.519531 14.261719 -11.667969 14.847656 -13.265625 C 15.4375 -14.914062 16.046875 -16.828125 16.679688 -19 C 17.339844 -21.257812 18.136719 -23.789062 19.078125 -26.59375 C 20.046875 -29.484375 21.390625 -32.640625 23.101562 -36.066406 L 25.476562 -34.878906 L 23.011719 -35.863281 C 23.40625 -36.847656 24.238281 -38.285156 25.511719 -40.171875 C 26.097656 -41.050781 26.550781 -41.804688 26.863281 -42.4375 L 26.980469 -42.664062 L 27.132812 -42.867188 C 27.152344 -42.890625 27.167969 -42.910156 27.179688 -42.925781 L 27.175781 -42.925781 C 27.132812 -42.84375 27.09375 -42.746094 27.058594 -42.625 C 26.976562 -42.328125 26.964844 -42.019531 27.023438 -41.691406 C 27.109375 -41.214844 27.324219 -40.804688 27.664062 -40.464844 C 27.617188 -40.511719 27.507812 -40.613281 27.339844 -40.761719 C 26.792969 -41.257812 26.363281 -41.96875 26.054688 -42.898438 Z M 16.636719 2.691406 C 16.003906 5.042969 14.683594 6.816406 12.667969 8.015625 C 10.886719 9.074219 8.984375 9.640625 6.957031 9.71875 C 4.933594 9.796875 3.039062 9.402344 1.285156 8.539062 C -0.808594 7.507812 -2.128906 5.894531 -2.667969 3.699219 C -3.21875 1.457031 -2.832031 -0.496094 -1.5 -2.167969 C -0.355469 -3.609375 1.042969 -4.558594 2.6875 -5.015625 C 3.941406 -5.363281 5.386719 -5.605469 7.03125 -5.738281 C 8.785156 -5.882812 10.402344 -5.78125 11.886719 -5.433594 C 13.671875 -5.019531 15.078125 -4.203125 16.101562 -2.984375 C 16.84375 -2.105469 17.210938 -1.070312 17.210938 0.121094 C 17.210938 1.050781 16.96875 2.046875 16.488281 3.105469 L 14.074219 2 Z M 11.511719 1.3125 L 11.566406 1.101562 L 11.660156 0.898438 C 11.824219 0.542969 11.90625 0.28125 11.90625 0.121094 C 11.90625 0.222656 11.949219 0.324219 12.042969 0.4375 C 11.773438 0.117188 11.320312 -0.117188 10.679688 -0.265625 C 9.738281 -0.488281 8.664062 -0.546875 7.464844 -0.449219 C 6.15625 -0.339844 5.039062 -0.15625 4.105469 0.101562 C 3.570312 0.25 3.082031 0.59375 2.652344 1.136719 C 2.40625 1.449219 2.351562 1.878906 2.484375 2.429688 C 2.632812 3.023438 3.015625 3.472656 3.628906 3.777344 C 4.582031 4.246094 5.625 4.457031 6.753906 4.414062 C 7.878906 4.371094 8.949219 4.050781 9.957031 3.449219 C 10.734375 2.988281 11.25 2.277344 11.511719 1.3125 Z M 11.511719 1.3125 "/></g></g><g style="fill:#6ff6b7;fill-opacity:1;"><g transform="translate(86.367186, 210.374986)"><path style="stroke:none" d="M 10.0625 3.515625 C 8 3.597656 6.109375 3.34375 4.390625 2.75 C 2.671875 2.164062 1.273438 1.367188 0.203125 0.359375 C -0.859375 -0.648438 -1.53125 -1.832031 -1.8125 -3.1875 C -2.101562 -4.539062 -1.863281 -5.925781 -1.09375 -7.34375 C -0.0390625 -9.039062 2.0625 -9.546875 5.21875 -8.859375 C 7.601562 -8.367188 9.25 -8.101562 10.15625 -8.0625 C 11.070312 -8.019531 11.851562 -8.144531 12.5 -8.4375 C 15.445312 -9.40625 17.101562 -10.453125 17.46875 -11.578125 C 17.707031 -12.429688 17.179688 -13.425781 15.890625 -14.5625 C 15.367188 -15.039062 14.78125 -15.519531 14.125 -16 C 13.476562 -16.488281 12.9375 -16.976562 12.5 -17.46875 C 10.476562 -18.96875 8.890625 -20.695312 7.734375 -22.65625 C 6.578125 -24.613281 6.097656 -26.742188 6.296875 -29.046875 C 6.503906 -31.359375 6.890625 -33.269531 7.453125 -34.78125 C 8.023438 -36.300781 8.734375 -37.644531 9.578125 -38.8125 C 11.078125 -40.875 13.019531 -42.554688 15.40625 -43.859375 C 18.15625 -45.273438 20.359375 -46.179688 22.015625 -46.578125 C 25.296875 -47.304688 28.613281 -47.367188 31.96875 -46.765625 C 33.101562 -46.566406 34.070312 -46.179688 34.875 -45.609375 C 35.6875 -45.046875 36.492188 -44.460938 37.296875 -43.859375 C 38.710938 -42.441406 39.054688 -41.003906 38.328125 -39.546875 C 38.046875 -38.898438 37.601562 -38.375 37 -37.96875 C 36.394531 -37.5625 35.75 -37.335938 35.0625 -37.296875 C 35.144531 -36.210938 34.941406 -35.40625 34.453125 -34.875 C 33.523438 -33.945312 31.90625 -33.34375 29.59375 -33.0625 C 26.28125 -33.300781 24.039062 -33.117188 22.875 -32.515625 C 21.5 -31.785156 20.988281 -30.207031 21.34375 -27.78125 C 21.425781 -27.25 21.757812 -26.703125 22.34375 -26.140625 C 22.9375 -25.578125 23.625 -24.972656 24.40625 -24.328125 C 25.195312 -23.679688 26.023438 -22.953125 26.890625 -22.140625 C 27.765625 -21.328125 28.523438 -20.394531 29.171875 -19.34375 C 31.441406 -15.625 31.257812 -11.28125 28.625 -6.3125 C 26.6875 -2.59375 23.375 0.195312 18.6875 2.0625 C 16.257812 3.03125 13.382812 3.515625 10.0625 3.515625 Z M 10.0625 3.515625 "/></g></g><g style="fill:#6ff6b7;fill-opacity:1;"><g transform="translate(119.849404, 210.374986)"><path style="stroke:none" d="M 23.84375 -44.28125 C 24.25 -43.1875 24.46875 -42.457031 24.5 -42.09375 C 24.582031 -41.320312 24.300781 -40.675781 23.65625 -40.15625 C 23.65625 -40.113281 23.613281 -40.050781 23.53125 -39.96875 C 23.894531 -38.070312 23.972656 -36.289062 23.765625 -34.625 C 23.566406 -32.96875 23.304688 -31.375 22.984375 -29.84375 C 25.171875 -33.5625 26.910156 -36.289062 28.203125 -38.03125 C 30.867188 -41.632812 33.359375 -44.203125 35.671875 -45.734375 C 36.429688 -46.179688 37.367188 -46.515625 38.484375 -46.734375 C 39.597656 -46.953125 40.660156 -46.976562 41.671875 -46.8125 C 42.679688 -46.65625 43.519531 -46.253906 44.1875 -45.609375 C 44.851562 -44.960938 45.144531 -43.992188 45.0625 -42.703125 C 43.9375 -34.816406 42.722656 -27.46875 41.421875 -20.65625 C 40.128906 -13.84375 38.453125 -7.34375 36.390625 -1.15625 L 36.390625 -1.03125 L 36.328125 -1.03125 C 35.847656 0.425781 34.640625 1.457031 32.703125 2.0625 C 30.796875 2.625 29.09375 2.664062 27.59375 2.1875 C 25.78125 1.65625 24.953125 0.679688 25.109375 -0.734375 L 25.171875 -2.125 L 25.171875 -2.25 C 25.335938 -3.21875 25.429688 -3.875 25.453125 -4.21875 C 25.472656 -4.5625 25.5 -4.8125 25.53125 -4.96875 C 25.613281 -6.019531 25.785156 -7 26.046875 -7.90625 C 26.316406 -8.820312 26.507812 -9.5625 26.625 -10.125 C 26.75 -10.695312 26.867188 -11.234375 26.984375 -11.734375 C 27.109375 -12.242188 27.191406 -12.640625 27.234375 -12.921875 C 25.703125 -10.816406 24.613281 -9.539062 23.96875 -9.09375 C 22.34375 -7.96875 20.457031 -7.441406 18.3125 -7.515625 C 16.976562 -7.597656 16.210938 -7.90625 16.015625 -8.4375 C 15.609375 -9.5625 15.328125 -10.226562 15.171875 -10.4375 C 14.921875 -10.757812 14.71875 -11.304688 14.5625 -12.078125 C 13.507812 -7.421875 12.476562 -4.125 11.46875 -2.1875 C 11.0625 -1.414062 10.65625 -0.726562 10.25 -0.125 C 9.6875 1.207031 8.394531 2.140625 6.375 2.671875 C 4.46875 3.191406 2.644531 3.148438 0.90625 2.546875 C -0.863281 1.984375 -1.707031 0.972656 -1.625 -0.484375 C -1.550781 -1.941406 -1.257812 -3.769531 -0.75 -5.96875 C -0.25 -8.175781 0.34375 -10.515625 1.03125 -12.984375 C 3.09375 -20.785156 4.554688 -25.859375 5.421875 -28.203125 C 6.296875 -30.546875 7.035156 -32.382812 7.640625 -33.71875 C 9.097656 -36.832031 10.394531 -39.097656 11.53125 -40.515625 C 12.78125 -43.066406 14.863281 -44.601562 17.78125 -45.125 C 20.082031 -45.570312 22.101562 -45.289062 23.84375 -44.28125 Z M 23.84375 -44.28125 "/></g></g><g style="fill:#6ff6b7;fill-opacity:1;"><g transform="translate(161.762827, 210.374986)"><path style="stroke:none" d="M 33.546875 -41.125 C 34.921875 -40.394531 35.789062 -39.320312 36.15625 -37.90625 C 35.34375 -33.375 34.613281 -28.875 33.96875 -24.40625 C 33.320312 -19.945312 32.691406 -16.207031 32.078125 -13.1875 C 31.472656 -10.175781 31.0625 -7.921875 30.84375 -6.421875 C 30.625 -4.929688 30.367188 -3.4375 30.078125 -1.9375 L 29.71875 -0.671875 C 29.632812 -0.222656 29.550781 0.191406 29.46875 0.578125 C 29.394531 0.960938 29.316406 1.375 29.234375 1.8125 C 28.097656 3.113281 26.5625 3.765625 24.625 3.765625 C 22.5625 3.765625 20.925781 3.238281 19.71875 2.1875 C 18.988281 1.613281 18.863281 0.421875 19.34375 -1.390625 C 19.550781 -2.117188 19.679688 -3.054688 19.734375 -4.203125 C 19.796875 -5.359375 19.867188 -6.320312 19.953125 -7.09375 L 19.953125 -7.21875 C 18.742188 -6.769531 17.648438 -6.191406 16.671875 -5.484375 C 15.703125 -4.773438 15.097656 -4.328125 14.859375 -4.140625 C 14.617188 -3.960938 14.296875 -3.820312 13.890625 -3.71875 C 13.484375 -3.625 13.117188 -3.554688 12.796875 -3.515625 C 12.023438 -3.472656 11.5 -3.351562 11.21875 -3.15625 C 8.875 1.050781 6.769531 3.394531 4.90625 3.875 C 3.738281 4.238281 2.566406 4.328125 1.390625 4.140625 C 0.222656 3.960938 -0.703125 3.269531 -1.390625 2.0625 C -2.691406 0.851562 -2.367188 -2.460938 -0.421875 -7.890625 C 0.628906 -10.753906 2.132812 -14.195312 4.09375 -18.21875 C 6.050781 -22.25 7.941406 -25.757812 9.765625 -28.75 C 13.691406 -35.175781 18 -40.59375 22.6875 -45 C 23.457031 -45.332031 24.285156 -45.707031 25.171875 -46.125 C 26.054688 -46.550781 26.929688 -46.785156 27.796875 -46.828125 C 28.671875 -46.867188 29.570312 -46.765625 30.5 -46.515625 C 31.4375 -46.273438 32.226562 -45.914062 32.875 -45.4375 C 34.375 -44.300781 34.597656 -42.863281 33.546875 -41.125 Z M 20.5625 -25.171875 C 19.707031 -22.742188 18.851562 -20.507812 18 -18.46875 C 17.15625 -16.425781 16.429688 -14.640625 15.828125 -13.109375 L 20.625 -13.28125 C 20.945312 -15.875 21.3125 -18.441406 21.71875 -20.984375 C 22.125 -23.535156 22.507812 -26.082031 22.875 -28.625 Z M 18.921875 -13.046875 C 19.492188 -13.046875 20.0625 -13.082031 20.625 -13.15625 L 20.625 -13.21875 C 20.09375 -13.175781 19.601562 -13.132812 19.15625 -13.09375 C 18.71875 -13.0625 18.640625 -13.046875 18.921875 -13.046875 Z M 18.921875 -13.046875 "/></g></g><g style="fill:#6ff6b7;fill-opacity:1;"><g transform="translate(195.972911, 210.374986)"><path style="stroke:none" d="M 27.234375 -30.203125 C 27.234375 -31.421875 26.804688 -32.03125 25.953125 -32.03125 C 25.628906 -32.03125 25.242188 -31.945312 24.796875 -31.78125 C 24.359375 -31.625 23.9375 -31.484375 23.53125 -31.359375 C 22.039062 -30.546875 20.878906 -29.664062 20.046875 -28.71875 C 19.210938 -27.769531 18.367188 -26.707031 17.515625 -25.53125 C 16.671875 -24.363281 15.945312 -23.113281 15.34375 -21.78125 C 14.738281 -20.445312 14.273438 -19.191406 13.953125 -18.015625 C 12.773438 -13.691406 13.21875 -10.78125 15.28125 -9.28125 C 16.132812 -8.675781 17.035156 -8.382812 17.984375 -8.40625 C 18.929688 -8.425781 19.695312 -8.613281 20.28125 -8.96875 C 20.875 -9.332031 21.453125 -9.675781 22.015625 -10 C 22.585938 -10.332031 23.242188 -10.566406 23.984375 -10.703125 C 24.734375 -10.847656 25.664062 -10.75 26.78125 -10.40625 C 27.894531 -10.0625 28.488281 -9.601562 28.5625 -9.03125 C 28.644531 -8.46875 28.644531 -7.882812 28.5625 -7.28125 C 28.488281 -6.675781 28.476562 -6.128906 28.53125 -5.640625 C 28.59375 -5.148438 29.03125 -4.847656 29.84375 -4.734375 C 30.613281 -3.765625 30.128906 -2.59375 28.390625 -1.21875 C 27.941406 -0.851562 27.515625 -0.507812 27.109375 -0.1875 C 23.628906 2.039062 19.929688 3.273438 16.015625 3.515625 C 13.546875 3.679688 10.914062 3.238281 8.125 2.1875 C 3.957031 0.601562 1.613281 -2.9375 1.09375 -8.4375 C 0.40625 -13.53125 1.050781 -18.804688 3.03125 -24.265625 C 4.6875 -28.867188 7.191406 -33.132812 10.546875 -37.0625 C 13.585938 -40.65625 16.582031 -43 19.53125 -44.09375 C 23.050781 -45.914062 26.851562 -46.625 30.9375 -46.21875 C 35.257812 -45.65625 38.085938 -43.816406 39.421875 -40.703125 C 40.753906 -37.585938 40.535156 -33.847656 38.765625 -29.484375 C 38.148438 -27.941406 36.992188 -26.726562 35.296875 -25.84375 C 33.847656 -25.03125 32.269531 -24.625 30.5625 -24.625 C 28.863281 -24.625 27.769531 -25.160156 27.28125 -26.234375 C 26.800781 -27.304688 26.785156 -28.628906 27.234375 -30.203125 Z M 27.234375 -30.203125 "/></g></g><g style="fill:#6ff6b7;fill-opacity:1;"><g transform="translate(230.728902, 210.374986)"><path style="stroke:none" d="M 10.921875 -43.0625 C 11.691406 -44.925781 12.78125 -45.59375 14.1875 -45.0625 C 14.59375 -45.957031 14.945312 -46.523438 15.25 -46.765625 C 15.550781 -47.003906 15.863281 -47.191406 16.1875 -47.328125 C 16.519531 -47.472656 16.863281 -47.628906 17.21875 -47.796875 C 17.582031 -47.960938 18.148438 -48.101562 18.921875 -48.21875 C 19.691406 -48.34375 20.539062 -48.414062 21.46875 -48.4375 C 22.40625 -48.457031 23.347656 -48.40625 24.296875 -48.28125 C 25.242188 -48.15625 26.039062 -47.894531 26.6875 -47.5 C 28.257812 -46.5625 28.601562 -45.0625 27.71875 -43 C 27.800781 -43.039062 27.78125 -43.003906 27.65625 -42.890625 L 27.109375 -41.859375 L 26.6875 -41.3125 C 26.488281 -41.101562 25.863281 -39.867188 24.8125 -37.609375 C 23.957031 -35.992188 23.085938 -34.394531 22.203125 -32.8125 C 20.742188 -30.101562 19.851562 -28.363281 19.53125 -27.59375 C 20.945312 -28.363281 22.582031 -29.476562 24.4375 -30.9375 C 27.957031 -33.644531 30.203125 -35.257812 31.171875 -35.78125 C 32.148438 -36.3125 32.828125 -36.632812 33.203125 -36.75 C 33.585938 -36.875 33.960938 -36.90625 34.328125 -36.84375 C 34.691406 -36.78125 35.078125 -36.671875 35.484375 -36.515625 L 37 -35.90625 C 37.96875 -35.582031 38.492188 -34.410156 38.578125 -32.390625 C 38.617188 -30.410156 38.210938 -28.914062 37.359375 -27.90625 C 33.679688 -23.132812 29.539062 -19.9375 24.9375 -18.3125 C 23.519531 -17.789062 22.0625 -17.347656 20.5625 -16.984375 C 22.707031 -16.742188 24.75 -15.328125 26.6875 -12.734375 C 28.257812 -10.628906 29.398438 -8.460938 30.109375 -6.234375 C 30.816406 -4.015625 31.375 -2.367188 31.78125 -1.296875 C 32.1875 -0.234375 32.359375 0.585938 32.296875 1.171875 C 32.234375 1.765625 31.890625 2.210938 31.265625 2.515625 C 30.640625 2.816406 29.578125 3.109375 28.078125 3.390625 C 27.390625 3.515625 25.976562 2.707031 23.84375 0.96875 C 22.90625 0.195312 21.910156 -0.640625 20.859375 -1.546875 C 19.804688 -2.453125 18.757812 -3.3125 17.71875 -4.125 C 15.289062 -6.019531 13.585938 -7.007812 12.609375 -7.09375 C 12.535156 -7.09375 12.375 -7.132812 12.125 -7.21875 L 11.046875 -4.484375 C 10.472656 -3.148438 9.894531 -1.742188 9.3125 -0.265625 C 8.726562 1.203125 8.03125 2.523438 7.21875 3.703125 C 5.96875 4.546875 4.507812 4.890625 2.84375 4.734375 C 0.945312 4.523438 -0.300781 3.753906 -0.90625 2.421875 C -1.3125 1.171875 -0.644531 -2.503906 1.09375 -8.609375 C 2.257812 -12.898438 3.265625 -16.660156 4.109375 -19.890625 C 4.960938 -23.128906 5.691406 -25.804688 6.296875 -27.921875 C 6.910156 -30.046875 7.359375 -31.707031 7.640625 -32.90625 C 7.921875 -34.101562 8.203125 -35.265625 8.484375 -36.390625 C 9.171875 -39.023438 9.984375 -41.25 10.921875 -43.0625 Z M 10.921875 -43.0625 "/></g></g><g style="fill:#6ff6b7;fill-opacity:1;"><g transform="translate(265.848838, 210.374986)"><path style="stroke:none" d="M 28.578125 -43.734375 C 28.734375 -43.242188 28.910156 -42.90625 29.109375 -42.71875 C 29.316406 -42.539062 29.460938 -42.414062 29.546875 -42.34375 C 29.742188 -42.132812 29.640625 -41.769531 29.234375 -41.25 C 28.867188 -40.519531 28.363281 -39.671875 27.71875 -38.703125 C 26.550781 -36.960938 25.804688 -35.6875 25.484375 -34.875 C 23.816406 -31.5625 22.519531 -28.519531 21.59375 -25.75 C 20.664062 -22.976562 19.878906 -20.476562 19.234375 -18.25 C 18.585938 -16.03125 17.957031 -14.070312 17.34375 -12.375 C 16.613281 -10.394531 15.765625 -8.921875 14.796875 -7.953125 C 14.316406 -7.140625 13.445312 -6.59375 12.1875 -6.3125 C 10.9375 -6.03125 9.664062 -5.976562 8.375 -6.15625 C 7.082031 -6.332031 5.976562 -6.742188 5.0625 -7.390625 C 4.15625 -8.046875 3.820312 -8.898438 4.0625 -9.953125 C 4.507812 -13.753906 5.1875 -16.945312 6.09375 -19.53125 C 7.007812 -22.113281 7.800781 -24.253906 8.46875 -25.953125 C 9.132812 -27.660156 9.707031 -29.191406 10.1875 -30.546875 C 10.675781 -31.898438 11.128906 -33.070312 11.546875 -34.0625 C 11.972656 -35.050781 12.46875 -36.097656 13.03125 -37.203125 C 13.601562 -38.316406 14.222656 -39.453125 14.890625 -40.609375 C 15.554688 -41.765625 16.234375 -42.828125 16.921875 -43.796875 C 18.503906 -46.015625 19.835938 -47.335938 20.921875 -47.765625 C 22.015625 -48.191406 23.117188 -48.441406 24.234375 -48.515625 C 25.347656 -48.597656 26.316406 -48.476562 27.140625 -48.15625 C 27.972656 -47.832031 28.550781 -47.304688 28.875 -46.578125 C 29.195312 -45.859375 29.097656 -44.910156 28.578125 -43.734375 Z M 14.078125 2 C 13.628906 3.65625 12.707031 4.894531 11.3125 5.71875 C 9.914062 6.550781 8.425781 7 6.84375 7.0625 C 5.269531 7.125 3.804688 6.820312 2.453125 6.15625 C 1.097656 5.488281 0.25 4.457031 -0.09375 3.0625 C -0.4375 1.664062 -0.210938 0.472656 0.578125 -0.515625 C 1.367188 -1.503906 2.304688 -2.148438 3.390625 -2.453125 C 4.484375 -2.753906 5.769531 -2.96875 7.25 -3.09375 C 8.726562 -3.21875 10.070312 -3.132812 11.28125 -2.84375 C 12.5 -2.5625 13.429688 -2.035156 14.078125 -1.265625 C 14.722656 -0.503906 14.722656 0.582031 14.078125 2 Z M 14.078125 2 "/></g></g></g></svg>